<?xml version="1.0" encoding="UTF-8"?>
<svg xmlns:xodm="http://www.corel.com/coreldraw/odm/2003" xmlns="http://www.w3.org/2000/svg" xmlns:xlink="http://www.w3.org/1999/xlink" version="1.1" id="Layer_1" x="0px" y="0px" viewBox="0 0 2500 2500" style="enable-background:new 0 0 2500 2500;" xml:space="preserve">
<style type="text/css">
	.st0{fill:#0033AD;}
	.st1{fill:none;}
</style>
<g id="Layer_x0020_1">
	<g id="_2084685177152">
		<path class="st0" d="M685,1241.3c-0.2,3.2-0.3,6.5-0.3,9.7c0,89.3,69.7,163.2,158.8,168.4h9.2c92.9-0.1,168.1-75.4,168.1-168.3    c0-92.9-75.4-168.3-168.3-168.3c-89.2,0-162.9,69.6-168,158.7L685,1241.3z"></path>
		<path class="st0" d="M57.4,1198.6c-1-0.1-2-0.1-3-0.1c-30,0-54.4,24.3-54.4,54.3c0,30,24.3,54.4,54.4,54.4    c28.8,0,52.6-22.5,54.3-51.2c0.1-1.1,0.1-2.1,0.1-3.2C108.7,1224,86.2,1200.2,57.4,1198.6C57.4,1198.6,57.4,1198.6,57.4,1198.6z"></path>
		<path class="st0" d="M674.3,264.5c18.2-9.3,29.6-28,29.6-48.4c0-30.1-24.4-54.4-54.5-54.4S595,186,595,216c0,8.4,2,16.8,5.7,24.3    c9.2,18.4,28.1,30.1,48.8,30.1C658.2,270.4,666.7,268.4,674.3,264.5L674.3,264.5z"></path>
		<path class="st0" d="M845.1,562.3c28.3-14.3,46.2-43.3,46.2-75.1c0-46.4-37.7-84.1-84.1-84.1c-46.4,0-84.1,37.6-84.1,84.1    c0,13.1,3.1,26.1,9,37.8c14.3,28.4,43.3,46.3,75.1,46.3C820.4,571.3,833.4,568.2,845.1,562.3L845.1,562.3L845.1,562.3z"></path>
		<path class="st0" d="M270.4,767.1c11.3,7.4,24.5,11.4,38.1,11.4c38.2,0,69.3-31,69.3-69.3c0-38.2-31-69.2-69.3-69.2    c-23.4,0-45.1,11.8-57.9,31.3c-7.4,11.3-11.3,24.5-11.3,38C239.2,732.5,250.9,754.3,270.4,767.1z"></path>
		<path class="st0" d="M372.8,1168c-1.6-0.1-3.2-0.1-4.7-0.1c-46.4,0-84.1,37.7-84.1,84.1c0,46.4,37.6,84.1,84.1,84.1    c44.5,0,81.4-34.8,83.9-79.2c0.1-1.6,0.1-3.2,0.1-4.7C452.1,1207.4,417.3,1170.6,372.8,1168L372.8,1168z"></path>
		<path class="st0" d="M279.6,1733.2c-23.3,11.8-38,35.7-38,61.8c0,38.2,31,69.2,69.3,69.2c38.2,0,69.3-31,69.3-69.2    c0-10.8-2.5-21.5-7.4-31.2c-11.8-23.3-35.7-38.1-61.8-38.1C300,1725.7,289.3,1728.3,279.6,1733.2L279.6,1733.2L279.6,1733.2z"></path>
		<path class="st0" d="M606.4,994.3c16.1,10.6,35,16.2,54.2,16.2c54.7,0,99-44.3,99-99c0-54.6-44.3-99-99-99    c-33.3,0-64.5,16.8-82.8,44.7c-10.6,16.1-16.2,35-16.2,54.3C561.6,944.9,578.5,976,606.4,994.3L606.4,994.3L606.4,994.3z"></path>
		<path class="st0" d="M1643.1,555.7c13.7,8.9,29.7,13.7,46,13.7c46.5,0,84.2-37.7,84.2-84.2s-37.7-84.1-84.2-84.1    c-28.4,0-54.9,14.3-70.4,38.1c-9,13.7-13.8,29.7-13.8,46.1C1604.9,513.6,1619.3,540.1,1643.1,555.7z"></path>
		<path class="st0" d="M1815.6,258.8c8.9,5.8,19.2,8.9,29.9,8.9c30.1,0,54.4-24.4,54.4-54.4s-24.4-54.4-54.4-54.4    c-18.4,0-35.5,9.3-45.6,24.7c-5.8,8.9-8.9,19.2-8.9,29.8C1791,231.6,1800.3,248.7,1815.6,258.8L1815.6,258.8L1815.6,258.8z"></path>
		<path class="st0" d="M1656.3,1081.1c-3.2-0.2-6.4-0.3-9.7-0.3c-93,0-168.4,75.4-168.4,168.4c0,89.2,69.6,163,158.7,168.1    c3.2,0,6.5,0,9.8,0c92.9-0.1,168.2-75.4,168.2-168.3c0-41.3-15.2-81.3-42.8-112.1C1742.6,1103.5,1700.9,1083.4,1656.3,1081.1    L1656.3,1081.1L1656.3,1081.1z"></path>
		<path class="st0" d="M900.4,982.6c28.4,56.8,86.5,92.6,149.9,92.6c0.2,0,0.4,0,0.5,0h0c93,0,168.4-75.4,168.4-168.4    c0-26.4-6.2-52.5-18.2-76.1c-28.6-56.4-86.4-92-149.7-92c-0.3,0-0.5,0-0.8,0c-92.9,0.1-168.1,75.5-168.1,168.4    C882.6,933.4,888.7,959.2,900.4,982.6L900.4,982.6L900.4,982.6z"></path>
		<path class="st0" d="M2220.2,766.9c23.3-11.8,38.1-35.7,38.1-61.8c0-38.2-31-69.3-69.2-69.3c-38.2,0-69.3,31-69.3,69.3    c0,10.8,2.5,21.5,7.4,31.1c11.8,23.4,35.7,38.1,61.9,38.1C2199.9,774.3,2210.6,771.8,2220.2,766.9L2220.2,766.9L2220.2,766.9z"></path>
		<path class="st0" d="M1793.4,820.5c-33.4,16.8-54.4,51-54.4,88.4c0,54.7,44.3,99,99,99c54.6,0,99-44.3,99-99    c0-15.5-3.6-30.7-10.6-44.5c-16.8-33.4-51-54.5-88.3-54.5C1822.5,809.9,1807.2,813.6,1793.4,820.5L1793.4,820.5z"></path>
		<path class="st0" d="M1243.6,233.4c1.3,0.1,2.6,0.1,3.9,0.1c38.2,0,69.3-31,69.3-69.2c0-38.2-31-69.3-69.3-69.3    c-36.7,0-67.1,28.7-69.1,65.4c-0.1,1.3-0.1,2.6-0.1,3.9C1178.2,201,1206.9,231.3,1243.6,233.4L1243.6,233.4L1243.6,233.4z"></path>
		<path class="st0" d="M1242.8,669.2c1.8,0.1,3.7,0.2,5.5,0.2c54.7,0,99-44.3,99-99c0-54.6-44.3-99-99-99    c-52.4,0-95.8,40.9-98.8,93.3c-0.1,1.8-0.2,3.7-0.2,5.6C1149.4,622.8,1190.4,666.3,1242.8,669.2L1242.8,669.2z"></path>
		<path class="st0" d="M706.6,1679.5c33.3-16.8,54.4-51,54.4-88.4c0-54.7-44.3-99-99-99c-54.7,0-99,44.3-99,99    c0,15.5,3.6,30.8,10.6,44.6c16.8,33.3,51,54.4,88.4,54.4C677.5,1690.1,692.8,1686.4,706.6,1679.5L706.6,1679.5L706.6,1679.5z"></path>
		<path class="st0" d="M1306.8,813.6c-17.9,27.4-27.5,59.5-27.5,92.2c0,92.9,75.4,168.3,168.3,168.3c92.9,0,168.3-75.4,168.3-168.3    c0-92.9-75.2-168.2-168.1-168.3c0,0-0.1,0-0.1,0C1390.9,737.6,1337.9,766.2,1306.8,813.6L1306.8,813.6L1306.8,813.6z"></path>
		<path class="st0" d="M1599.4,1517.5c-28.6-56.7-86.7-92.5-150.3-92.5c-92.9,0-168.3,75.4-168.3,168.3    c0,92.9,75.4,168.3,168.3,168.3c26.3-0.2,52.3-6.5,75.8-18.4c56.6-28.7,92.3-86.8,92.3-150.2    C1617.3,1566.8,1611.1,1540.9,1599.4,1517.5L1599.4,1517.5L1599.4,1517.5z"></path>
		<path class="st0" d="M1893.5,1505.7c-16.1-10.6-35-16.2-54.3-16.2c-54.7,0-99,44.3-99,99c0,54.6,44.3,99,99,99    c33.3,0,64.4-16.8,82.7-44.7c10.6-16.1,16.2-35,16.2-54.3C1938.1,1555.2,1921.3,1524.1,1893.5,1505.7L1893.5,1505.7L1893.5,1505.7    z"></path>
		<path class="st0" d="M2215.8,1252.9c0.1-1.6,0.1-3.2,0.1-4.7c0-46.4-37.6-84.1-84.1-84.1c-46.4,0-84.1,37.6-84.1,84.1    c0,44.6,34.8,81.4,79.2,83.9c1.6,0.1,3.2,0.1,4.7,0.1C2176.4,1332.2,2213.2,1297.4,2215.8,1252.9L2215.8,1252.9L2215.8,1252.9z"></path>
		<path class="st0" d="M2448.7,1193c-1-0.1-2.1-0.1-3.1-0.1c-30.1,0-54.4,24.4-54.4,54.5c0,30.1,24.4,54.4,54.4,54.4    c28.9,0,52.7-22.5,54.4-51.3c0.1-1,0.1-2,0.1-3C2500,1218.6,2477.5,1194.7,2448.7,1193L2448.7,1193z"></path>
		<path class="st0" d="M2229.4,1732.9c-11.3-7.4-24.5-11.3-37.9-11.3c-38.2,0-69.3,31-69.3,69.3c0,38.2,31,69.2,69.3,69.2    c23.3,0,45.1-11.8,57.9-31.3c7.4-11.3,11.4-24.5,11.4-38C2260.7,1767.5,2249,1745.7,2229.4,1732.9L2229.4,1732.9L2229.4,1732.9z"></path>
		<path class="st0" d="M684.3,2241.2c-8.9-5.8-19.3-8.9-29.9-8.9c-30.1,0-54.5,24.4-54.5,54.5c0,30.1,24.4,54.4,54.5,54.4    c18.3,0,35.5-9.2,45.5-24.6c5.8-8.9,8.9-19.3,8.9-29.9C708.9,2268.4,699.6,2251.3,684.3,2241.2L684.3,2241.2z"></path>
		<path class="st0" d="M1825.5,2235.5c-18.4,9.2-29.9,28.1-29.9,48.6c0,30.1,24.4,54.4,54.4,54.4s54.4-24.4,54.4-54.4    c0-8.5-2-16.9-5.8-24.5c-9.2-18.4-28-30-48.6-30C1841.5,2229.7,1833.1,2231.7,1825.5,2235.5L1825.5,2235.5L1825.5,2235.5z"></path>
		<path class="st0" d="M1193.1,1686.1c17.9-27.4,27.5-59.5,27.5-92.2c0-92.9-75.4-168.3-168.3-168.3c-92.9,0-168.3,75.4-168.3,168.3    c0,92.9,75.3,168.2,168.2,168.3c0.2,0,0.4,0,0.6,0C1109.4,1762.2,1162.2,1733.5,1193.1,1686.1L1193.1,1686.1L1193.1,1686.1z"></path>
		<path class="st0" d="M856.7,1944.4c-13.7-8.9-29.7-13.7-46-13.7c-46.4,0-84.1,37.7-84.1,84.1c0,46.4,37.6,84.1,84.1,84.1    c28.3,0,54.8-14.3,70.3-38c9-13.7,13.7-29.7,13.7-46.1C894.7,1986.4,880.4,1960,856.7,1944.4L856.7,1944.4L856.7,1944.4z"></path>
		<path class="st0" d="M1249.2,2266.6c-1.3-0.1-2.6-0.1-3.9-0.1c-38.2,0-69.2,31-69.2,69.2c0,38.2,31,69.3,69.2,69.3    c36.7,0,67-28.6,69.1-65.3c0.1-1.3,0.1-2.7,0.1-4C1314.5,2299,1285.8,2268.7,1249.2,2266.6L1249.2,2266.6z"></path>
		<path class="st0" d="M1249.9,1830.8c-2-0.1-4-0.2-6-0.2c-54.6,0-99,44.3-99,99c0,54.7,44.3,99,99,99c52.5,0,95.8-41,98.8-93.3    c0.1-1.9,0.2-3.8,0.2-5.7C1342.9,1877.2,1302.1,1834,1249.9,1830.8L1249.9,1830.8z"></path>
		<path class="st0" d="M1654.7,1937.7c-28.3,14.3-46.1,43.3-46.1,75c0,46.5,37.7,84.2,84.2,84.2s84.2-37.7,84.2-84.2    c0-13.3-3.2-26.4-9.2-38.3c-14.3-28.2-43.3-45.9-74.9-45.9C1679.6,1928.6,1666.5,1931.7,1654.7,1937.7L1654.7,1937.7    L1654.7,1937.7z"></path>
	</g>
	<rect y="0" class="st1" width="2500" height="2500"></rect>
</g>
</svg>
