<svg id="svg" version="1.1" xmlns="http://www.w3.org/2000/svg" xmlns:xlink="http://www.w3.org/1999/xlink" width="400" height="400" viewBox="0, 0, 400,400"><g id="svgg"><path id="path0" d="M238.733 0.316 C 238.660 0.490,237.251 1.705,235.601 3.016 C 233.952 4.327,230.863 6.840,228.738 8.600 C 226.612 10.360,223.753 12.700,222.384 13.800 C 221.014 14.900,219.693 15.985,219.447 16.210 C 219.201 16.436,216.570 18.583,213.600 20.982 C 210.630 23.381,206.805 26.481,205.100 27.872 C 203.395 29.262,200.605 31.536,198.900 32.924 C 197.195 34.313,193.838 37.058,191.440 39.024 C 186.352 43.196,180.146 48.256,178.711 49.400 C 178.160 49.840,176.919 50.857,175.954 51.660 C 174.989 52.463,173.005 54.083,171.544 55.260 C 170.083 56.437,165.701 60.010,161.807 63.200 C 150.338 72.594,144.897 77.021,139.800 81.103 C 137.160 83.218,132.931 86.669,130.403 88.774 C 127.874 90.878,124.348 93.770,122.567 95.200 C 117.557 99.221,112.302 103.490,108.042 107.000 C 105.905 108.760,102.382 111.640,100.212 113.400 C 98.042 115.160,94.423 118.130,92.170 120.000 C 89.917 121.870,86.488 124.660,84.551 126.200 C 81.424 128.686,76.674 132.573,68.946 138.969 C 67.597 140.086,64.913 142.260,62.983 143.800 C 54.554 150.526,44.920 158.369,42.384 160.571 C 41.605 161.247,40.359 162.250,39.615 162.800 C 38.872 163.350,36.526 165.240,34.403 167.000 C 32.280 168.760,28.666 171.739,26.372 173.620 C 24.077 175.500,19.250 179.460,15.644 182.420 C 12.039 185.379,8.400 188.340,7.558 189.000 C 6.716 189.660,4.676 191.280,3.025 192.600 L 0.023 195.000 0.012 282.100 L 0.000 369.200 0.921 369.200 C 1.427 369.200,4.352 368.733,7.421 368.161 C 10.489 367.590,13.900 366.970,15.000 366.783 C 16.100 366.596,17.990 366.264,19.200 366.046 C 20.410 365.827,23.560 365.266,26.200 364.800 C 32.812 363.632,34.833 363.269,37.500 362.768 C 38.765 362.530,41.240 362.090,43.000 361.789 C 44.760 361.488,47.550 360.963,49.200 360.622 C 53.850 359.661,55.967 359.263,59.000 358.778 C 60.540 358.532,63.150 358.065,64.800 357.741 C 67.533 357.203,70.597 356.643,79.800 355.002 C 81.560 354.688,84.530 354.148,86.400 353.801 C 88.270 353.454,92.410 352.705,95.600 352.136 C 98.790 351.567,102.120 350.967,103.000 350.802 C 103.880 350.637,105.860 350.300,107.400 350.052 C 111.427 349.405,121.156 347.607,122.800 347.207 C 123.570 347.020,125.370 346.676,126.800 346.442 C 128.230 346.209,132.280 345.489,135.800 344.841 C 139.320 344.194,144.990 343.183,148.400 342.596 C 151.810 342.008,155.860 341.273,157.400 340.961 C 158.940 340.650,162.810 339.945,166.000 339.395 C 169.190 338.846,172.700 338.211,173.800 337.986 C 176.268 337.480,179.002 336.973,182.400 336.392 C 183.830 336.147,185.720 335.795,186.600 335.609 C 187.480 335.423,189.370 335.080,190.800 334.846 C 193.869 334.343,201.057 333.029,206.418 331.990 C 211.829 330.942,216.659 328.932,224.200 324.594 C 225.809 323.668,227.852 322.578,235.600 318.514 C 237.910 317.303,242.770 314.735,246.400 312.809 C 250.030 310.883,255.070 308.228,257.600 306.910 C 260.130 305.592,262.920 304.103,263.800 303.601 C 264.680 303.099,267.348 301.678,269.730 300.444 C 274.378 298.035,276.158 297.096,283.000 293.442 C 289.757 289.833,299.720 284.597,308.000 280.303 C 310.750 278.877,313.900 277.213,315.000 276.606 C 316.100 276.000,317.900 275.008,319.000 274.402 C 320.100 273.796,323.340 272.081,326.200 270.591 C 329.060 269.101,332.750 267.164,334.400 266.287 C 343.310 261.551,352.172 256.886,357.200 254.286 C 360.114 252.778,364.326 250.512,368.000 248.476 C 368.990 247.927,372.140 246.274,375.000 244.802 C 380.377 242.035,390.445 236.710,393.600 234.965 C 394.590 234.417,396.431 233.481,397.691 232.885 L 399.983 231.800 399.991 115.900 L 400.000 0.000 319.433 0.000 C 275.122 0.000,238.807 0.142,238.733 0.316 M320.000 65.844 C 320.000 66.199,319.235 67.411,318.300 68.538 C 317.365 69.665,316.330 70.926,316.000 71.338 C 315.670 71.751,315.217 72.294,314.994 72.545 C 314.771 72.795,313.961 73.809,313.194 74.799 C 311.604 76.851,311.616 76.835,308.579 80.600 C 307.337 82.140,305.931 83.850,305.453 84.400 C 304.976 84.950,304.147 86.030,303.612 86.800 C 303.077 87.570,302.534 88.290,302.406 88.400 C 302.278 88.510,301.459 89.500,300.586 90.600 C 299.714 91.700,298.905 92.690,298.790 92.800 C 298.674 92.910,297.957 93.810,297.195 94.800 C 296.434 95.790,295.629 96.796,295.406 97.037 C 295.183 97.277,294.550 98.070,294.000 98.800 C 293.450 99.530,291.830 101.590,290.400 103.377 C 288.970 105.165,287.260 107.317,286.600 108.159 C 285.940 109.001,285.065 110.075,284.655 110.545 C 284.245 111.015,283.436 112.030,282.857 112.800 C 282.278 113.570,281.712 114.290,281.600 114.400 C 281.487 114.510,279.967 116.400,278.221 118.600 C 276.476 120.800,274.946 122.690,274.822 122.800 C 274.697 122.910,274.122 123.630,273.543 124.400 C 272.964 125.170,272.155 126.187,271.745 126.660 C 271.335 127.133,269.920 128.917,268.600 130.624 C 267.280 132.331,265.795 134.141,265.300 134.646 C 264.805 135.151,264.396 135.707,264.391 135.882 C 264.386 136.057,263.801 136.856,263.091 137.659 C 262.381 138.461,261.530 139.455,261.200 139.868 C 260.870 140.281,259.526 141.964,258.214 143.609 C 256.902 145.254,255.642 146.805,255.414 147.055 C 254.430 148.137,253.600 149.226,253.600 149.433 C 253.600 149.556,253.375 149.894,253.100 150.184 C 252.509 150.807,252.141 151.256,248.994 155.200 C 247.677 156.850,246.420 158.400,246.200 158.644 C 245.980 158.889,245.260 159.782,244.600 160.629 C 241.900 164.096,236.123 171.331,233.600 174.406 C 232.610 175.613,231.674 176.780,231.520 177.000 C 231.366 177.220,230.637 178.120,229.900 179.000 C 229.163 179.880,227.940 181.410,227.181 182.400 C 226.423 183.390,225.407 184.603,224.923 185.096 L 224.045 185.992 149.325 186.004 C 107.253 186.011,74.555 185.864,74.489 185.668 C 74.255 184.965,75.939 184.076,96.800 173.892 C 101.530 171.583,109.630 167.625,114.800 165.096 C 119.970 162.567,127.980 158.654,132.600 156.400 C 137.220 154.146,143.670 150.974,146.932 149.351 C 150.195 147.728,153.120 146.400,153.432 146.400 C 153.745 146.400,154.000 146.220,154.000 146.000 C 154.000 145.780,154.360 145.600,154.800 145.600 C 155.240 145.600,155.600 145.420,155.600 145.200 C 155.600 144.980,155.960 144.800,156.400 144.800 C 156.840 144.800,157.200 144.664,157.200 144.498 C 157.200 144.331,157.785 143.941,158.500 143.629 C 159.808 143.060,176.641 134.859,187.800 129.355 C 191.100 127.727,194.025 126.396,194.300 126.398 C 194.575 126.399,194.800 126.220,194.800 126.000 C 194.800 125.780,195.160 125.600,195.600 125.600 C 196.040 125.600,196.400 125.464,196.400 125.298 C 196.400 125.131,196.985 124.748,197.700 124.446 C 198.415 124.145,202.789 122.031,207.420 119.749 C 212.051 117.467,216.056 115.600,216.320 115.600 C 216.584 115.600,216.800 115.420,216.800 115.200 C 216.800 114.980,217.023 114.800,217.295 114.800 C 217.567 114.800,221.572 112.924,226.195 110.632 C 247.655 99.991,256.690 95.600,257.126 95.600 C 257.387 95.600,257.600 95.420,257.600 95.200 C 257.600 94.980,257.847 94.800,258.148 94.800 C 258.449 94.800,262.454 92.932,267.048 90.649 C 276.481 85.961,288.098 80.263,302.200 73.406 C 307.480 70.839,313.420 67.943,315.400 66.972 C 319.339 65.039,320.000 64.877,320.000 65.844 M311.337 207.379 C 311.571 207.990,308.706 209.659,296.435 216.063 C 294.804 216.914,293.274 217.764,293.035 217.953 C 292.618 218.281,288.074 220.728,283.000 223.357 C 281.680 224.040,280.540 224.735,280.467 224.900 C 280.393 225.065,280.003 225.200,279.600 225.200 C 279.197 225.200,278.807 225.335,278.733 225.500 C 278.660 225.665,277.700 226.242,276.600 226.782 C 275.500 227.322,274.150 228.061,273.600 228.423 C 273.050 228.785,270.710 230.074,268.400 231.286 C 266.090 232.498,263.210 234.026,262.000 234.682 C 260.790 235.337,258.360 236.644,256.600 237.585 C 254.840 238.526,252.450 239.823,251.289 240.467 C 250.127 241.110,247.697 242.414,245.889 243.365 C 242.525 245.133,240.038 246.470,235.800 248.791 C 234.480 249.514,232.230 250.725,230.800 251.482 C 229.370 252.239,228.029 253.026,227.820 253.229 C 227.611 253.433,227.131 253.600,226.753 253.600 C 226.376 253.600,226.007 253.735,225.933 253.900 C 225.860 254.065,225.080 254.572,224.200 255.027 C 222.251 256.034,216.856 258.949,214.400 260.323 C 213.410 260.876,211.520 261.885,210.200 262.565 C 208.880 263.244,207.740 263.935,207.667 264.100 C 207.593 264.265,207.188 264.400,206.767 264.400 C 206.345 264.400,206.000 264.536,206.000 264.702 C 206.000 264.869,205.415 265.262,204.700 265.577 C 203.985 265.892,202.410 266.719,201.200 267.415 C 198.468 268.987,193.607 271.597,189.400 273.751 C 187.640 274.651,186.110 275.481,186.000 275.594 C 185.890 275.707,184.990 276.226,184.000 276.747 C 183.010 277.268,180.130 278.807,177.600 280.167 C 172.417 282.954,171.576 283.404,170.300 284.070 C 168.395 285.065,165.325 286.720,163.600 287.681 C 160.249 289.548,155.412 292.148,153.000 293.377 C 151.680 294.050,150.540 294.735,150.467 294.900 C 150.393 295.065,150.003 295.200,149.600 295.200 C 149.197 295.200,148.807 295.335,148.733 295.500 C 148.660 295.665,147.700 296.242,146.600 296.782 C 145.500 297.322,144.150 298.062,143.600 298.426 C 143.050 298.790,140.980 299.948,139.000 301.000 C 137.020 302.052,134.140 303.582,132.600 304.400 C 131.060 305.218,128.180 306.746,126.200 307.796 C 124.220 308.846,122.420 309.842,122.200 310.009 C 121.980 310.177,120.090 311.209,118.000 312.304 C 115.910 313.399,113.165 314.858,111.900 315.547 C 110.635 316.236,108.655 317.312,107.500 317.938 C 106.345 318.564,104.140 319.761,102.600 320.598 C 101.060 321.435,98.180 322.967,96.200 324.002 C 92.338 326.022,89.772 327.407,85.511 329.770 C 79.987 332.834,79.244 334.192,99.475 304.252 C 124.445 267.299,124.914 266.612,125.272 266.467 C 125.452 266.393,125.600 266.161,125.600 265.951 C 125.600 265.588,143.826 238.419,144.351 238.000 C 144.488 237.890,144.856 237.305,145.168 236.700 C 145.480 236.095,145.885 235.600,146.068 235.600 C 146.250 235.600,146.400 235.408,146.400 235.172 C 146.400 234.639,163.960 208.700,164.570 208.332 C 165.215 207.943,240.655 207.091,293.857 206.871 C 308.594 206.810,311.147 206.885,311.337 207.379 " stroke="none" fill="#c17bfb" fill-rule="evenodd"></path><path id="path1" d="M316.400 67.218 C 315.190 67.846,309.160 70.807,303.000 73.799 C 296.840 76.790,290.630 79.841,289.200 80.579 C 287.770 81.316,279.850 85.202,271.600 89.214 C 263.350 93.226,252.190 98.666,246.800 101.303 C 241.410 103.940,232.860 108.119,227.800 110.590 C 219.078 114.849,214.879 116.905,190.200 129.007 C 179.413 134.297,167.312 140.216,152.200 147.595 C 141.584 152.778,126.994 159.927,113.200 166.702 C 107.590 169.458,99.151 173.582,94.447 175.866 C 89.742 178.151,83.773 181.050,81.181 182.310 C 78.590 183.569,76.383 184.790,76.277 185.023 C 76.083 185.448,222.039 185.396,223.800 184.971 C 224.244 184.863,227.893 180.588,232.000 175.364 C 236.070 170.187,239.670 165.646,240.000 165.273 C 240.330 164.900,241.607 163.336,242.837 161.798 C 247.993 155.350,309.042 78.849,310.348 77.200 C 311.132 76.210,311.880 75.310,312.012 75.200 C 313.285 74.135,319.389 65.773,318.700 66.038 C 318.645 66.060,317.610 66.591,316.400 67.218 M251.400 208.019 C 242.380 208.167,223.120 208.335,208.600 208.392 C 194.080 208.449,178.263 208.609,173.451 208.747 L 164.702 209.000 158.907 217.600 C 151.009 229.322,110.475 289.290,95.506 311.400 C 88.804 321.300,83.388 329.526,83.471 329.680 C 83.613 329.942,84.421 329.548,90.600 326.203 C 91.920 325.489,94.620 324.046,96.600 322.997 C 98.580 321.948,100.740 320.780,101.400 320.400 C 102.060 320.020,104.220 318.850,106.200 317.799 C 108.180 316.749,110.745 315.374,111.900 314.744 C 116.584 312.192,118.443 311.188,123.800 308.315 C 126.880 306.664,130.660 304.634,132.200 303.804 C 133.740 302.974,136.350 301.573,138.000 300.692 C 139.650 299.810,144.060 297.429,147.800 295.401 C 151.540 293.372,156.220 290.851,158.200 289.797 C 160.180 288.743,163.690 286.853,166.000 285.597 C 168.310 284.341,171.640 282.542,173.400 281.600 C 175.160 280.658,178.490 278.858,180.800 277.601 C 183.110 276.344,186.800 274.362,189.000 273.198 C 193.487 270.823,195.098 269.955,201.400 266.509 C 203.820 265.185,207.420 263.247,209.400 262.202 C 211.380 261.156,214.080 259.715,215.400 258.999 C 221.089 255.913,232.438 249.778,235.200 248.294 C 236.850 247.408,239.100 246.193,240.200 245.594 C 243.078 244.028,246.921 241.961,250.600 240.002 C 252.360 239.065,254.700 237.806,255.800 237.203 C 256.900 236.600,259.420 235.244,261.400 234.188 C 263.380 233.133,265.540 231.968,266.200 231.600 C 266.860 231.232,269.020 230.067,271.000 229.012 C 272.980 227.956,275.500 226.600,276.600 225.999 C 279.951 224.166,283.620 222.195,287.400 220.196 C 292.300 217.605,310.160 207.921,310.367 207.743 C 310.622 207.524,269.860 207.714,251.400 208.019 " stroke="none" fill="#fbfafc" fill-rule="evenodd"></path><path id="path2" d="M0.000 47.200 C 0.000 78.686,0.134 94.400,0.404 94.400 C 0.626 94.400,2.704 93.590,5.022 92.600 C 7.339 91.610,9.462 90.800,9.738 90.800 C 10.014 90.800,10.411 90.640,10.620 90.445 C 10.829 90.250,12.890 89.366,15.200 88.481 C 17.510 87.596,21.290 86.125,23.600 85.212 C 25.910 84.299,29.195 83.028,30.899 82.387 C 32.604 81.745,34.764 80.873,35.699 80.448 C 36.635 80.024,39.110 79.010,41.200 78.196 C 43.290 77.381,48.330 75.403,52.400 73.799 C 56.470 72.195,63.310 69.502,67.600 67.814 C 71.890 66.126,77.314 63.947,79.653 62.973 C 81.993 61.998,84.035 61.200,84.193 61.200 C 84.350 61.200,85.046 60.936,85.740 60.614 C 86.433 60.291,90.510 58.666,94.800 57.002 C 99.090 55.338,102.960 53.818,103.400 53.625 C 103.840 53.432,105.460 52.792,107.000 52.203 C 108.540 51.614,110.340 50.893,111.000 50.599 C 111.660 50.306,113.910 49.409,116.000 48.607 C 122.046 46.285,133.997 41.580,136.400 40.574 C 137.610 40.068,143.010 37.919,148.400 35.800 C 153.790 33.681,159.190 31.526,160.400 31.013 C 161.610 30.499,163.680 29.675,165.000 29.181 C 166.320 28.687,167.940 28.053,168.600 27.773 C 169.887 27.226,185.454 21.050,199.800 15.395 C 204.640 13.487,209.410 11.653,210.400 11.319 C 211.390 10.986,212.380 10.577,212.600 10.410 C 212.820 10.244,214.530 9.518,216.400 8.797 C 222.516 6.438,223.347 6.109,228.000 4.209 C 230.530 3.175,233.487 1.989,234.572 1.573 C 235.656 1.157,236.727 0.633,236.952 0.408 C 237.229 0.131,199.402 0.000,118.680 0.000 L 0.000 0.000 0.000 47.200 M317.600 66.021 C 317.270 66.227,311.420 69.115,304.600 72.439 C 292.427 78.372,284.140 82.420,267.400 90.610 C 262.780 92.871,254.320 96.994,248.600 99.774 C 242.880 102.554,237.885 105.002,237.500 105.214 C 237.115 105.426,236.485 105.772,236.100 105.982 C 235.715 106.191,231.440 108.271,226.600 110.604 C 221.760 112.936,214.020 116.702,209.400 118.972 C 204.780 121.243,197.490 124.813,193.200 126.907 C 179.433 133.627,166.894 139.763,155.000 145.603 C 148.620 148.736,139.980 152.964,135.800 155.000 C 131.620 157.036,123.520 160.993,117.800 163.795 C 112.080 166.597,103.350 170.864,98.400 173.278 C 75.808 184.294,74.800 184.823,74.800 185.662 C 74.800 186.509,223.791 186.054,224.703 185.205 C 225.173 184.767,227.406 182.022,229.667 179.105 C 231.928 176.187,233.885 173.710,234.017 173.600 C 234.148 173.490,235.681 171.600,237.422 169.400 C 239.163 167.200,240.885 165.040,241.248 164.600 C 241.611 164.160,245.280 159.570,249.400 154.400 C 253.520 149.230,257.204 144.625,257.586 144.166 C 257.968 143.707,259.696 141.547,261.426 139.366 C 263.156 137.185,264.758 135.204,264.986 134.963 C 265.214 134.723,265.849 133.936,266.397 133.214 C 266.946 132.492,268.629 130.349,270.137 128.451 C 271.645 126.553,273.356 124.397,273.940 123.661 C 274.523 122.924,275.387 121.844,275.861 121.261 C 276.334 120.677,280.616 115.340,285.377 109.400 C 290.137 103.460,294.250 98.329,294.516 97.999 C 294.782 97.668,295.625 96.588,296.390 95.599 C 297.154 94.609,297.884 93.710,298.011 93.600 C 298.139 93.490,299.233 92.140,300.444 90.600 C 305.740 83.864,313.770 73.783,313.986 73.600 C 314.704 72.992,319.600 66.388,319.600 66.028 C 319.600 65.509,318.427 65.506,317.600 66.021 M318.800 66.341 C 318.800 66.639,312.647 74.668,312.012 75.200 C 311.880 75.310,311.132 76.210,310.348 77.200 C 309.042 78.849,247.993 155.350,242.837 161.798 C 241.607 163.336,240.330 164.900,240.000 165.273 C 239.670 165.646,236.070 170.187,232.000 175.364 C 227.893 180.588,224.244 184.863,223.800 184.971 C 222.039 185.396,76.083 185.448,76.277 185.023 C 76.383 184.790,78.590 183.569,81.181 182.310 C 83.773 181.050,89.742 178.151,94.447 175.866 C 99.151 173.582,107.590 169.458,113.200 166.702 C 126.994 159.927,141.584 152.778,152.200 147.595 C 167.312 140.216,179.413 134.297,190.200 129.007 C 214.879 116.905,219.078 114.849,227.800 110.590 C 232.860 108.119,241.410 103.940,246.800 101.303 C 252.190 98.666,263.350 93.226,271.600 89.214 C 279.850 85.202,287.770 81.316,289.200 80.579 C 290.630 79.841,296.840 76.790,303.000 73.799 C 309.160 70.807,315.190 67.846,316.400 67.218 C 317.610 66.591,318.645 66.060,318.700 66.038 C 318.755 66.017,318.800 66.154,318.800 66.341 M264.800 207.218 C 248.850 207.374,226.800 207.614,215.800 207.751 C 204.800 207.888,189.050 208.022,180.800 208.047 C 172.550 208.073,165.489 208.209,165.108 208.349 C 164.373 208.621,163.729 209.517,155.006 222.400 C 145.397 236.592,142.318 241.159,138.059 247.538 C 135.781 250.949,133.666 253.991,133.359 254.298 C 133.051 254.606,132.800 255.011,132.800 255.200 C 132.800 255.389,132.575 255.781,132.300 256.071 C 132.025 256.362,130.000 259.296,127.800 262.590 C 123.340 269.269,112.760 284.965,106.511 294.174 C 104.262 297.488,100.502 303.080,98.157 306.600 C 95.811 310.120,93.781 313.090,93.646 313.200 C 93.511 313.310,93.220 313.698,93.000 314.061 C 92.780 314.425,90.305 318.167,87.500 322.377 C 81.229 331.789,81.195 331.991,86.400 329.095 C 87.610 328.422,90.040 327.114,91.800 326.188 C 93.560 325.263,95.810 324.059,96.800 323.514 C 97.790 322.968,100.220 321.660,102.200 320.605 C 105.910 318.630,108.867 317.027,112.000 315.293 C 112.990 314.745,115.510 313.399,117.600 312.303 C 119.690 311.206,122.120 309.901,123.000 309.403 C 125.346 308.076,129.474 305.860,134.324 303.324 C 136.676 302.094,138.780 300.959,139.000 300.801 C 139.220 300.643,141.200 299.562,143.400 298.398 C 145.600 297.234,148.210 295.828,149.200 295.273 C 150.190 294.717,152.260 293.599,153.800 292.787 C 157.072 291.063,161.607 288.608,163.600 287.484 C 164.370 287.049,167.070 285.614,169.600 284.295 C 172.130 282.976,174.380 281.763,174.600 281.599 C 174.820 281.435,176.620 280.441,178.600 279.389 C 186.287 275.308,191.066 272.740,194.600 270.793 C 195.700 270.187,198.130 268.884,200.000 267.897 C 201.870 266.910,204.210 265.656,205.200 265.110 C 206.190 264.565,208.800 263.168,211.000 262.006 C 213.200 260.845,215.540 259.582,216.200 259.201 C 217.636 258.371,221.420 256.325,225.800 254.009 C 227.560 253.079,229.540 252.001,230.200 251.615 C 230.860 251.229,233.200 249.957,235.400 248.789 C 241.069 245.778,243.145 244.664,245.200 243.526 C 246.923 242.573,250.689 240.545,256.500 237.442 C 257.985 236.649,260.415 235.348,261.900 234.551 C 263.385 233.754,266.130 232.291,268.000 231.300 C 269.870 230.309,271.940 229.182,272.600 228.796 C 273.260 228.409,275.420 227.235,277.400 226.186 C 281.067 224.242,283.847 222.762,289.200 219.902 C 290.850 219.021,292.380 218.169,292.600 218.010 C 292.820 217.850,294.980 216.677,297.400 215.403 C 309.935 208.803,311.288 207.988,310.765 207.358 C 310.249 206.736,313.273 206.745,264.800 207.218 M310.367 207.743 C 310.160 207.921,292.300 217.605,287.400 220.196 C 283.620 222.195,279.951 224.166,276.600 225.999 C 275.500 226.600,272.980 227.956,271.000 229.012 C 269.020 230.067,266.860 231.232,266.200 231.600 C 265.540 231.968,263.380 233.133,261.400 234.188 C 259.420 235.244,256.900 236.600,255.800 237.203 C 254.700 237.806,252.360 239.065,250.600 240.002 C 246.921 241.961,243.078 244.028,240.200 245.594 C 239.100 246.193,236.850 247.408,235.200 248.294 C 232.438 249.778,221.089 255.913,215.400 258.999 C 214.080 259.715,211.380 261.156,209.400 262.202 C 207.420 263.247,203.820 265.185,201.400 266.509 C 195.098 269.955,193.487 270.823,189.000 273.198 C 186.800 274.362,183.110 276.344,180.800 277.601 C 178.490 278.858,175.160 280.658,173.400 281.600 C 171.640 282.542,168.310 284.341,166.000 285.597 C 163.690 286.853,160.180 288.743,158.200 289.797 C 156.220 290.851,151.540 293.372,147.800 295.401 C 144.060 297.429,139.650 299.810,138.000 300.692 C 136.350 301.573,133.740 302.974,132.200 303.804 C 130.660 304.634,126.880 306.664,123.800 308.315 C 118.443 311.188,116.584 312.192,111.900 314.744 C 110.745 315.374,108.180 316.749,106.200 317.799 C 104.220 318.850,102.060 320.020,101.400 320.400 C 100.740 320.780,98.580 321.948,96.600 322.997 C 94.620 324.046,91.920 325.489,90.600 326.203 C 84.421 329.548,83.613 329.942,83.471 329.680 C 83.388 329.526,88.804 321.300,95.506 311.400 C 110.475 289.290,151.009 229.322,158.907 217.600 L 164.702 209.000 173.451 208.747 C 178.263 208.609,194.080 208.449,208.600 208.392 C 223.120 208.335,242.380 208.167,251.400 208.019 C 269.860 207.714,310.622 207.524,310.367 207.743 " stroke="none" fill="#cb9bfb" fill-rule="evenodd"></path><path id="path3" d="M396.800 233.254 C 395.590 233.920,392.350 235.645,389.600 237.088 C 386.850 238.530,382.852 240.671,380.716 241.844 C 378.579 243.018,375.699 244.512,374.316 245.164 C 372.932 245.817,370.720 246.958,369.400 247.699 C 366.216 249.487,359.990 252.843,356.782 254.499 C 352.551 256.684,343.271 261.572,334.400 266.287 C 332.750 267.164,329.060 269.101,326.200 270.591 C 323.340 272.081,320.100 273.796,319.000 274.402 C 317.900 275.008,316.100 276.000,315.000 276.606 C 313.900 277.213,310.750 278.877,308.000 280.303 C 299.720 284.597,289.757 289.833,283.000 293.442 C 276.158 297.096,274.378 298.035,269.730 300.444 C 267.348 301.678,264.680 303.099,263.800 303.601 C 262.920 304.103,260.130 305.592,257.600 306.910 C 255.070 308.228,250.030 310.883,246.400 312.809 C 242.770 314.735,237.910 317.303,235.600 318.514 C 227.852 322.578,225.809 323.668,224.200 324.594 C 216.659 328.932,211.829 330.942,206.418 331.990 C 201.057 333.029,193.869 334.343,190.800 334.846 C 189.370 335.080,187.480 335.423,186.600 335.609 C 185.720 335.795,183.830 336.147,182.400 336.392 C 179.002 336.973,176.268 337.480,173.800 337.986 C 172.700 338.211,169.190 338.846,166.000 339.395 C 162.810 339.945,158.940 340.650,157.400 340.961 C 155.860 341.273,151.810 342.008,148.400 342.596 C 144.990 343.183,139.320 344.194,135.800 344.841 C 132.280 345.489,128.230 346.209,126.800 346.442 C 125.370 346.676,123.570 347.020,122.800 347.207 C 121.156 347.607,111.427 349.405,107.400 350.052 C 105.860 350.300,103.880 350.637,103.000 350.802 C 102.120 350.967,98.790 351.567,95.600 352.136 C 92.410 352.705,88.270 353.454,86.400 353.801 C 84.530 354.148,81.560 354.688,79.800 355.002 C 70.597 356.643,67.533 357.203,64.800 357.741 C 63.150 358.065,60.540 358.532,59.000 358.778 C 55.967 359.263,53.850 359.661,49.200 360.622 C 47.550 360.963,44.760 361.488,43.000 361.789 C 41.240 362.090,38.765 362.530,37.500 362.768 C 34.833 363.269,32.812 363.632,26.200 364.800 C 23.560 365.266,20.410 365.827,19.200 366.046 C 16.560 366.523,14.969 366.802,6.503 368.272 L 0.006 369.400 0.003 384.700 L 0.000 400.000 200.000 400.000 L 400.000 400.000 400.000 316.000 C 400.000 249.055,399.898 232.004,399.500 232.021 C 399.225 232.033,398.010 232.587,396.800 233.254 " stroke="none" fill="#ac6cfc" fill-rule="evenodd"></path><path id="path4" d="M236.952 0.408 C 236.727 0.633,235.656 1.157,234.572 1.573 C 233.487 1.989,230.530 3.175,228.000 4.209 C 223.347 6.109,222.516 6.438,216.400 8.797 C 214.530 9.518,212.820 10.244,212.600 10.410 C 212.380 10.577,211.390 10.986,210.400 11.319 C 209.410 11.653,204.640 13.487,199.800 15.395 C 185.454 21.050,169.887 27.226,168.600 27.773 C 167.940 28.053,166.320 28.687,165.000 29.181 C 163.680 29.675,161.610 30.499,160.400 31.013 C 159.190 31.526,153.790 33.681,148.400 35.800 C 143.010 37.919,137.610 40.068,136.400 40.574 C 133.997 41.580,122.046 46.285,116.000 48.607 C 113.910 49.409,111.660 50.306,111.000 50.599 C 110.340 50.893,108.540 51.614,107.000 52.203 C 105.460 52.792,103.840 53.432,103.400 53.625 C 102.960 53.818,99.090 55.338,94.800 57.002 C 90.510 58.666,86.433 60.291,85.740 60.614 C 85.046 60.936,84.350 61.200,84.193 61.200 C 84.035 61.200,81.993 61.998,79.653 62.973 C 77.314 63.947,71.890 66.126,67.600 67.814 C 63.310 69.502,56.470 72.195,52.400 73.799 C 48.330 75.403,43.290 77.381,41.200 78.196 C 39.110 79.010,36.635 80.024,35.699 80.448 C 34.764 80.873,32.604 81.745,30.899 82.387 C 29.195 83.028,25.910 84.301,23.600 85.216 C 21.290 86.131,17.831 87.480,15.914 88.214 C 13.997 88.948,11.837 89.807,11.114 90.122 C 8.160 91.409,2.517 93.698,1.300 94.102 L 0.000 94.534 0.000 144.667 C 0.000 172.240,0.092 194.800,0.204 194.800 C 0.316 194.800,1.775 193.675,3.445 192.300 C 5.115 190.925,7.072 189.350,7.793 188.800 C 8.514 188.250,12.050 185.379,15.652 182.420 C 19.253 179.460,24.077 175.500,26.372 173.620 C 28.666 171.739,32.280 168.760,34.403 167.000 C 36.526 165.240,38.872 163.350,39.615 162.800 C 40.359 162.250,41.605 161.247,42.384 160.571 C 44.920 158.369,54.554 150.526,62.983 143.800 C 64.913 142.260,67.597 140.086,68.946 138.969 C 76.674 132.573,81.424 128.686,84.551 126.200 C 86.488 124.660,89.917 121.870,92.170 120.000 C 94.423 118.130,98.042 115.160,100.212 113.400 C 102.382 111.640,105.905 108.760,108.042 107.000 C 112.302 103.490,117.557 99.221,122.567 95.200 C 124.348 93.770,127.874 90.878,130.403 88.774 C 132.931 86.669,137.160 83.218,139.800 81.103 C 144.897 77.021,150.338 72.594,161.807 63.200 C 165.701 60.010,170.083 56.437,171.544 55.260 C 173.005 54.083,174.989 52.463,175.954 51.660 C 176.919 50.857,178.160 49.840,178.711 49.400 C 180.146 48.256,186.352 43.196,191.440 39.024 C 193.838 37.058,197.240 34.276,199.000 32.842 C 200.760 31.409,203.550 29.135,205.200 27.790 C 206.850 26.444,210.630 23.381,213.600 20.982 C 216.570 18.583,219.201 16.436,219.447 16.210 C 219.693 15.985,221.013 14.900,222.380 13.800 C 223.747 12.700,226.712 10.270,228.969 8.400 C 231.226 6.530,234.354 4.010,235.920 2.800 C 237.487 1.590,238.776 0.465,238.784 0.300 C 238.808 -0.145,237.423 -0.063,236.952 0.408 M319.100 65.465 C 319.793 65.744,319.725 66.389,318.900 67.369 C 318.201 68.199,318.201 68.199,319.100 67.438 C 320.182 66.522,320.303 65.186,319.300 65.232 C 318.882 65.250,318.801 65.344,319.100 65.465 M75.023 184.775 C 74.241 185.639,74.490 186.424,75.524 186.354 C 76.133 186.312,76.131 186.289,75.500 186.124 C 74.630 185.897,74.624 185.658,75.462 184.731 C 75.826 184.329,76.034 184.000,75.924 184.000 C 75.814 184.000,75.408 184.349,75.023 184.775 M280.478 207.098 C 282.831 207.169,286.791 207.169,289.278 207.099 C 291.765 207.029,289.840 206.971,285.000 206.970 C 280.160 206.970,278.125 207.028,280.478 207.098 M229.100 207.499 C 232.895 207.565,239.105 207.565,242.900 207.499 C 246.695 207.434,243.590 207.380,236.000 207.380 C 228.410 207.380,225.305 207.434,229.100 207.499 M192.878 207.898 C 195.231 207.969,199.191 207.969,201.678 207.899 C 204.165 207.829,202.240 207.771,197.400 207.770 C 192.560 207.770,190.525 207.828,192.878 207.898 M208.311 207.893 C 209.251 207.978,210.691 207.977,211.511 207.891 C 212.330 207.805,211.560 207.736,209.800 207.737 C 208.040 207.739,207.370 207.809,208.311 207.893 M179.100 279.029 C 177.605 279.840,177.696 280.178,179.200 279.400 C 179.860 279.059,180.400 278.694,180.400 278.590 C 180.400 278.332,180.357 278.347,179.100 279.029 M82.006 330.276 C 81.996 331.031,82.730 331.284,83.497 330.791 C 84.143 330.376,84.138 330.359,83.432 330.583 C 82.997 330.721,82.523 330.604,82.338 330.314 C 82.106 329.948,82.010 329.937,82.006 330.276 " stroke="none" fill="#cb8cfb" fill-rule="evenodd"></path></g></svg>