<?xml version="1.0" encoding="UTF-8"?>
<svg xmlns:xodm="http://www.corel.com/coreldraw/odm/2003" xmlns="http://www.w3.org/2000/svg" xmlns:xlink="http://www.w3.org/1999/xlink" version="1.1" id="Layer_1" x="0px" y="0px" viewBox="0 0 2500 2500" style="enable-background:new 0 0 2500 2500;" xml:space="preserve">
<style type="text/css">
	.st0{fill:#FFFFFF;}
	.st1{fill:#345D9D;}
</style>
<g id="Layer_x0020_1">
	<g id="_1931629155472">
		<g id="Layer_x0020_1_0">
			<g id="_2525588809856">
				<circle class="st0" cx="1250" cy="1250" r="1114.7"></circle>
				<path class="st1" d="M1250,0C559.8,0,0,559.8,0,1250s559.8,1250,1250,1250s1250-559.8,1250-1250l0,0c0-1.1,0-2.6,0-3.6      C2500,559.5,1944.1,2,1257.3,0H1250z M1271.2,1292.4L1141,1731.2h696.1c0.4,0,0.8,0,1.2,0c18.9,0,34.4,15,35.1,33.9v11.5      l-60.5,208.8c-5.3,19.7-23.2,33.3-43.5,33.3c-0.6,0-1.3,0-1.9,0H702.1l178.6-608.3L681,1470.9l45.4-139.2l199.8-60.5      l251.2-853.5c5.6-19.7,23.5-33.3,44-33.3c0.5,0,0.9,0,1.4,0h269.4c0.4,0,0.8,0,1.2,0c18.9,0,34.5,15,35.1,33.9v11.5      l-211.9,720.3l199.8-60.5l-42.4,145.3L1271.2,1292.4L1271.2,1292.4L1271.2,1292.4z"></path>
			</g>
		</g>
	</g>
</g>
</svg>
