<svg xmlns="http://www.w3.org/2000/svg" width="400" height="400" viewBox="0 0 400 400"><path d="M0 0h400v400H0z"/><path d="m129.54 252.956.978-.002h3.256l2.352-.004 5.794-.004 6.94-.004q8.386-.008 16.772-.008l7.932-.004 33.986-.01h.858q13.782-.002 27.564-.014a36304 36304 0 0 1 32.334-.014h.796l12.68-.008q6.368-.008 12.736-.004 3.45.004 6.902-.004 3.156-.006 6.314 0 1.146.002 2.29-.004 1.55-.006 3.102.004l.906-.008c2.222.018 3.598.474 5.26 2.028.838 1.306 1.02 2.278.708 3.77-.646 1.664-1.74 2.772-3 4l-2.792 2.77-.736.728a74 74 0 0 0-3.918 4.206c-.862.976-1.788 1.884-2.72 2.794a64 64 0 0 0-3.87 4.132c-1.03 1.148-2.134 2.222-3.238 3.298-.712.7-1.376 1.384-1.97 2.19l-.422.55h-.666l-.24.572c-.52.928-1.16 1.546-1.926 2.282-.842.812-1.516 1.502-2.166 2.48h-.666l-.23.562c-.556.98-1.298 1.666-2.104 2.438l-1.5 1.5a244 244 0 0 1-2.334 2.312 68 68 0 0 0-2.188 2.376 142 142 0 0 1-3.688 3.958l-.484.514c-1.94 1.972-4.198 2.674-6.9 2.716q-.874.004-1.748.002l-.978.002h-3.264l-2.356.004-5.808.004-6.956.004q-8.406.008-16.81.008l-7.95.004-34.058.01h-.86q-13.812.002-27.626.014a36462 36462 0 0 1-32.402.014h-.796l-12.708.008q-6.382.008-12.764.004-3.46-.002-6.92.004-3.164.006-6.328 0-1.148-.002-2.296.004-1.554.006-3.108-.004l-.91.008c-2.184-.018-3.248-.496-4.866-2.006-.838-1.08-.998-2.016-.904-3.368.63-2.736 3.544-4.828 5.474-6.726.77-.76 1.5-1.538 2.2-2.364 1.22-1.44 2.568-2.744 3.908-4.068a54 54 0 0 0 3.404-3.672c.946-1.078 1.988-2.064 3.008-3.07 1.276-1.262 2.534-2.514 3.678-3.898l.836-.962H103l.246-.578c.496-.89 1.08-1.468 1.816-2.172.932-.91 1.828-1.818 2.666-2.812 1.312-1.532 2.75-2.936 4.192-4.346a51 51 0 0 0 2.86-3.034c1.402-1.622 2.898-3.142 4.408-4.662l.832-.854c2.996-3.016 5.376-3.594 9.52-3.586" fill="#7C63EC"/><path d="m86.586 173.834.98-.006q1.628-.004 3.256.006l2.356-.004q2.9-.006 5.8.004 3.474.008 6.948.002 6.41-.006 12.824.004 6.35.01 12.702.01h4.004q15.042 0 30.088.016a24998 24998 0 0 0 28.45.012h5.98a37968 37968 0 0 1 26.332.008l11.116.004q7.164 0 14.326.01 3.454.006 6.908.004 3.162-.002 6.322.006h2.29l3.108.004.902-.004c4.354.028 6.742 1.69 9.742 4.698l.67.684.676.676a80 80 0 0 1 3.742 4.066c.866.978 1.794 1.888 2.728 2.8a64 64 0 0 1 3.854 4.114c.9 1 1.856 1.94 2.812 2.886a64 64 0 0 1 3.854 4.114c.9 1 1.856 1.94 2.812 2.886 1.142 1.13 2.274 2.25 3.312 3.48 1.102 1.302 2.31 2.488 3.52 3.688a64 64 0 0 1 4.032 4.292c.718.798 1.474 1.546 2.238 2.298 4.798 4.718 4.798 4.718 4.98 6.928-.102 1.466-.696 2.29-1.682 3.342-1.044.864-1.934 1.22-3.288 1.22l-.836.006-.916-.004-.978.004q-1.638.004-3.274 0l-2.36.004q-2.572.004-5.146.004-3.824 0-7.652.006-7.23.008-14.46.008l-14.378.006h-.806q-11.234.006-22.468.006h-7.738q-13.42 0-26.84.014a27894 27894 0 0 1-33.358.016h-.804q-6.37 0-12.74.01-6.402.008-12.804.002-3.804-.004-7.608.006-2.84.006-5.678-.004-1.15-.002-2.298.004-1.56.006-3.122-.004l-.904.01c-2.578-.03-4.89-.8-6.798-2.594l-.658-.61-.656-.638-.67-.644a174 174 0 0 1-2.016-2.002l-.676-.672a86 86 0 0 1-4.304-4.682 240 240 0 0 0-1.708-1.916l-.814-.912c-.78-.808-1.598-1.474-2.476-2.172a32 32 0 0 1-1.188-1.334 30 30 0 0 0-1.958-2.126c-.524-.54-.524-.54-.524-1.208l-.58-.238c-.924-.524-1.458-1.144-2.15-1.95a60 60 0 0 0-3.146-3.354 42 42 0 0 1-2.542-2.708c-1.998-2.332-4.254-4.438-6.438-6.594-.89-.9-1.75-1.826-2.604-2.76l-.484-.528a186 186 0 0 1-3.248-3.664 30 30 0 0 0-1.248-1.308c-.956-.956-1.222-1.47-1.334-2.834.044-1.356.308-2.268 1.104-3.396 1.888-1.342 3.304-1.524 5.586-1.5" fill="#5697D5"/><path d="m129.506 94.956.978-.002 3.264-.002 2.354-.004 5.806-.006 6.954-.006q8.402-.01 16.806-.014l7.948-.004 28.908-.014h.856l5.15-.002q13.81-.004 27.62-.022a27508 27508 0 0 1 32.396-.02h.796q6.352-.002 12.704-.014 6.382-.01 12.762-.006 3.46.004 6.916-.006 3.164-.008 6.326 0 1.148.002 2.294-.004 1.554-.006 3.108.004l.908-.01c2.254.024 3.43.702 5.098 2.238.642 1.11.84 1.83.766 3.106-.85 3.15-4.56 5.888-6.822 8.1a66 66 0 0 0-3.844 4.098c-.862.978-1.79 1.886-2.724 2.798-1.136 1.122-2.262 2.236-3.292 3.458-1.362 1.608-2.886 3.06-4.384 4.544a60 60 0 0 0-3.558 3.824c-.994 1.116-2.072 2.15-3.134 3.2-.9.894-1.77 1.794-2.59 2.764-1.3 1.53-2.742 2.916-4.168 4.328a50 50 0 0 0-2.936 3.11c-5.152 6.026-5.152 6.026-9.106 6.608-1.058.048-2.114.046-3.172.044l-.978.002h-3.264l-2.354.004-5.806.004-6.954.004q-8.404.008-16.806.008l-7.948.004-34.912.01q-13.808.002-27.62.014a36442 36442 0 0 1-33.192.014l-12.704.008q-6.382.008-12.762.004-3.458-.002-6.916.004-3.164.006-6.326 0-1.148-.002-2.294.004-1.554.006-3.108-.004l-.908.008c-1.686-.014-2.842-.2-4.306-1.132-1.068-1.232-1.446-2.618-1.354-4.228.264-1.506.848-2.102 2.02-3.104q.716-.774 1.416-1.562l.778-.866a280 280 0 0 0 1.644-1.862l.808-.918.738-.846C88 132 88 132 88.666 132l.204-.534c.67-1.152 1.592-1.982 2.546-2.902a62 62 0 0 0 4.25-4.562q1.266-1.278 2.55-2.538c2.014-1.988 2.014-1.988 3.908-4.088 1.062-1.246 2.212-2.392 3.376-3.542a64 64 0 0 0 3.85-4.11c1.096-1.218 2.272-2.358 3.444-3.504a35 35 0 0 0 2.872-3.218 126 126 0 0 1 1.666-1.666q.546-.566 1.09-1.136l1.18-1.218.584-.618c2.776-2.838 5.456-3.412 9.318-3.406" fill="#32CFBB"/><path d="m124.666 96 .666 1.334h-1.666l-.334 1c-.7.248-1.258.334-2 .334l-.646.812c-.686.854-.686.854-1.686 1.186v.666a94 94 0 0 1-1.666 1.666l-.5.73c-.63.762-1.238.97-2.166 1.27v1.334h-.666v.666h-.666v1l-1 .334-.666.666-.792.772c-1.2 1.206-1.2 1.206-2.208 2.562.046 1.08.046 1.08.334 2-.604.208-.604.208-1.334.334l-1-.666c-1.462 1.322-2.562 2.338-3 4.334l.666.334v.666h-.666l-.334.666-.896-.104c-1.162.006-1.162.006-2.042.876-.78.85-.78.85-1.062 1.896-.688.23-.688.23-1.334.334l.666 1-1.126.396c-.938.4-1.164.528-1.708 1.438-.246.872-.246.872.166 1.834l-2.334.334c-.404 1.034-.404 1.034-.334 2.334-.604.208-.604.208-1.334.334l-1-.666-.23.562c-.556.978-1.31 1.644-2.104 2.438-.432.722-.432.722-.666 1.334h-.666l.334 1H87l-.334.666-1 .334v1.666c-.968.418-1.598.666-2.666.666-.41.82-.358 1.426-.334 2.334H82l.146.584.188.744.188.708c.144.624.144.624.144 1.292l1.666.334v1.334l.986-.012c2.746-.02 5.486.008 8.232.11l.764.026q1.914.068 3.828.148l1.436.052 1.29.052c1.11-.044 1.796-.26 2.796-.712.702.08.702.08 1.396.292 1.662.436 3.228.44 4.938.376v-1l1.666-.666c-.334 1-.334 1-.666 1.666l2.27.02 1.278.012c1.116.022 1.116.022 2.118-.366v.666l.666-.334q1.402-.036 2.806-.02l.858.004q1.816.008 3.632.024c4.288.032 4.288.032 8.568-.184 2.69-.208 5.348-.116 8.042-.02 4.604.16 9.204.246 13.808.132l1.48-.032q1.022-.022 2.042-.054l1.16-.034c1.014-.162 1.328-.344 1.936-1.15l.666.334.334 1 1.27-.166c2.086-.274 2.086-.274 3 .042 1.034.178 1.766-.17 2.728-.542l.334.334q.78.02 1.562 0a69 69 0 0 1 4.53.108c6.182.342 12.378.338 18.568.402l4.862.054q4.738.054 9.476.102V147a62160 62160 0 0 1-53.58.056h-1.138q-9.12.008-18.242.022-9.356.014-18.71.016-5.774.002-11.55.014-3.958.008-7.916.006-2.286 0-4.57.006-2.09.006-4.182.002-.758-.002-1.514.004-1.028.004-2.056-.002l-1.154.002c-1.418-.168-2.604-.604-3.554-1.7-.866-1.746-1.118-3.206-.5-5.09.666-.812.666-.812 1.666-1.666q.716-.774 1.416-1.562l.778-.866a280 280 0 0 0 1.644-1.862l.808-.918.738-.846C88 132 88 132 88.666 132l.204-.534c.67-1.152 1.592-1.982 2.546-2.902a62 62 0 0 0 4.25-4.562q1.266-1.278 2.55-2.538c2.014-1.988 2.014-1.988 3.908-4.088 1.062-1.246 2.212-2.392 3.376-3.542a64 64 0 0 0 3.85-4.11c1.096-1.218 2.272-2.358 3.444-3.504a35 35 0 0 0 2.872-3.218 150 150 0 0 1 1.666-1.666l1.09-1.16 1.182-1.236.584-.636c1.418-1.464 2.464-1.976 4.478-2.302" fill="#6E73D4"/><path d="M186 253a66876 66876 0 0 1 56.754-.056q9.46-.006 18.92-.022 9.704-.014 19.406-.016 5.99-.002 11.98-.014 4.104-.008 8.21-.006 2.37 0 4.74-.006 2.168-.006 4.338-.002.786.002 1.57-.004 1.068-.004 2.134.002l1.198-.002c1.724.198 2.788.848 4.042 2.02.838 1.306 1.02 2.276.708 3.77-.598 1.598-1.442 2.598-3 3.334l.334-3H318c.45-.69.45-.69.666-1.666a14 14 0 0 0-.758-2.076c-.242-.59-.242-.59-.242-1.256l-.602.006q-1.344.01-2.69.016l-.946.008-.904.004-.836.006c-.688-.04-.688-.04-1.354-.374l-.334.666-.666-.334h-1.126c-.958 0-1.644-.046-2.542-.334l.334 1.334h-.666l-.334 1-.334-2.334-.604.188c-.728.148-.728.148-1.728-.186l-.566.144c-1.118.276-2.232.23-3.376.222l-.756-.002-2.384-.01-1.62-.004-3.966-.016-.666 2h-1l.334-2.334-1.228-.02-.692-.012c-.752.012-.752.012-1.498.198-1.006.184-1.94.21-2.964.21l-1.23.004-1.322-.002-1.366.002-2.86-.002q-1.824-.002-3.65.002h-2.82l-1.996.002c-1.942-.004-3.794-.052-5.706-.38q-1.086.04-2.166.146c-1.512.136-2.982.22-4.5.188h-14.334l-.334 1.334h-1.666l-.104-.646-.232-.69-1-.334v.666l-.938-.166c-1.048-.192-1.048-.192-2.062-.166l-1.174-.084-.702-.05-1.416-.11a29 29 0 0 0-4.434.066c-3.352.266-6.706.228-10.066.22l-1.048-.002a446 446 0 0 1-16.512-.324c-2.242-.082-4.486-.148-6.73-.214l-3.554-.106-2.03-.062z" fill="#6488CC"/><path d="M279.666 301.334c0 1.218-.296 1.686-1 2.666-.688.396-.688.396-1.334.666l-.666.666-.334-.334-1.902.502c-1.24.268-2.456.254-3.72.242h-.866q-1.43 0-2.858-.01l-2.056-.002q-2.798-.004-5.594-.016l-5.97-.012q-5.014-.008-10.028-.024-6.51-.018-13.02-.028-12.756-.02-25.512-.05l-12.612-.028-22.464-.05-21.732-.048-.684-.002-6.81-.014L84 305.334V305l1.212-.002a123872 123872 0 0 0 79.638-.086l.858-.002q13.764-.018 27.528-.028a36238 36238 0 0 0 33.078-.04q6.33-.008 12.658-.01 6.362-.002 12.726-.016 3.448-.008 6.894-.006 3.156.002 6.312-.01h2.284q1.552.002 3.104-.008l.896.006c2.65-.026 5.394-.442 7.352-2.364l.66-.63z" fill="#0B0036"/><path d="m129.624 94.918.98-.002q1.626 0 3.25.004l2.354-.002q2.894-.002 5.792.004 3.47.006 6.938.002l12.804.006a16630 16630 0 0 0 17.476.008q14.176.002 28.352.012a76700 76700 0 0 0 36.928.016l17.37.006h.806q26.664.01 53.326.028v.334a48698 48698 0 0 1-36.686.178 13870 13870 0 0 1-67.036.166h-2.35q-15.248 0-30.496-.018L168 95.65q-3.956-.002-7.912-.01l-4.806-.004-2.212-.004q-1.498-.004-2.998-.002l-.878-.004c-1.336.002-2.552.064-3.858.374a42 42 0 0 1-1.952.032l-1.166-.004-1.252-.008-1.962-.006-4.132-.018-3.4-.014-2.546-.012c-2.008-.006-3.94.05-5.924.362 1.646-1.646 4.44-1.428 6.624-1.416" fill="#4ED7A7"/><path d="M315.334 261.334 317 262a7.4 7.4 0 0 1-1.744 2.464l-.642.63-.678.658-1.376 1.356-.624.612c-.812.828-1.566 1.7-2.314 2.586-1.07 1.196-2.228 2.308-3.368 3.436a56 56 0 0 0-3.29 3.558c-1.03 1.148-2.134 2.222-3.238 3.298-.712.7-1.376 1.384-1.97 2.19l-.422.546h-.666l-.24.572c-.52.928-1.16 1.546-1.926 2.282-.842.812-1.516 1.502-2.166 2.48h-.666l-.23.562c-.556.98-1.298 1.666-2.104 2.438l-1.5 1.5a244 244 0 0 1-2.334 2.312c-1.076 1.104-2.088 2.26-3.106 3.418a12.8 12.8 0 0 1-2.062 1.768c.27-.812.27-.812.666-1.666l1-.334.334-1c.688-.396.688-.396 1.334-.666a76 76 0 0 0-1-3.334c1.108-.37 1.558-.256 2.666 0H286l.334-.666-.334-1 2.666-.334v-3.334l1.334.666v.666h.666l-.334-1c.134-1.102.202-1.536 1-2.334l.334-1h1.666v-2.334l1 .666.75-.77c.918-.892 1.772-1.652 2.918-2.226l.666.334v-2h.666l-.666-1.334 1.334-.334v.666c.65-.066.65-.066 1.334-.334l.292-.614c.454-.87.954-1.238 1.75-1.802l.732-.526.558-.388-.666-2 1-.334v.666l.626-.312 1.374-.688v-2.334l3.334-.334-.334-1.334.646-.126.688-.204c.392-.784.666-1.448.666-2.334l.572-.16a12 12 0 0 0 2.094-.84c.358-.814.358-.814.334-1.666z" fill="#588FCC"/><path d="m124.666 96 .666 1.334h-1.666l-.334 1c-.7.248-1.258.334-2 .334l-.646.812c-.686.854-.686.854-1.686 1.186v.666a94 94 0 0 1-1.666 1.666l-.5.73c-.63.762-1.238.97-2.166 1.27v1.334h-.666v.666h-.666v1l-1 .334-.666.666-.792.772c-1.2 1.206-1.2 1.206-2.208 2.562.046 1.08.046 1.08.334 2-.604.208-.604.208-1.334.334l-1-.666c-1.462 1.322-2.562 2.338-3 4.334l.666.334v.666h-.666l-.334.666-.896-.104c-1.162.006-1.162.006-2.042.876-.78.85-.78.85-1.062 1.896-.688.23-.688.23-1.334.334l.666 1-1.126.396c-.938.4-1.164.528-1.708 1.438-.246.872-.246.872.166 1.834l-2.334.334c-.404 1.034-.404 1.034-.334 2.334-.604.208-.604.208-1.334.334l-1-.666-.23.562c-.556.978-1.31 1.644-2.104 2.438l-.354.75c-.312.584-.312.584-.958.834-.686.076-.686.076-1.686.076a188 188 0 0 1 1.126-1.334l.632-.75L88 132h.666l.204-.534c.67-1.152 1.592-1.982 2.546-2.902a62 62 0 0 0 4.25-4.562q1.266-1.278 2.55-2.538c2.014-1.988 2.014-1.988 3.908-4.088 1.062-1.246 2.212-2.392 3.376-3.542a64 64 0 0 0 3.85-4.11c1.096-1.218 2.272-2.358 3.444-3.504a35 35 0 0 0 2.872-3.218 150 150 0 0 1 1.666-1.666l1.09-1.16 1.182-1.236.584-.636c1.418-1.464 2.464-1.976 4.478-2.302" fill="#5887C1"/><path d="m123.666 225.334.834.164c1.282.186 2.53.218 3.822.216l.796.002 2.646.004 1.916.004 5.266.01 5.676.012 9.836.018 14.222.026q11.536.024 23.074.044l22.416.042.698.002 6.94.014q29.096.058 58.192.108v.334l-156 .334z" fill="#020316"/><path d="m271.8 252.946 1.46-.004 3.91-.008 2.45-.004q3.84-.006 7.682-.008 4.418-.002 8.836-.016 3.43-.012 6.862-.012 2.044 0 4.086-.008 1.916-.008 3.834-.004l1.404-.004q.96-.004 1.92.002l1.084-.002c1.676.206 2.746.88 3.964 2.02.838 1.306 1.02 2.276.708 3.77-.598 1.598-1.442 2.598-3 3.334l.334-3H318c.45-.69.45-.69.666-1.666a14 14 0 0 0-.758-2.076c-.242-.594-.242-.594-.242-1.26l-.602.006q-1.344.01-2.69.016l-.946.008-.904.004-.836.006c-.688-.04-.688-.04-1.354-.374l-.334.666-.666-.334h-1.126c-.958 0-1.644-.046-2.542-.334l.334 1.334h-.666l-.334 1-.334-2.334-.604.188c-.728.148-.728.148-1.728-.186l-.566.144c-1.118.276-2.232.23-3.376.222l-.756-.002-2.384-.01-1.62-.004-3.964-.016-.666 2h-1l.334-2.334-1.228-.02-.692-.012c-.752.012-.752.012-1.498.198-1.008.184-1.944.21-2.97.21l-1.234.004-1.324-.002-1.368.002-2.864-.002q-1.83-.002-3.66.002h-2.824l-2.002.002-1.236-.004h-1.084a20 20 0 0 1-3.014-.376v-.334a148 148 0 0 1 10.466-.388" fill="#5CA1BE"/><path d="M114.666 216.334h2l.104.604c.27.86.51 1.19 1.228 1.73.868.24.868.24 1.666.334l.126 1.146.21 1.186.666.334v.666h1.666l.044.606c.24.818.24.818 1.162 1.244l1.086.44 1.08.456.962.254 1-.666.334.666q3.23.012 6.46.018l2.196.006 3.16.008.99.004h.93l.814.002c.806-.02.806-.02 1.674-.23.776-.142.776-.142 1.442.192q.95.038 1.898.026l1.216-.006.656-.004q1.76-.012 3.52-.014l.75-.002c2.778-.004 5.554.032 8.332.074l.76.012 4.57.07 3.958.06 7.672.118.334-1.334h2l-.334 1.334q.906-.058 1.812-.126l1.02-.07.836-.138.334-.666h1v1h1.334l.334-1.334h1l.334 1.334h25.334v.334a23044 23044 0 0 1-37.718.074l-.802.002q-6.418.01-12.836.028-6.588.018-13.174.022-4.064.002-8.128.018a1296 1296 0 0 1-6.236.006l-2.556.008q-1.746.008-3.492.002l-1.018.012c-2.694-.022-5.048-.698-7.052-2.582l-.658-.612-.666-.646-.708-.676a178 178 0 0 1-2.126-2.094l-.734-.722-.692-.69-.626-.622c-.448-.53-.448-.53-.448-1.196" fill="#776BCF"/><path d="M228.334 174q8.796-.024 17.594-.034 4.084-.004 8.17-.016 3.562-.01 7.122-.012 1.886-.002 3.77-.008 1.776-.006 3.552-.004.958 0 1.916-.008c4.792.012 7.222 1.344 10.558 4.69l.672.684.674.676a80 80 0 0 1 3.742 4.066c.866.978 1.794 1.888 2.728 2.8a66 66 0 0 1 4.5 4.834l-1 .334v-.666h-1.666l-.084-.958c-.13-1.074-.13-1.074-.916-1.458l-.666-.25-.334-.666-.666-.334v-.666l-2.334-.666v-1c-.62-1.27-1.09-1.732-2.334-2.334-.376-.688-.376-.688-.666-1.334l-.666-.334v-.666l-1.666.334-.666-2.334h-1l-.666-.334.334-1.334-1-.334-.666-.666c-1.468-.778-2.71-.722-4.334-.666l.334-.666-6.334-.334-.334 1-.812-.334c-1.438-.404-2.708-.384-4.188-.334h-1l-.876.012-.978.01-.98.012c-.834-.036-.834-.036-1.502-.368l.334 1h-1l-1 .334c-.728-.312-.728-.312-1.334-.666l.334-.334h-13.334l-.334 1h-1l.334-1.334a126 126 0 0 0-1.916.104l-1.078.058c-1.084.184-1.488.516-2.338 1.17-1.166-.27-1.166-.27-2.334-.666h-1.334v-.666z" fill="#33D4AB"/><path d="m161.334 145 1 .334.334 1 1.27-.166c2.086-.274 2.086-.274 3 .042 1.034.178 1.766-.17 2.728-.542l.334.334q.78.02 1.562 0a69 69 0 0 1 4.53.108c6.182.342 12.378.338 18.568.402l4.862.054q4.738.054 9.476.102v.334h-86.332v-.334l.584-.026 2.73-.12.916-.04a170 170 0 0 0 4.392-.24c3.35-.238 6.646-.226 10.002-.104 4.592.16 9.182.244 13.776.132l1.488-.032q1.024-.022 2.05-.054l1.164-.034.898-.15z" fill="#6096C0"/><path d="M293.334 192c1.786 1.474 3.37 3.05 4.938 4.75a152 152 0 0 0 4.584 4.77c.894.882 1.75 1.772 2.562 2.728 1.126 1.32 2.35 2.53 3.584 3.75a64 64 0 0 1 4.032 4.292c.718.798 1.474 1.546 2.238 2.298 4.798 4.718 4.798 4.718 4.98 6.928-.102 1.466-.696 2.29-1.682 3.342-1.14.944-2.01 1.222-3.484 1.178l-.808-.018-.612-.018 1-.666.666-1V225l.604-.478c.73-.522.73-.522 1.73-.856l-.072-.67-.094-.892-.094-.878a26 26 0 0 1-.072-2.558h-.666v-1l-2-.666.666-1.334-.604.23-.73.102c-.52-.478-.52-.478-1-1h-1l.334-1 .666-.334-.334-1h-1l-.334-1.334h-.666c-.784-.658-1-1-1.334-2l-.666-.166L308 209l-.334-1-.666-.666-.666-.666h-.666v-1.334h-1l-.334-1.334h-.666v-.666l-1-.334-.146-.646-.188-.688-.584-.292c-1.11-.556-1.654-1.402-2.416-2.376l-.666.334-.416-.938c-.562-1.022-.944-1.46-1.916-2.062l.334-.666-1-.334-.666-1c-.862-.084-.862-.084-1.666 0l.334-1c-.13-.714-.13-.714-.334-1.334" fill="#33D7AF"/><path d="m87.556 173.838 1.276-.004q1.722-.004 3.446.008 1.806.006 3.612.004 3.03.002 6.062.016 3.504.014 7.006.014 3.734 0 7.466.01l2.15.002q2 .004 4.002.014h1.202l1.1.008.956.004c.87.09 1.42.31 2.168.752l-2 .666v-1l-.708.334c-1.044.364-1.862.334-2.958.334l-.666.666h-1.334l-.334-1-1 .334-1.666-.334a70 70 0 0 0-2.416 0c-2.872.03-5.72-.136-8.584-.334l-.334.666q-.834.02-1.666 0l-.334-.334a22 22 0 0 0-1.424-.032l-.918.004-1.002.008-1.028.004q-2.186.008-4.37.024l-3.186.014-.984.008a48 48 0 0 1-6.09-.362v1l.666.334c-1.16.386-1.82.236-3 0l-1 1.334.334.666h.666v1.666H82l.188 1.126c.146 1.208.146 1.208-.188 1.876-1.964-1.9-1.964-1.9-2.104-3.604.044-1.356.308-2.266 1.104-3.396 2.094-1.584 3.992-1.52 6.554-1.496M81 177.666l.334 1Z" fill="#7869D3"/><path d="M81 302.666c1 .334 1 .334 1.334 1 .968.322 1.574.374 2.58.374l.992.002 1.092-.002 1.158.002 3.186-.002h3.434l5.95-.002 8.604-.004 13.958-.006 13.56-.006h.844l4.192-.002q17.394-.006 34.786-.016v.666a26288 26288 0 0 1-40.23.074l-.854.002q-6.85.01-13.696.028-7.024.018-14.048.022-4.336.002-8.672.018-2.972.01-5.942.008a492 492 0 0 0-3.432.008q-1.858.008-3.716.002l-1.1.012c-2.424-.02-2.424-.02-3.542-.806-.438-.704-.438-.704-.438-1.372" fill="#904BEA"/><path d="M128.08 253.22h1.134q1.852.002 3.7.016l2.57.004q3.034.006 6.066.022 3.454.016 6.908.022 7.104.016 14.208.05v.334l-.574.002q-6.906.018-13.812.06-3.34.02-6.68.028a1154 1154 0 0 0-6.444.032q-1.23.008-2.46.008-1.72.002-3.442.02l-1.03-.004c-1.856.028-2.862.134-4.222 1.52a24 24 0 0 1-1.334.334l-.334.666h-.666l-.416.728c-.702 1.128-1.558 1.77-2.584 2.604l-.48.646c-.678.896-1.504 1.532-2.378 2.232l-.476.456v.666l-.812.438-.856.562-.334 1.666-3.334 1c3.12-3.684 6.47-7.164 9.854-10.604l.66-.682.632-.636.548-.558c2.034-1.654 3.872-1.658 6.384-1.632" fill="#8652E0"/><path d="M315.334 261.334 317 262a7.4 7.4 0 0 1-1.744 2.464l-.642.63-.678.658-1.376 1.356-.624.612c-.812.828-1.566 1.7-2.314 2.586-1.07 1.196-2.228 2.308-3.37 3.436a56 56 0 0 0-3.264 3.53c-1.582 1.762-3.304 3.4-4.988 5.062l-1-.334v1h-1.334c.084-.626.084-.626.334-1.334.646-.396.646-.396 1.334-.666l.666-.334.666.334v-2h.666l-.666-1.334 1.334-.334v.666c.65-.066.65-.066 1.334-.334l.292-.614c.454-.87.954-1.238 1.75-1.802l.732-.526.558-.388-.666-2 1-.334v.666l.626-.312 1.374-.688v-2.334l3.334-.334-.334-1.334.646-.126.688-.204c.392-.784.666-1.448.666-2.334l.572-.16a12 12 0 0 0 2.094-.84c.358-.814.358-.814.334-1.666z" fill="#569CC9"/><path d="M82.666 182.666h.666v.666l.792-.062.876.064c.666 1 .666 1 .666 2h1.666l.292.98c.256 1.056.256 1.056 1.042 1.354l1.334 1 .666.334c.376.688.376.688.666 1.334l1-.334.334 2.334 1.334.334v1.334l1.666.334.084.542c.34 1.08.916 1.882 1.584 2.792l.666.334.334-.666.02.73c.408 1.224 1.002 1.482 2.054 2.16.868.652 1.332 1.546 1.924 2.444.706.318.706.318 1.334.334l.666 2.334h.666a48 48 0 0 1 1.666 1.666l-.334 1-1.334-1.292-.75-.726c-.58-.656-.58-.656-.58-1.324l-.58-.238c-.924-.524-1.458-1.144-2.15-1.95a60 60 0 0 0-3.146-3.354 42 42 0 0 1-2.542-2.708c-1.998-2.33-4.252-4.436-6.434-6.59-.904-.916-1.78-1.854-2.648-2.804l-.464-.504c-3.036-3.314-3.036-3.314-3.036-3.852" fill="#8151DB"/><path d="M131.716 94.924h1.636q2.212 0 4.424.008l4.632.006q4.38.004 8.762.014 4.988.01 9.978.014 10.26.01 20.518.034v.334l-8.54.13-3.97.06-4.614.07-.772.012a502 502 0 0 1-8.682.06l-.794-.002q-1.874-.004-3.75-.018l-1.34-.006-1.174-.008c-.948.032-1.774.18-2.7.368a42 42 0 0 1-1.952.032l-1.166-.004-1.252-.008-1.962-.006-4.132-.018-3.4-.014-2.546-.012c-2.008-.006-3.94.05-5.924.362 2.076-2.076 5.99-1.422 8.716-1.41" fill="#54BAB5"/><path d="M279.666 301.334c0 1.218-.296 1.686-1 2.666-.688.396-.688.396-1.334.666l-.666.666-.334-.334-1.132.308c-1.7.448-3.33.448-5.08.434h-1.046q-1.7-.002-3.398-.01l-2.364-.002-6.208-.016-6.342-.014q-6.216-.01-12.43-.032V305l1.318-.006q6.164-.028 12.33-.072 3.17-.022 6.338-.036 3.06-.014 6.12-.038l2.33-.012q1.638-.006 3.274-.024l.964.002c2.714-.038 5.518-.4 7.532-2.376l.66-.628z" fill="#02011C"/><path d="M186 253h44.666l-.334.666c-4.872.276-9.724.388-14.604.376l-1.03-.002a440 440 0 0 1-16.384-.324c-2.242-.082-4.486-.148-6.73-.214l-3.554-.106-2.03-.062z" fill="#7275C9"/><path d="m124.666 96 .666 1.334h-1.666l-.334 1c-.7.248-1.258.334-2 .334l-.646.812c-.686.854-.686.854-1.686 1.186v.666a94 94 0 0 1-1.666 1.666l-.5.73c-.63.762-1.238.97-2.166 1.27v1.334h-.666v.666h-.666v1l-1 .334-.666.666-.792.772c-1.2 1.206-1.2 1.206-2.208 2.562.046 1.08.046 1.08.334 2l-1.334.334-1-1.334.464-.514.62-.694.61-.68c.672-.784.672-.784 1.26-1.744.802-1.162 1.698-2.082 2.714-3.056a38 38 0 0 0 3.334-3.646 150 150 0 0 1 1.666-1.666l1.09-1.16 1.182-1.236.584-.636c1.418-1.464 2.464-1.976 4.478-2.302" fill="#4FA2BC"/><path d="M114.666 216.334h2l.104.604c.27.86.51 1.19 1.228 1.73.868.24.868.24 1.666.334l.126 1.146.21 1.186.666.334v.666h1.666l.044.606c.24.818.24.818 1.162 1.244l1.086.44 1.08.456.962.254 1-.666.334.666q3.23.012 6.46.018l2.196.006 3.16.008.99.004h.93l.814.002c.806-.02.806-.02 1.674-.23.776-.142.776-.142 1.442.192q.852.112 1.708.188l.92.084.706.06V226q-4.486.046-8.972.068-2.084.01-4.166.032-2.014.02-4.026.026-.764.004-1.53.014c-3.428.046-6.37-.092-8.982-2.55l-.658-.61-.666-.646-.708-.676a178 178 0 0 1-2.126-2.094l-.734-.722-.692-.69-.626-.622c-.448-.53-.448-.53-.448-1.196" fill="#8052DB"/><path d="m279.334 300.666 1 .334c-2.026 2.216-3.636 3.542-6.666 4-1.114.046-2.226.042-3.34.038h-1.016q-1.66 0-3.316-.006l-2.302-.002q-3.028-.002-6.054-.008l-6.18-.006-12.124-.016v-.334c15.888-.364 15.888-.364 20.48-.334a290 290 0 0 0 9.036-.106l1.494-.034a270 270 0 0 0 2.08-.054l1.214-.032c.976-.1 1.554-.232 2.362-.772l.334-.666-1-.334c1.584-.666 1.584-.666 2.334-.666l.334-.666 1.334.334z" fill="#756FC1"/><path d="M228.334 174H270v.334h-3.666l-.334 1-.812-.334c-1.438-.404-2.708-.384-4.188-.334h-1l-.876.012-.978.01-.98.012c-.832-.034-.832-.034-1.5-.366l.334 1h-1l-1 .334c-.728-.312-.728-.312-1.334-.666l.334-.334h-13.334l-.334 1h-1l.334-1.334a126 126 0 0 0-1.916.104l-1.078.058c-1.084.184-1.488.516-2.338 1.17-1.166-.27-1.166-.27-2.334-.666h-1.334v-.666z" fill="#43CBB7"/><path d="M172 174h56.334v.334q-3.49.086-6.98.166l-1.048.024c-5.02.114-10.034.176-15.054.13l-1.254-.008-1.08-.012a8.2 8.2 0 0 0-2.25.366v-.666l-.712.34c-1.084.37-1.756.336-2.888.208-2.594-.248-5.178-.29-7.78-.32l-1.506-.02q-1.958-.028-3.918-.05l-4.016-.054q-3.924-.054-7.846-.102z" fill="#55A7BF"/><path d="M169.334 145.666 170 146q.792.02 1.584 0c1.51-.016 3.002.024 4.508.108 6.182.34 12.38.338 18.57.402l4.862.054q4.738.054 9.476.102V147q-8.702.024-17.402.034-4.04.004-8.08.016-3.52.01-7.042.012l-3.73.008q-2.08.008-4.162.006l-1.252.008-1.144-.002-.994.002c-.888-.084-1.434-.296-2.194-.748 2.982-.45 2.982-.45 3.958-.126.95.168 1.502-.174 2.376-.542" fill="#5FABB5"/><path d="M111.334 144.666c0 1 0 1-.334 1.666l2.27.02 1.278.012c1.116.022 1.116.022 2.118-.366v.666l.666-.334q1.016-.04 2.034-.032l1.224.004 1.284.008 1.292.004q1.584.006 3.166.016v.334c-3.61.472-7.246.376-10.878.366l-2.092-.002-5.472-.008-5.598-.006q-5.48-.006-10.958-.016v-.334l.952-.02q1.756-.04 3.514-.086.758-.02 1.518-.034 1.092-.024 2.186-.054l1.328-.032c1.096-.1 1.84-.332 2.834-.772.702.08.702.08 1.396.292 1.662.436 3.228.44 4.938.376v-1z" fill="#6883CA"/><path d="m276.52 144.98 1.146.02c-1.03 1.406-2.088 1.576-3.71 1.874-1.65.218-3.284.198-4.946.172l-1.164-.01-3.776-.044-2.632-.026q-3.1-.03-6.198-.068-3.532-.04-7.062-.074-7.254-.072-14.512-.158v-.334l14.108-.148q3.276-.032 6.55-.068l6.322-.066 2.412-.026 3.378-.034 1.008-.014c1.56-.012 3.02.026 4.554.354v-.666l.644-.062.834-.084.832-.082c1.098-.168.892-.436 2.21-.46" fill="#35DAAE"/><path d="M303.666 253.334q2.864-.062 5.73-.092.974-.012 1.948-.034 1.404-.028 2.804-.036l.874-.026c1.41 0 2.346.066 3.468.97 1.046 1.1 1.482 1.606 1.634 3.136-.044 1.58-.534 2.474-1.458 3.75-.916.646-.916.646-1.666 1l.334-3H318c.45-.69.45-.69.666-1.666a14 14 0 0 0-.758-2.076c-.242-.594-.242-.594-.242-1.26l-.602.006q-1.344.01-2.69.016l-.946.008-.904.004-.836.006c-.688-.04-.688-.04-1.354-.374l-.334.666-.666-.334h-1.126c-.958 0-1.644-.046-2.542-.334l.334 1.334h-.666l-.334 1-.334-2.334-1.334.334z" fill="#47B7C1"/><path d="m127.198 252.294 1.202-.002 1.324.004h1.39l3.778.004 3.946.002 7.476.008 8.51.008 17.51.016v.334l-.712.004-17.132.108q-4.142.028-8.286.052l-7.218.046-3.824.024-3.596.024-1.958.01-1.166.01-1.02.006c-.744-.038-.744-.038-1.088.38-.89.046-1.774.014-2.666 0 1.344-.896 1.93-1.042 3.53-1.04" fill="#030217"/><path d="M120.666 256v2a38 38 0 0 1-1.498 1.25c-.54.414-.54.414-.982 1.062-.678.896-1.504 1.532-2.378 2.232l-.474.456v.666l-.812.438-.856.562-.334 1.666-3.334 1a126 126 0 0 1 4.396-4.916l.656-.698a206 206 0 0 1 5.616-5.718" fill="#874AE5"/><path d="M315.334 261.334 317 262a7.4 7.4 0 0 1-1.756 2.476l-.65.638-.678.656c-1.46 1.422-2.866 2.842-4.148 4.43-.612.652-1.252.896-2.102 1.132l-.666.334v-2.334l3.334-.334-.334-1.334.646-.126.688-.204c.392-.784.666-1.448.666-2.334l.572-.16a12 12 0 0 0 2.094-.84c.358-.814.358-.814.334-1.666z" fill="#4BA7BF"/><path d="m101.666 275.666.334.666c-.644 1.298-1.498 2.256-2.52 3.27l-.794.798c-.686.6-.686.6-1.352.6l-.25.542c-1.41 2.678-1.41 2.678-2.75 3.126-.582.574-.582.574-1.146 1.27-.64.758-1.258 1.462-1.98 2.146-.594.64-.752 1.062-.876 1.916l-.666-.666c.082-1.294.798-1.892 1.708-2.75a48 48 0 0 0 3.39-3.61c.974-1.098 2.034-2.11 3.08-3.14l.842-.834.846-.834a30 30 0 0 0 2.134-2.5" fill="#8348D7"/><path d="M94.334 195c1.638.454 2.128 1.254 3 2.666L98 198l.334-.666.02.73c.408 1.224 1.002 1.482 2.054 2.16.868.652 1.332 1.546 1.924 2.444.706.318.706.318 1.334.334l.666 2.334h.666a48 48 0 0 1 1.666 1.666l-.334 1-1.334-1.292-.75-.726c-.58-.65-.58-.65-.58-1.318l-.58-.238c-.924-.524-1.458-1.144-2.15-1.95a62 62 0 0 0-3.166-3.376 46 46 0 0 1-3.438-3.77z" fill="#7F52D6"/><path d="M287 291.666c.334 1 .334 1 .104 1.792-.84 1.68-2.106 2.908-3.438 4.208l-1.604 1.604-1.396 1.396-.334-.666c.458-.666.458-.666 1-1.334h.666l.334-1c.688-.396.688-.396 1.334-.666a76 76 0 0 0-1-3.334c1.108-.37 1.558-.256 2.666 0h.666l.334-.666-.334-1z" fill="#5F84D3"/><path d="m85.666 175.334-.334.666-2.666-.334-1 1.334.334.666h.666v1.666H82l.188 1.126c.146 1.208.146 1.208-.188 1.876-1.958-1.892-1.958-1.892-2.126-3.626.032-1.012.136-1.394.646-2.312 1.696-1.522 3.032-2.042 5.146-1.062M81 177.668l.334 1Z" fill="#8554EC"/><path d="M240 253h26.666v.334q-2.054.156-4.108.304l-1.394.104q-1.01.078-2.018.146l-1.222.09a24 24 0 0 1-3.474-.226c-1.352-.146-2.706-.164-4.066-.19l-.906-.02-2.832-.06-1.934-.044q-2.356-.054-4.712-.102z" fill="#6491BF"/><path d="M114.666 105v1.334H114V107h-.666v1l-1 .334-.666.666-.792.772c-1.2 1.206-1.2 1.206-2.208 2.562.046 1.08.046 1.08.334 2l-1.334.334-1-1.334.464-.514.62-.694.61-.68c.672-.786.672-.786 1.268-1.746.77-1.124 1.614-2.038 2.58-2.99l.494-.502c1.212-1.208 1.212-1.208 1.962-1.208" fill="#519EC6"/><path d="M188 224c.5.458.5.458 1 1v.666h25.334V226h-28l1-.334c.22-.66.22-.66.334-1.334z" fill="#6B82C5"/><path d="m279.334 300.666 1 .334a92 92 0 0 1-1.188 1.27l-.668.714c-1.85 1.554-3.596 1.828-5.924 1.778l-.774-.004a272 272 0 0 1-2.424-.03l-1.654-.014q-2.016-.016-4.034-.048v-.334l.988-.02q1.82-.04 3.638-.086.786-.02 1.574-.034 1.132-.024 2.264-.054l.708-.012c1.204-.036 2.156-.096 3.162-.792l.334-.666-1-.334c1.584-.666 1.584-.666 2.334-.666l.334-.666 1.334.334z" fill="#6C77D4"/><path d="m286.334 136.666-.428.416a52 52 0 0 0-3.114 3.312 16 16 0 0 1-2.792 2.604l-.666-.334c.084-.626.084-.626.334-1.334a30 30 0 0 1 1.334-.666l.334-1 .334.666.23-.728c.638-1.366 1.554-2.248 2.812-3.062.622-.206.622-.206 1.622.126" fill="#27E6A8"/><path d="M86.666 291.334h.666c-.404.954-.846 1.54-1.542 2.334-.93.962-.93.962-.792 2.334l-.592.106c-1.37.422-2.238 1.43-3.074 2.562a18 18 0 0 0-1 3.334h-.334c-.2-1.598-.234-2.904.73-4.25 1.274-1.52 2.716-2.904 4.134-4.286 1.03-.966 1.03-.966 1.802-2.13" fill="#7945C5"/><path d="M81.334 140c.598.898.786 1.324 1 2.334l.188.626c.188.912.166 1.78.146 2.708-.77-.042-.77-.042-1.666-.334-.816-1.238-1.13-2.188-1-3.666h.666z" fill="#716FE5"/><path d="M116.334 174q2.17-.024 4.342-.036.738-.004 1.476-.014 1.062-.012 2.124-.014l1.29-.01c1.024.07 1.578.198 2.434.742l-2 .666v-1l-.708.334c-1.044.364-1.862.334-2.958.334l-.666.666h-1.334l-.334-1-1 .334c-.912-.152-1.774-.418-2.666-.666z" fill="#6F73DD"/><path d="M302 117.334h1c.17.824.17.824 0 2-.794 1.048-1.746 1.918-2.708 2.812q-.764.726-1.524 1.456l-.738.706c-.966.958-1.83 1.976-2.696 3.024l-.334-1h.666l.334-1.334h.666l.666-1.334h.666v-.666h.666v-.666h.666v-1h1l.126-.626c.21-.706.21-.706.878-1.372.536-.944.536-.944.666-2" fill="#2DE39E"/><path d="M93 127c0 .966-.072 1.738-.334 2.666l-1 .666-.666-.334-.23.562c-.556.978-1.31 1.644-2.104 2.438l-.354.75c-.312.584-.312.584-.958.834-.688.084-.688.084-1.688.084a188 188 0 0 1 1.126-1.334l.632-.75L88 132h.666l.216-.546c.61-1.066 1.45-1.856 2.326-2.704l.52-.512z" fill="#6479C6"/><path d="M228.334 174H240l-.666 1.666h-1l.334-1.334a126 126 0 0 0-1.916.104l-1.078.058c-1.084.184-1.488.516-2.338 1.17-1.166-.27-1.166-.27-2.334-.666h-1.334v-.666z" fill="#47BEBD"/><path d="m146.542 225.312.714.1q.872.124 1.746.254V226h-20.334c1.5-.75 1.5-.75 2.698-.736l.802.004.856.014.886.006q1.4.01 2.798.028 1.402.014 2.806.024.872.006 1.746.018c1.89.016 3.384-.324 5.282-.042" fill="#8758D1"/><path d="M169.334 145.666 170 146q.792.02 1.584 0c3.254-.032 6.502.17 9.75.334v.334q-3.594.096-7.19.178-1.224.028-2.446.062-1.76.046-3.514.084l-1.106.032-1.03.02-.906.022c-.864-.072-1.398-.296-2.138-.734 2.982-.45 2.982-.45 3.958-.126.95.168 1.502-.174 2.376-.542" fill="#51AAC2"/><path d="M318 219.334h1v1h.666v2.334H319v1l-1 .334c-.824-2.626-.824-2.626-.666-4z" fill="#29DDB9"/><path d="M319.666 256H320c.15 2.144-.062 3.246-1.334 5-.916.646-.916.646-1.666 1l.334-3H318l.334-1.334h1z" fill="#43AEB5"/><path d="M314.334 105.666 315 106c-.5 1.18-1.184 1.91-2.104 2.792a38 38 0 0 0-3.23 3.542c-.334-1-.334-1-.02-1.73L310 110h1l.334-1.334h1l.062-.75c.352-1.19.936-1.558 1.938-2.25" fill="#28E79C"/><path d="M315 106.334c0 1 0 1-.334 2h-1l-.27.604a5.4 5.4 0 0 1-1.396 1.73h-.666l-.166.688c-.738 1.444-1.918 2.304-3.166 3.312l-.666-.334.648-.636a78 78 0 0 0 4.484-4.756c.802-.914 1.664-1.76 2.536-2.61" fill="#042315"/><path d="m95.666 125.334.334 2.334-3 .334c.438-1.146.438-1.146 1-2.334 1-.334 1-.334 1.666-.334m-3 2.666.666.334v2l-1.334.334c.292-2.292.292-2.292.666-2.666" fill="#5F87D6"/><path d="m114 262.666 1.334.334v.666l-.812.438-.856.562-.334 1.666-3.334 1z" fill="#864BE2"/><path d="m108.666 110.334.666.334-1.938 2.27-.552.65-.536.628-.492.576c-.48.542-.48.542-1 1.048-.556.54-.556.54-1.148 1.492l-1.334-.334.474-.468 2.13-2.114.746-.736.72-.716.662-.656c.59-.626 1.1-1.276 1.602-1.974" fill="#558AB5"/><path d="M179.334 224.334h2l-.334 1.334q.906-.058 1.812-.126l1.02-.07.834-.138.334-.666h1l.334 1.334q-1.364.014-2.728.02l-.776.008c-1.322.006-2.536-.034-3.828-.362z" fill="#6E77D5"/><path d="m161.334 145 1 .334-.666 1.334h-12.334v-.334l1.03-.014q1.886-.03 3.776-.072l1.636-.028q1.174-.018 2.348-.048l.74-.006c.76-.01.76-.01 1.804-.164z" fill="#569CCB"/><path d="M110.666 109c0 1 0 1-.45 1.538l-.572.566c-.916.992-.916.992-.938 2.376l.294.854-1.334.334-1-1.334c1.288-1.496 2.582-2.96 4-4.334" fill="#529ECD"/><path d="m303.542 275.626.792.04c-1.226 1.508-2.47 2.798-4 4l-.334-1.334.626-.25c.838-.492.992-.876 1.376-1.75.666-.666.666-.666 1.542-.708" fill="#5395BD"/><path d="M301.666 253.334c-.942.942-1.566.752-2.884.756l-.662.002q-.694.002-1.388-.004-1.062-.004-2.122.004l-1.348-.002-1.24-.002C291 254 291 254 290 253.334c3.904-.478 7.754-.232 11.666 0" fill="#4DABC5"/><path d="M305 274.666c0 1.23-.294 1.668-1 2.666a174 174 0 0 1-1.666 1.334 53 53 0 0 0-2 2.334l-1-.334.412-.408 1.858-1.842.65-.64.628-.626.576-.572c.566-.606 1.056-1.242 1.542-1.912" fill="#050E1E"/><path d="M290 132c-.172 1.368-.882 1.986-1.854 2.916l-.834.808-.646.61c-.334-.666-.334-.666-.02-1.708l.354-.96h1l.292-.646c.468-.856.736-1.02 1.708-1.02" fill="#2EE0A3"/><path d="M86.666 291.334h.666c-.404.954-.846 1.54-1.542 2.334-.93.962-.93.962-.792 2.334l-1.666.334c.164-1.46.596-2.074 1.666-3.062.966-.87.966-.87 1.666-1.938m-4.334 5.334.666.334-.666.334z" fill="#8A4BE0"/><path d="M94 284.666c-.614 1.44-1.61 2.286-2.742 3.334-.612.69-.794 1.1-.926 2l-.666-.666c.052-1.404 1.026-2.148 1.98-3.084l.904-.9c.784-.684.784-.684 1.45-.684" fill="#8C4BE4"/><path d="M318 224v1.334c-1.02.594-1.74.742-2.916.708l-.808-.018-.61-.024 1-.666.666-1V225l.584-.5c.75-.5.75-.5 2.084-.5" fill="#36D1B5"/><path d="M294.666 127.334c-.51 1.21-1.24 1.996-2.166 2.916l-.802.808c-.698.608-.698.608-1.364.608V131H291v-1h.666v-1h1l.334-1c1-.666 1-.666 1.666-.666" fill="#2EE5A2"/><path d="m106.334 271 .334.666a54 54 0 0 1-1.666 2h-.666l-.084.604c-.318.928-.774 1.206-1.584 1.73l-.666-.666 1-.334q.342-.662.666-1.334a30 30 0 0 1 1.376-1.416l.732-.714z" fill="#8349D9"/><path d="m85.75 173.958 1.276.018L88 174v.334h-3V175l-1.986.228c-.746.096-.746.096-1.682.438-.404.666-.404.666-.666 1.334l-.334-.666c1.83-1.932 2.738-2.424 5.416-2.376" fill="#7957CB"/><path d="M279.666 301.334c0 1.218-.296 1.686-1 2.666-.688.396-.688.396-1.334.666l-.666.666-.334-.334c-.89-.046-1.774-.014-2.666 0v-.334l.636-.136c2.3-.578 3.712-1.512 5.364-3.196" fill="#0C0927"/><path d="M235.666 253.334q.896-.026 1.792-.042l1.008-.024c.868.066.868.066 1.534.732-.126.708-.126.708-.334 1.334H238l-.104-.646-.23-.688-1-.334v.666l-1.334-.334z" fill="#6285DA"/><path d="m285 137.666.334.666a17.8 17.8 0 0 1-3.71 4.14A22 22 0 0 0 280 144l-.666-.334.816-.804 1.078-1.07.536-.528a44 44 0 0 0 3.234-3.598" fill="#032316"/><path d="m103.666 117 .146.604c.15.582.33 1.158.52 1.73h-.666l-.334.666h-1v-1h-.666c.718-2 .718-2 2-2" fill="#5597D1"/><path d="M125.666 254c-.998.86-1.714 1.392-3 1.666l-.334.666h-.666a30 30 0 0 0-1.334 1.334c.104-.876.104-.876.666-2 3.074-2.198 3.074-2.198 4.666-1.666" fill="#8D4EF1"/><path d="m83 137.334.334 1-.666 1c-.056.876-.056.876 0 1.666l-1.334-.666-1 1.334c.172-1.39.57-2.084 1.52-3.104l.646-.704z" fill="#6A6DC9"/><path d="m124.666 96 .666 1.334h-1.666l-.334 1c-.688.23-.688.23-1.334.334l-.334-1 1.334-.334v-1z" fill="#43B3C9"/><path d="m291 289.666.334 1-.896.708c-1.072.888-1.908 1.868-2.77 2.958l-1-.334z" fill="#05061B"/><path d="m111.334 211.334.666.334.126.792c.258 1.084.646 1.268 1.542 1.876v.666h.666l.334 1.334a58 58 0 0 1-4.334-4l.334-.666.666.334z" fill="#7E52D5"/><path d="M80.666 177.666h2v1.666H82l.334 1-1.334-.334v-.666h-.666z" fill="#8851F4"/><path d="M297 196.334c1.3.528 2.112 1.378 3.084 2.376l.9.92.682.704-.334 1-2-2.334-.666.334-.458-.978c-.428-1.044-.428-1.044-1.208-1.354z" fill="#3CD6AF"/><path d="M114.666 216.334h2c.258.994.47 1.992.666 3a122 122 0 0 1-1.146-.938l-.644-.528c-.542-.534-.542-.534-.876-1.534" fill="#764ACC"/><path d="M318 96.334c.652.216.652.216 1.334.666.204.868.204.868.25 1.876l.058 1.014.024.776-1-.334c-.23-.688-.23-.688-.334-1.334h.666a19 19 0 0 0-1.334-2.334z" fill="#1EF49C"/><path d="M80 177.334h.334v2H81c.87.626.998.992 1.23 2.062l.104.938c-1.384-.46-1.66-1.056-2.334-2.334-.108-.922-.064-1.734 0-2.666" fill="#7D50D1"/><path d="M106.666 208H108c.666.916.666.916 1.334 2 .432.456.872.906 1.334 1.334-1.166 0-1.338-.174-2.188-.916l-.606-.516c-.568-.596-.88-1.15-1.206-1.902" fill="#7D50D2"/><path d="m314.334 265 .334.666c-.446 1.34-1.174 1.568-2.334 2.334-.61.702-.61.702-1 1.334 0-1.334 0-1.334.656-2.12l.844-.796.844-.808z" fill="#0A1D27"/><path d="M287 253.334h2.666L289 256h-1l.334-2.334z" fill="#4AA9CB"/><path d="M275 174.334c1.732.454 2.712 1.138 4 2.334v.334h-1.666l-.334-1-1.666-.334z" fill="#36CCA6"/><path d="M307 269.334h2l.334 1.334-.792.312c-.85.33-.85.33-1.542.688z" fill="#49A9CB"/><path d="m306.666 115-.978 1.166-.55.656-.472.512h-.334V115c1.004-.312 1.288-.348 2.334 0" fill="#25F19F"/><path d="m311.334 110 .334.666c-.994 1.67-2.146 2.796-3.666 4l-.666-.334.706-.694.92-.91.914-.902c.826-.812.826-.812 1.46-1.826" fill="#011B0E"/><path d="M145.224 225.048q.682.102 1.36.222l.704.11q.858.136 1.712.286V226h-6.334c1.334-1 1.334-1 2.558-.952" fill="#815DD7"/><path d="m275.334 145 1 .666c-1.02.594-1.74.742-2.916.708l-.808-.018-.61-.022v-.666l.644-.062.834-.084.832-.082c.684-.034.684-.034 1.022-.438" fill="#23E9AC"/><path d="m283 297 1 .334-3.334 3.334-.334-.666c.458-.666.458-.666 1-1.334h.666l.334-1z" fill="#5F7BBA"/><path d="M284 182.334a66 66 0 0 1 1.166.916l.656.516c.512.568.512.568.512 1.9L287 186l-1 .666c-.666-1-.666-1-.666-2.334a30 30 0 0 0-1.334-1.334z" fill="#35DBB2"/><path d="M112 107h1c-.384.822-.682 1.35-1.334 2a42 42 0 0 1-2 .666l.98-1.146.55-.644A16 16 0 0 1 112 107" fill="#5093B9"/><path d="M115.334 217.666c2.494 2.05 2.494 2.05 3.334 3.334h-1v-.666l-1-.334v-.666l-1.334-.666z" fill="#04021D"/><path d="m254.542 174.292 1.124.042.334 1h-1l-1 .334c-.728-.312-.728-.312-1.334-.666.666-.666.666-.666 1.876-.708" fill="#2ED7BB"/><path d="M310.666 210.666c1.07.46 1.684.974 2.416 1.876l.526.638.392.486-1.334-.334v-.666h-1l-.334-1.334h-.666z" fill="#3AD8B2"/><path d="m93 192.334 1 .334v1.334l1.666.334-.334 1c-.812-.23-.812-.23-1.666-.666-.23-.854-.23-.854-.334-1.666l-.666-.334z" fill="#8654EB"/><path d="m84.334 293.334.666.334-3 3-.334-.666.666-1h.666l.334-1z" fill="#070222"/><path d="M288.334 288.334 290 289v.666l.666.334-.666.666c-.708-.126-.708-.126-1.334-.334z" fill="#5B8DD7"/><path d="M319.666 220H320c.256 2.556.256 2.556-.37 3.644-.462.542-.462.542-1.296 1.356l-.334-1 1-.334v-1h.666z" fill="#3ABF9D"/><path d="M93 127c0 .966-.072 1.738-.334 2.666l-1 .666-.666-.666c.578-1.02 1.128-1.878 2-2.666" fill="#6282C6"/><path d="m292 287.334.666.334-.334 1h-.666l-.666 1.334-.666-1.334z" fill="#5680B4"/><path d="M301.666 200.666a90 90 0 0 1 1.166.938l.656.528c.512.534.512.534.512 1.534-.646-.25-.646-.25-1.334-.666-.25-.708-.25-.708-.334-1.334h-.666z" fill="#32CAA2"/><path d="M100.666 201.666c1.046.112 1.35.35 2.104 1.126l.564.874-.334 1-.604-.77c-.68-.866-.68-.866-1.312-1.48l-.418-.416z" fill="#794CC8"/><path d="m290.666 189.334 1.146.958.644.538c.544.504.544.504.878 1.17h-1v-.666h-1.666z" fill="#38D9B1"/><path d="M231.666 174.334h3l-1.334 1.334-1.666-.666z" fill="#3CC4C1"/><path d="M282.334 138.666c.688.146.688.146 1.334.334-.464 1.122-.992 1.662-2 2.334.292-2.292.292-2.292.666-2.666" fill="#2CD7A2"/><path d="M318 101h1c-.104.792-.104.792-.334 1.666l-1 .666c-.208-.604-.208-.604-.334-1.334z" fill="#1FF59D"/><path d="M81 302.666c1 .334 1 .334 1.334 1 .706.23.706.23 1.52.376l.834.17.646.122v.334c-2.714.208-2.714.208-3.854-.626-.48-.708-.48-.708-.48-1.376" fill="#894CDD"/><path d="M299.666 277.334c.354.604.354.604.666 1.334l-.334 1-1 .334-.334-1h.666l-.666-1.334z" fill="#4E9ED1"/><path d="M179.334 224.334h2L181 226l-2-.334z" fill="#6E72E4"/><path d="M88.334 189.334c1.402.5 1.912 1.428 2.666 2.666l-1.666-.666v-.666l-1-.334z" fill="#10072C"/><path d="m91 129 .334.666c-.376.854-.376.854-1 1.666-.896.27-.896.27-1.666.334l.98-1.146.55-.644A16 16 0 0 1 91 129" fill="#5878B5"/><path d="m307 114.666.334.666c-1.606 2.098-1.606 2.098-3 2.334l.958-1.126.538-.632a26 26 0 0 1 1.17-1.242" fill="#053420"/><path d="M317.334 104c.334.666.334.666.126 1.312-.576.864-1.216 1.208-2.126 1.688.158-1.416.988-2.066 2-3" fill="#010F06"/><path d="m308 270.666 1 .334-2.666 2.666L306 273z" fill="#569BB7"/><path d="M98.666 199.334c1.122.48 1.836 1.11 2.666 2l-1 .334a48 48 0 0 1-1.666-1.666z" fill="#8256DD"/><path d="m91 192 1.146.958.644.538c.544.504.544.504.876 1.17-1.036-.112-1.534-.196-2.27-.958C91 193 91 193 91 192" fill="#0A0324"/><path d="m297.334 124.666.334.666c-.312.708-.312.708-.666 1.334h-.666v.666l-1.666.666.414-.476.544-.63.538-.62c.558-.654.558-.654 1.17-1.608" fill="#031F12"/><path d="m300.334 121.666.334.666c-.886 1.246-1.528 1.884-3 2.334l.958-1.126.538-.632a26 26 0 0 1 1.17-1.242" fill="#043321"/><path d="m80.666 298.334.666.334-1 3.334h-.334a98 98 0 0 1-.042-1.458l-.024-.82c.068-.724.068-.724.734-1.39" fill="#844AD6"/><path d="m286.334 294.334.334 1c-.406.608-.406.608-.978 1.23l-.572.628-.452.474-.666-1 .792-.604c.924-.7.924-.7 1.542-1.73" fill="#0C1223"/><path d="M302 117.334h1v2l-1.334.334-.334-.666.666-.334z" fill="#20EF9E"/><path d="M109.666 267.334c.402 1.208.18 1.546-.334 2.666l-.334-.666-1-.334z" fill="#7643C9"/><path d="m116.334 260.334.334.666c-.478.876-.478.876-1 1.666l-1.334-.334z" fill="#7243BB"/><path d="m121.334 223.666 2.334 1.334-.334.666-1.666-.334z" fill="#090522"/><path d="M80 141.666c.9.958 1.316 1.436 1.416 2.77l-.082.898c-.678-.472-.968-.85-1.14-1.66a52 52 0 0 1-.192-2.006" fill="#726CCD"/><path d="m304.666 272 .334.666 1.334-.666-.334 1.666c-1.626-.584-1.626-.584-2-1.334z" fill="#4DA4CF"/><path d="m317.334 259 1 .666c-.104.792-.104.792-.334 1.666l-1 .666z" fill="#46B4C5"/><path d="m288.666 187 2.334 2c-.666.334-.666.334-1.354.126-.646-.46-.646-.46-.896-1.334z" fill="#36C7A0"/><path d="m278.334 177 1.334.334-.334 1.334-1.334-.334z" fill="#2BE0B3"/><path d="M309 112.334c-.464 1.122-.992 1.662-2 2.334v-1.334c1.072-1 1.072-1 2-1" fill="#2EE39C"/><path d="m297 282 1 .334-.666 1h-.666l-.334 1-.666-1.334h1.334z" fill="#5386B1"/><path d="M120.666 256v2l-2 .334z" fill="#844FD6"/><path d="M188 224c.5.458.5.458 1 1v.666h-1.666c.292-1.292.292-1.292.666-1.666" fill="#6A79E0"/><path d="m316 215.666 2 1.666-.666.334-.334.666c-1-1.542-1-1.542-1-2.666" fill="#36C6A0"/><path d="M312.666 212H314c.584.834.584.834 1 1.666h-1c-.728-.834-.728-.834-1.334-1.666" fill="#03231B"/><path d="m309.334 208.666 2 1.666c-1 .334-1 .334-2 0z" fill="#35C6A0"/><path d="M91.666 190h.666l.334 1.666L92 192v-.666l-1 .334z" fill="#8752F0"/><path d="m161.334 145 1 .334-.666 1.334h-1.666z" fill="#4BA7CC"/><path d="M227.334 145.334c.626.104.626.104 1.334.334l.666 1h-2z" fill="#2DD9B9"/><path d="M89.334 129H91l-1.666 2c-.416-.83-.26-1.136 0-2" fill="#030115"/><path d="m103.334 115 1 .334-2.334 2V116l1-.334z" fill="#010212"/><path d="m316.666 103.334 1 .334a36 36 0 0 1-1.334 1.666h-.666c.334-1 .334-1 1-2" fill="#27DC97"/><path d="m115.666 103 .666.334-1 1.666-1-.334z" fill="#4A90B0"/></svg>