<svg xmlns="http://www.w3.org/2000/svg" width="200" height="200" viewBox="0 0 200 200"><path d="M0 0h200v200H0z"/><path d="m64.77 126.478.489-.001h1.628l1.176-.002 2.897-.002 3.47-.002q4.193-.004 8.386-.004l3.966-.002 16.993-.005h.429q6.891-.001 13.782-.007a18152 18152 0 0 1 16.167-.007h.398l6.34-.004q3.184-.004 6.368-.002 1.725.002 3.451-.002 1.578-.003 3.157 0 .573.001 1.145-.002.775-.003 1.551.002l.453-.004c1.111.009 1.799.237 2.63 1.014.419.653.51 1.139.354 1.885-.323.832-.87 1.386-1.5 2l-1.396 1.385-.368.364a37 37 0 0 0-1.959 2.103c-.431.488-.894.942-1.36 1.397a32 32 0 0 0-1.935 2.066c-.515.574-1.067 1.111-1.619 1.649-.356.35-.688.692-.985 1.095l-.211.275h-.333l-.12.286c-.26.464-.58.773-.963 1.141-.421.406-.758.751-1.083 1.24h-.333l-.115.281c-.278.49-.649.833-1.052 1.219l-.75.75a122 122 0 0 1-1.167 1.156c-.377.387-.735.783-1.094 1.188a71 71 0 0 1-1.844 1.979l-.242.257c-.97.986-2.099 1.337-3.45 1.358q-.437.002-.874.001l-.489.001h-1.632l-1.178.002-2.904.002-3.478.002q-4.203.004-8.405.004l-3.975.002-17.029.005h-.43q-6.906.001-13.813.007a18231 18231 0 0 1-16.201.007h-.398l-6.354.004q-3.191.004-6.382.002-1.73-.001-3.46.002-1.582.003-3.164 0-.574-.001-1.148.002-.777.003-1.554-.002l-.455.004c-1.092-.009-1.624-.248-2.433-1.003-.419-.54-.499-1.008-.452-1.684.315-1.368 1.772-2.414 2.737-3.363.385-.38.75-.769 1.1-1.182.61-.72 1.284-1.372 1.954-2.034a27 27 0 0 0 1.702-1.836c.473-.539.994-1.032 1.504-1.535.638-.631 1.267-1.257 1.839-1.949l.418-.481h.333l.123-.289c.248-.445.54-.734.908-1.086.466-.455.914-.909 1.333-1.406.656-.766 1.375-1.468 2.096-2.173.497-.49.974-.987 1.43-1.517.701-.811 1.449-1.571 2.204-2.331l.416-.427c1.498-1.508 2.688-1.797 4.76-1.793" fill="#7C63EC"/><path d="m43.293 86.917.49-.003q.814-.002 1.628.003l1.178-.002q1.45-.003 2.9.002 1.737.004 3.474.001 3.205-.003 6.412.002 3.175.005 6.351.005h2.002q7.521 0 15.044.008a12499 12499 0 0 0 14.225.006h2.99a18984 18984 0 0 1 13.166.004l5.558.002q3.582 0 7.163.005 1.727.003 3.454.002 1.581-.001 3.161.003h1.145l1.554.002.451-.002c2.177.014 3.371.845 4.871 2.349l.335.342.338.338a40 40 0 0 1 1.871 2.033c.433.489.897.944 1.364 1.4a32 32 0 0 1 1.927 2.057c.45.5.928.97 1.406 1.443a32 32 0 0 1 1.927 2.057c.45.5.928.97 1.406 1.443.571.565 1.137 1.125 1.656 1.74.551.651 1.155 1.244 1.76 1.844a32 32 0 0 1 2.016 2.146c.359.399.737.773 1.119 1.149 2.399 2.359 2.399 2.359 2.49 3.464-.051.733-.348 1.145-.841 1.671-.522.432-.967.61-1.644.61l-.418.003-.458-.002-.489.002q-.819.002-1.637 0l-1.18.002q-1.286.002-2.573.002-1.912 0-3.826.003-3.615.004-7.23.004l-7.189.003h-.403q-5.617.003-11.234.003h-3.869q-6.71 0-13.42.007a13947 13947 0 0 1-16.679.008h-.402q-3.185 0-6.37.005-3.201.004-6.402.001-1.902-.002-3.804.003-1.42.003-2.839-.002-.575-.001-1.149.002-.78.003-1.561-.002l-.452.005c-1.289-.015-2.445-.4-3.399-1.297l-.329-.305-.328-.319-.335-.322a87 87 0 0 1-1.008-1.001l-.338-.336a43 43 0 0 1-2.152-2.341 120 120 0 0 0-.854-.958l-.407-.456c-.39-.404-.799-.737-1.238-1.086a16 16 0 0 1-.594-.667 15 15 0 0 0-.979-1.063c-.262-.27-.262-.27-.262-.604l-.29-.119c-.462-.262-.729-.572-1.075-.975a30 30 0 0 0-1.573-1.677 21 21 0 0 1-1.271-1.354c-.999-1.166-2.127-2.219-3.219-3.297-.445-.45-.875-.913-1.302-1.38l-.242-.264a93 93 0 0 1-1.624-1.832 15 15 0 0 0-.624-.654c-.478-.478-.611-.735-.667-1.417.022-.678.154-1.134.552-1.698.944-.671 1.652-.762 2.793-.75" fill="#5697D5"/><path d="m64.753 47.478.489-.001 1.632-.001 1.177-.002 2.903-.003 3.477-.003q4.201-.005 8.403-.007l3.974-.002 14.454-.007h.428l2.575-.001q6.905-.002 13.81-.011a13754 13754 0 0 1 16.198-.01h.398q3.176-.001 6.352-.007 3.191-.005 6.381-.003 1.73.002 3.458-.003 1.582-.004 3.163 0 .574.001 1.147-.002.777-.003 1.554.002l.454-.005c1.127.012 1.715.351 2.549 1.119.321.555.42.915.383 1.553-.425 1.575-2.28 2.944-3.411 4.05a33 33 0 0 0-1.922 2.049c-.431.489-.895.943-1.362 1.399-.568.561-1.131 1.118-1.646 1.729-.681.804-1.443 1.53-2.192 2.272a30 30 0 0 0-1.779 1.912c-.497.558-1.036 1.075-1.567 1.6-.45.447-.885.897-1.295 1.382-.65.765-1.371 1.458-2.084 2.164a25 25 0 0 0-1.468 1.555c-2.576 3.013-2.576 3.013-4.553 3.304-.529.024-1.057.023-1.586.022l-.489.001h-1.632l-1.177.002-2.903.002-3.477.002q-4.202.004-8.403.004l-3.974.002-17.456.005q-6.904.001-13.81.007a18221 18221 0 0 1-16.596.007l-6.352.004q-3.191.004-6.381.002-1.729-.001-3.458.002-1.582.003-3.163 0-.574-.001-1.147.002-.777.003-1.554-.002l-.454.004c-.843-.007-1.421-.1-2.153-.566-.534-.616-.723-1.309-.677-2.114.132-.753.424-1.051 1.01-1.552q.358-.387.708-.781l.389-.433a140 140 0 0 0 .822-.931l.404-.459.369-.423C44 66 44 66 44.333 66l.102-.267c.335-.576.796-.991 1.273-1.451a31 31 0 0 0 2.125-2.281q.633-.639 1.275-1.269c1.007-.994 1.007-.994 1.954-2.044.531-.623 1.106-1.196 1.688-1.771a32 32 0 0 0 1.925-2.055c.548-.609 1.136-1.179 1.722-1.752.52-.512.982-1.037 1.436-1.609a63 63 0 0 1 .833-.833q.273-.283.545-.568l.59-.609.292-.309c1.388-1.419 2.728-1.706 4.659-1.703" fill="#32CFBB"/><path d="m62.333 48 .333.667h-.833l-.167.5c-.35.124-.629.167-1 .167l-.323.406c-.343.427-.343.427-.843.593v.333a47 47 0 0 1-.833.833l-.25.365c-.315.381-.619.485-1.083.635v.667h-.333v.333h-.333v.5l-.5.167-.333.333-.396.386c-.6.603-.6.603-1.104 1.281.023.54.023.54.167 1-.302.104-.302.104-.667.167l-.5-.333c-.731.661-1.281 1.169-1.5 2.167l.333.167v.333h-.333l-.167.333-.448-.052c-.581.003-.581.003-1.021.438-.39.425-.39.425-.531.948-.344.115-.344.115-.667.167l.333.5-.563.198c-.469.2-.582.264-.854.719-.123.436-.123.436.083.917l-1.167.167c-.202.517-.202.517-.167 1.167-.302.104-.302.104-.667.167l-.5-.333-.115.281c-.278.489-.655.822-1.052 1.219-.216.361-.216.361-.333.667h-.333l.167.5H43.5l-.167.333-.5.167v.833c-.484.209-.799.333-1.333.333-.205.41-.179.713-.167 1.167H41l.073.292.094.372.094.354c.072.312.072.312.072.646l.833.167v.667l.493-.006c1.373-.01 2.743.004 4.116.055l.382.013q.957.034 1.914.074l.718.026.645.026c.555-.022.898-.13 1.398-.356.351.04.351.04.698.146.831.218 1.614.22 2.469.188v-.5l.833-.333c-.167.5-.167.5-.333.833l1.135.01.639.006c.558.011.558.011 1.059-.183v.333l.333-.167q.701-.018 1.403-.01l.429.002q.908.004 1.816.012c2.144.016 2.144.016 4.284-.092 1.345-.104 2.674-.058 4.021-.01 2.302.08 4.602.123 6.904.066l.74-.016q.511-.011 1.021-.027l.58-.017c.507-.081.664-.172.968-.575l.333.167.167.5.635-.083c1.043-.137 1.043-.137 1.5.021.517.089.883-.085 1.364-.271l.167.167q.39.01.781 0c.758-.008 1.508.012 2.265.054 3.091.171 6.189.169 9.284.201l2.431.027q2.369.027 4.738.051v.167a31080 31080 0 0 1-26.79.028h-.569q-4.56.004-9.121.011-4.678.007-9.355.008-2.887.001-5.775.007-1.979.004-3.958.003-1.143 0-2.285.003-1.045.003-2.091.001-.379-.001-.757.002-.514.002-1.028-.001l-.577.001c-.709-.084-1.302-.302-1.777-.85-.433-.873-.559-1.603-.25-2.545.333-.406.333-.406.833-.833q.358-.387.708-.781l.389-.433a140 140 0 0 0 .822-.931l.404-.459.369-.423C44 66 44 66 44.333 66l.102-.267c.335-.576.796-.991 1.273-1.451a31 31 0 0 0 2.125-2.281q.633-.639 1.275-1.269c1.007-.994 1.007-.994 1.954-2.044.531-.623 1.106-1.196 1.688-1.771a32 32 0 0 0 1.925-2.055c.548-.609 1.136-1.179 1.722-1.752.52-.512.982-1.037 1.436-1.609a75 75 0 0 1 .833-.833l.545-.58.591-.618.292-.318c.709-.732 1.232-.988 2.239-1.151" fill="#6E73D4"/><path d="M93 126.5a33438 33438 0 0 1 28.377-.028q4.73-.003 9.46-.011 4.852-.007 9.703-.008 2.995-.001 5.99-.007 2.052-.004 4.105-.003 1.185 0 2.37-.003 1.084-.003 2.169-.001.393.001.785-.002.534-.002 1.067.001l.599-.001c.862.099 1.394.424 2.021 1.01.419.653.51 1.138.354 1.885-.299.799-.721 1.299-1.5 1.667l.167-1.5H159c.225-.345.225-.345.333-.833a7 7 0 0 0-.379-1.038c-.121-.295-.121-.295-.121-.628l-.301.003q-.672.005-1.345.008l-.473.004-.452.002-.418.003c-.344-.02-.344-.02-.677-.187l-.167.333-.333-.167h-.563c-.479 0-.822-.023-1.271-.167l.167.667h-.333l-.167.5-.167-1.167-.302.094c-.364.074-.364.074-.864-.093l-.283.072c-.559.138-1.116.115-1.688.111l-.378-.001-1.192-.005-.81-.002-1.983-.008-.333 1h-.5l.167-1.167-.614-.01-.346-.006c-.376.006-.376.006-.749.099-.503.092-.97.105-1.482.105l-.615.002-.661-.001-.683.001-1.43-.001q-.912-.001-1.825.001h-1.41l-.998.001c-.971-.002-1.897-.026-2.853-.19q-.543.02-1.083.073c-.756.068-1.491.11-2.25.094h-7.167l-.167.667h-.833l-.052-.323-.116-.345-.5-.167v.333l-.469-.083c-.524-.096-.524-.096-1.031-.083l-.587-.042-.351-.025-.708-.055a14.4 14.4 0 0 0-2.217.033c-1.676.133-3.353.114-5.033.11l-.524-.001a223 223 0 0 1-8.256-.162c-1.121-.041-2.243-.074-3.365-.107l-1.777-.053-1.015-.031z" fill="#6488CC"/><path d="M139.833 150.667c0 .609-.148.843-.5 1.333-.344.198-.344.198-.667.333l-.333.333-.167-.167-.951.251c-.62.134-1.228.127-1.86.121h-.433q-.715 0-1.429-.005l-1.028-.001q-1.399-.002-2.797-.008l-2.985-.006q-2.507-.004-5.014-.012-3.255-.009-6.51-.014-6.378-.01-12.756-.025l-6.306-.014-11.232-.025-10.866-.024-.342-.001-3.405-.007L42 152.667v-.167l.606-.001a61936 61936 0 0 0 39.819-.043l.429-.001q6.882-.009 13.764-.014a18119 18119 0 0 0 16.539-.02q3.165-.004 6.329-.005 3.181-.001 6.363-.008 1.724-.004 3.447-.003 1.578.001 3.156-.005h1.142q.776.001 1.552-.004l.448.003c1.325-.013 2.697-.221 3.676-1.182l.33-.315z" fill="#0B0036"/><path d="m64.812 47.459.49-.001q.813 0 1.625.002l1.177-.001q1.447-.001 2.896.002 1.735.003 3.469.001l6.402.003a8315 8315 0 0 0 8.738.004q7.088.001 14.176.006a38350 38350 0 0 0 18.464.008l8.685.003h.403q13.332.005 26.663.014v.167a24349 24349 0 0 1-18.343.089 6935 6935 0 0 1-33.518.083h-1.175q-7.624 0-15.248-.009L84 47.825q-1.978-.001-3.956-.005l-2.403-.002-1.106-.002q-.749-.002-1.499-.001l-.439-.002c-.668.001-1.276.032-1.929.187a21 21 0 0 1-.976.016l-.583-.002-.626-.004-.981-.003-2.066-.009-1.7-.007-1.273-.006c-1.004-.003-1.97.025-2.962.181.823-.823 2.22-.714 3.312-.708" fill="#4ED7A7"/><path d="m157.667 130.667.833.333a3.7 3.7 0 0 1-.872 1.232l-.321.315-.339.329-.688.678-.312.306c-.406.414-.783.85-1.157 1.293-.535.598-1.114 1.154-1.684 1.718a28 28 0 0 0-1.645 1.779c-.515.574-1.067 1.111-1.619 1.649-.356.35-.688.692-.985 1.095l-.211.273h-.333l-.12.286c-.26.464-.58.773-.963 1.141-.421.406-.758.751-1.083 1.24h-.333l-.115.281c-.278.49-.649.833-1.052 1.219l-.75.75a122 122 0 0 1-1.167 1.156c-.538.552-1.044 1.13-1.553 1.709a6.4 6.4 0 0 1-1.031.884c.135-.406.135-.406.333-.833l.5-.167.167-.5c.344-.198.344-.198.667-.333a38 38 0 0 0-.5-1.667c.554-.185.779-.128 1.333 0H143l.167-.333-.167-.5 1.333-.167v-1.667l.667.333v.333h.333l-.167-.5c.067-.551.101-.768.5-1.167l.167-.5h.833v-1.167l.5.333.375-.385c.459-.446.886-.826 1.459-1.113l.333.167v-1h.333l-.333-.667.667-.167v.333c.325-.033.325-.033.667-.167l.146-.307c.227-.435.477-.619.875-.901l.366-.263.279-.194-.333-1 .5-.167v.333l.313-.156.687-.344v-1.167l1.667-.167-.167-.667.323-.063.344-.102c.196-.392.333-.724.333-1.167l.286-.08a6 6 0 0 0 1.047-.42c.179-.407.179-.407.167-.833z" fill="#588FCC"/><path d="m62.333 48 .333.667h-.833l-.167.5c-.35.124-.629.167-1 .167l-.323.406c-.343.427-.343.427-.843.593v.333a47 47 0 0 1-.833.833l-.25.365c-.315.381-.619.485-1.083.635v.667h-.333v.333h-.333v.5l-.5.167-.333.333-.396.386c-.6.603-.6.603-1.104 1.281.023.54.023.54.167 1-.302.104-.302.104-.667.167l-.5-.333c-.731.661-1.281 1.169-1.5 2.167l.333.167v.333h-.333l-.167.333-.448-.052c-.581.003-.581.003-1.021.438-.39.425-.39.425-.531.948-.344.115-.344.115-.667.167l.333.5-.563.198c-.469.2-.582.264-.854.719-.123.436-.123.436.083.917l-1.167.167c-.202.517-.202.517-.167 1.167-.302.104-.302.104-.667.167l-.5-.333-.115.281c-.278.489-.655.822-1.052 1.219l-.177.375c-.156.292-.156.292-.479.417-.343.038-.343.038-.843.038a94 94 0 0 1 .563-.667l.316-.375L44 66h.333l.102-.267c.335-.576.796-.991 1.273-1.451a31 31 0 0 0 2.125-2.281q.633-.639 1.275-1.269c1.007-.994 1.007-.994 1.954-2.044.531-.623 1.106-1.196 1.688-1.771a32 32 0 0 0 1.925-2.055c.548-.609 1.136-1.179 1.722-1.752.52-.512.982-1.037 1.436-1.609a75 75 0 0 1 .833-.833l.545-.58.591-.618.292-.318c.709-.732 1.232-.988 2.239-1.151" fill="#5887C1"/><path d="m61.833 112.667.417.082c.641.093 1.265.109 1.911.108l.398.001 1.323.002.958.002 2.633.005 2.838.006 4.918.009 7.111.013q5.768.012 11.537.022l11.208.021.349.001 3.47.007q14.548.029 29.096.054v.167l-78 .167z" fill="#020316"/><path d="m135.9 126.473.73-.002 1.955-.004 1.225-.002q1.92-.003 3.841-.004 2.209-.001 4.418-.008 1.715-.006 3.431-.006 1.022 0 2.043-.004.958-.004 1.917-.002l.702-.002q.48-.002.96.001l.542-.001c.838.103 1.373.44 1.982 1.01.419.653.51 1.138.354 1.885-.299.799-.721 1.299-1.5 1.667l.167-1.5H159c.225-.345.225-.345.333-.833a7 7 0 0 0-.379-1.038c-.121-.297-.121-.297-.121-.63l-.301.003q-.672.005-1.345.008l-.473.004-.452.002-.418.003c-.344-.02-.344-.02-.677-.187l-.167.333-.333-.167h-.563c-.479 0-.822-.023-1.271-.167l.167.667h-.333l-.167.5-.167-1.167-.302.094c-.364.074-.364.074-.864-.093l-.283.072c-.559.138-1.116.115-1.688.111l-.378-.001-1.192-.005-.81-.002-1.982-.008-.333 1h-.5l.167-1.167-.614-.01-.346-.006c-.376.006-.376.006-.749.099-.504.092-.972.105-1.485.105l-.617.002-.662-.001-.684.001-1.432-.001q-.915-.001-1.83.001h-1.412l-1.001.001-.618-.002h-.542a10 10 0 0 1-1.507-.188v-.167a74 74 0 0 1 5.233-.194" fill="#5CA1BE"/><path d="M57.333 108.167h1l.052.302c.135.43.255.595.614.865.434.12.434.12.833.167l.063.573.105.593.333.167v.333h.833l.022.303c.12.409.12.409.581.622l.543.22.54.228.481.127.5-.333.167.333q1.615.006 3.23.009l1.098.003 1.58.004.495.002h.465l.407.001c.403-.01.403-.01.837-.115.388-.071.388-.071.721.096q.475.019.949.013l.608-.003.328-.002q.88-.006 1.76-.007l.375-.001c1.389-.002 2.777.016 4.166.037l.38.006 2.285.035 1.979.03 3.836.059.167-.667h1l-.167.667q.453-.029.906-.063l.51-.035.418-.069.167-.333h.5v.5h.667l.167-.667h.5l.167.667h12.667v.167a11522 11522 0 0 1-18.859.037l-.401.001q-3.209.005-6.418.014-3.294.009-6.587.011-2.032.001-4.064.009a648 648 0 0 1-3.118.003l-1.278.004q-.873.004-1.746.001l-.509.006c-1.347-.011-2.524-.349-3.526-1.291l-.329-.306-.333-.323-.354-.338a89 89 0 0 1-1.063-1.047l-.367-.361-.346-.345-.313-.311c-.224-.265-.224-.265-.224-.598" fill="#776BCF"/><path d="M114.167 87q4.398-.012 8.797-.017 2.042-.002 4.085-.008 1.781-.005 3.561-.006.943-.001 1.885-.004.888-.003 1.776-.002.479 0 .958-.004c2.396.006 3.611.672 5.279 2.345l.336.342.337.338a40 40 0 0 1 1.871 2.033c.433.489.897.944 1.364 1.4a33 33 0 0 1 2.25 2.417l-.5.167v-.333h-.833l-.042-.479c-.065-.537-.065-.537-.458-.729l-.333-.125-.167-.333-.333-.167v-.333l-1.167-.333v-.5c-.31-.635-.545-.866-1.167-1.167-.188-.344-.188-.344-.333-.667l-.333-.167v-.333l-.833.167-.333-1.167h-.5l-.333-.167.167-.667-.5-.167-.333-.333c-.734-.389-1.355-.361-2.167-.333l.167-.333-3.167-.167-.167.5-.406-.167c-.719-.202-1.354-.192-2.094-.167h-.5l-.438.006-.489.005-.49.006c-.417-.018-.417-.018-.751-.184l.167.5h-.5l-.5.167c-.364-.156-.364-.156-.667-.333l.167-.167h-6.667l-.167.5h-.5l.167-.667a63 63 0 0 0-.958.052l-.539.029c-.542.092-.744.258-1.169.585-.583-.135-.583-.135-1.167-.333h-.667v-.333z" fill="#33D4AB"/><path d="m80.667 72.5.5.167.167.5.635-.083c1.043-.137 1.043-.137 1.5.021.517.089.883-.085 1.364-.271l.167.167q.39.01.781 0c.758-.008 1.508.012 2.265.054 3.091.171 6.189.169 9.284.201l2.431.027q2.369.027 4.738.051v.167H61.333v-.167l.292-.013 1.365-.06.458-.02a85 85 0 0 0 2.196-.12c1.675-.119 3.323-.113 5.001-.052 2.296.08 4.591.122 6.888.066l.744-.016q.512-.011 1.025-.027l.582-.017.449-.075z" fill="#6096C0"/><path d="M146.667 96c.893.737 1.685 1.525 2.469 2.375a76 76 0 0 0 2.292 2.385c.447.441.875.886 1.281 1.364.563.66 1.175 1.265 1.792 1.875a32 32 0 0 1 2.016 2.146c.359.399.737.773 1.119 1.149 2.399 2.359 2.399 2.359 2.49 3.464-.051.733-.348 1.145-.841 1.671-.57.472-1.005.611-1.742.589l-.404-.009-.306-.009.5-.333.333-.5v.333l.302-.239c.365-.261.365-.261.865-.428l-.036-.335-.047-.446-.047-.439a13 13 0 0 1-.036-1.279h-.333v-.5l-1-.333.333-.667-.302.115L157 108c-.26-.239-.26-.239-.5-.5h-.5l.167-.5.333-.167-.167-.5h-.5l-.167-.667h-.333c-.392-.329-.5-.5-.667-1l-.333-.083-.333-.083-.167-.5-.333-.333-.333-.333h-.333v-.667h-.5l-.167-.667h-.333v-.333l-.5-.167-.073-.323-.094-.344-.292-.146c-.555-.278-.827-.701-1.208-1.188l-.333.167-.208-.469c-.281-.511-.472-.73-.958-1.031l.167-.333-.5-.167-.333-.5c-.431-.042-.431-.042-.833 0l.167-.5c-.065-.357-.065-.357-.167-.667" fill="#33D7AF"/><path d="m43.778 86.919.638-.002q.861-.002 1.723.004.903.003 1.806.002 1.515.001 3.031.008 1.752.007 3.503.007 1.867 0 3.733.005l1.075.001q1 .002 2.001.007h.601l.55.004.478.002c.435.045.71.155 1.084.376l-1 .333v-.5l-.354.167c-.522.182-.931.167-1.479.167l-.333.333h-.667l-.167-.5-.5.167-.833-.167a35 35 0 0 0-1.208 0c-1.436.015-2.86-.068-4.292-.167l-.167.333q-.417.01-.833 0l-.167-.167a11 11 0 0 0-.712-.016l-.459.002-.501.004-.514.002q-1.093.004-2.185.012l-1.593.007-.492.004a24 24 0 0 1-3.045-.181v.5l.333.167c-.58.193-.91.118-1.5 0l-.5.667.167.333h.333v.833H41l.094.563c.073.604.073.604-.094.938-.982-.95-.982-.95-1.052-1.802.022-.678.154-1.133.552-1.698 1.047-.792 1.996-.76 3.277-.748M40.5 88.833l.167.5Z" fill="#7869D3"/><path d="M40.5 151.333c.5.167.5.167.667.5.484.161.787.187 1.29.187l.496.001.546-.001.579.001 1.593-.001h1.717l2.975-.001 4.302-.002 6.979-.003 6.78-.003h.422l2.096-.001q8.697-.003 17.393-.008v.333a13144 13144 0 0 1-20.115.037l-.427.001q-3.425.005-6.848.014-3.512.009-7.024.011-2.168.001-4.336.009-1.486.005-2.971.004a246 246 0 0 0-1.716.004q-.929.004-1.858.001l-.55.006c-1.212-.01-1.212-.01-1.771-.403-.219-.352-.219-.352-.219-.686" fill="#904BEA"/><path d="M64.04 126.61h.567q.926.001 1.85.008l1.285.002q1.517.003 3.033.011 1.727.008 3.454.011 3.552.008 7.104.025v.167l-.287.001q-3.453.009-6.906.03-1.67.01-3.34.014a577 577 0 0 0-3.222.016q-.615.004-1.23.004-.86.001-1.721.01l-.515-.002c-.928.014-1.431.067-2.111.76a12 12 0 0 1-.667.167l-.167.333h-.333l-.208.364c-.351.564-.779.885-1.292 1.302l-.24.323c-.339.448-.752.766-1.189 1.116l-.238.228v.333l-.406.219-.428.281-.167.833-1.667.5c1.56-1.842 3.235-3.582 4.927-5.302l.33-.341.316-.318.274-.279c1.017-.827 1.936-.829 3.192-.816" fill="#8652E0"/><path d="m157.667 130.667.833.333a3.7 3.7 0 0 1-.872 1.232l-.321.315-.339.329-.688.678-.312.306c-.406.414-.783.85-1.157 1.293-.535.598-1.114 1.154-1.685 1.718a28 28 0 0 0-1.632 1.765c-.791.881-1.652 1.7-2.494 2.531l-.5-.167v.5h-.667c.042-.313.042-.313.167-.667.323-.198.323-.198.667-.333l.333-.167.333.167v-1h.333l-.333-.667.667-.167v.333c.325-.033.325-.033.667-.167l.146-.307c.227-.435.477-.619.875-.901l.366-.263.279-.194-.333-1 .5-.167v.333l.313-.156.687-.344v-1.167l1.667-.167-.167-.667.323-.063.344-.102c.196-.392.333-.724.333-1.167l.286-.08a6 6 0 0 0 1.047-.42c.179-.407.179-.407.167-.833z" fill="#569CC9"/><path d="M41.333 91.333h.333v.333l.396-.031.438.032c.333.5.333.5.333 1h.833l.146.49c.128.528.128.528.521.677l.667.5.333.167c.188.344.188.344.333.667l.5-.167.167 1.167.667.167v.667l.833.167.042.271c.17.54.458.941.792 1.396l.333.167.167-.333.01.365c.204.612.501.741 1.027 1.08.434.326.666.773.962 1.222.353.159.353.159.667.167l.333 1.167h.333a24 24 0 0 1 .833.833l-.167.5-.667-.646-.375-.363c-.29-.328-.29-.328-.29-.662l-.29-.119c-.462-.262-.729-.572-1.075-.975a30 30 0 0 0-1.573-1.677 21 21 0 0 1-1.271-1.354c-.999-1.165-2.126-2.218-3.217-3.295-.452-.458-.89-.927-1.324-1.402l-.232-.252c-1.518-1.657-1.518-1.657-1.518-1.926" fill="#8151DB"/><path d="M65.858 47.462h.818q1.106 0 2.212.004l2.316.003q2.19.002 4.381.007 2.494.005 4.989.007 5.13.005 10.259.017v.167l-4.27.065-1.985.03-2.307.035-.386.006a251 251 0 0 1-4.341.03l-.397-.001q-.937-.002-1.875-.009l-.67-.003-.587-.004c-.474.016-.887.09-1.35.184a21 21 0 0 1-.976.016l-.583-.002-.626-.004-.981-.003-2.066-.009-1.7-.007-1.273-.006c-1.004-.003-1.97.025-2.962.181 1.038-1.038 2.995-.711 4.358-.705" fill="#54BAB5"/><path d="M139.833 150.667c0 .609-.148.843-.5 1.333-.344.198-.344.198-.667.333l-.333.333-.167-.167-.566.154c-.85.224-1.665.224-2.54.217h-.523q-.85-.001-1.699-.005l-1.182-.001-3.104-.008-3.171-.007q-3.108-.005-6.215-.016v-.333l.659-.003q3.082-.014 6.165-.036 1.585-.011 3.169-.018 1.53-.007 3.06-.019l1.165-.006q.819-.003 1.637-.012l.482.001c1.357-.019 2.759-.2 3.766-1.188l.33-.314z" fill="#02011C"/><path d="M93 126.5h22.333l-.167.333c-2.436.138-4.862.194-7.302.188l-.515-.001a220 220 0 0 1-8.192-.162c-1.121-.041-2.243-.074-3.365-.107l-1.777-.053-1.015-.031z" fill="#7275C9"/><path d="m62.333 48 .333.667h-.833l-.167.5c-.35.124-.629.167-1 .167l-.323.406c-.343.427-.343.427-.843.593v.333a47 47 0 0 1-.833.833l-.25.365c-.315.381-.619.485-1.083.635v.667h-.333v.333h-.333v.5l-.5.167-.333.333-.396.386c-.6.603-.6.603-1.104 1.281.023.54.023.54.167 1l-.667.167-.5-.667.232-.257.31-.347.305-.34c.336-.392.336-.392.63-.872.401-.581.849-1.041 1.357-1.528a19 19 0 0 0 1.667-1.823 75 75 0 0 1 .833-.833l.545-.58.591-.618.292-.318c.709-.732 1.232-.988 2.239-1.151" fill="#4FA2BC"/><path d="M57.333 108.167h1l.052.302c.135.43.255.595.614.865.434.12.434.12.833.167l.063.573.105.593.333.167v.333h.833l.022.303c.12.409.12.409.581.622l.543.22.54.228.481.127.5-.333.167.333q1.615.006 3.23.009l1.098.003 1.58.004.495.002h.465l.407.001c.403-.01.403-.01.837-.115.388-.071.388-.071.721.096q.426.056.854.094l.46.042.353.03V113q-2.243.023-4.486.034-1.042.005-2.083.016-1.007.01-2.013.013-.382.002-.765.007c-1.714.023-3.185-.046-4.491-1.275l-.329-.305-.333-.323-.354-.338a89 89 0 0 1-1.063-1.047l-.367-.361-.346-.345-.313-.311c-.224-.265-.224-.265-.224-.598" fill="#8052DB"/><path d="m139.667 150.333.5.167c-1.013 1.108-1.818 1.771-3.333 2-.557.023-1.113.021-1.67.019h-.508q-.83 0-1.658-.003l-1.151-.001q-1.514-.001-3.027-.004l-3.09-.003-6.062-.008v-.167c7.944-.182 7.944-.182 10.24-.167a145 145 0 0 0 4.518-.053l.747-.017a135 135 0 0 0 1.04-.027l.607-.016c.488-.05.777-.116 1.181-.386l.167-.333-.5-.167c.792-.333.792-.333 1.167-.333l.167-.333.667.167z" fill="#756FC1"/><path d="M114.167 87H135v.167h-1.833l-.167.5-.406-.167c-.719-.202-1.354-.192-2.094-.167h-.5l-.438.006-.489.005-.49.006c-.416-.017-.416-.017-.75-.183l.167.5h-.5l-.5.167c-.364-.156-.364-.156-.667-.333l.167-.167h-6.667l-.167.5h-.5l.167-.667a63 63 0 0 0-.958.052l-.539.029c-.542.092-.744.258-1.169.585-.583-.135-.583-.135-1.167-.333h-.667v-.333z" fill="#43CBB7"/><path d="M86 87h28.167v.167q-1.745.043-3.49.083l-.524.012c-2.51.057-5.017.088-7.527.065l-.627-.004-.54-.006a4.1 4.1 0 0 0-1.125.183v-.333l-.356.17c-.542.185-.878.168-1.444.104-1.297-.124-2.589-.145-3.89-.16l-.753-.01q-.979-.014-1.959-.025l-2.008-.027q-1.962-.027-3.923-.051z" fill="#55A7BF"/><path d="M84.667 72.833 85 73q.396.01.792 0c.755-.008 1.501.012 2.254.054 3.091.17 6.19.169 9.285.201l2.431.027q2.369.027 4.738.051v.167q-4.351.012-8.701.017-2.02.002-4.04.008-1.76.005-3.521.006l-1.865.004q-1.04.004-2.081.003l-.626.004-.572-.001-.497.001c-.444-.042-.717-.148-1.097-.374 1.491-.225 1.491-.225 1.979-.063.475.084.751-.087 1.188-.271" fill="#5FABB5"/><path d="M55.667 72.333c0 .5 0 .5-.167.833l1.135.01.639.006c.558.011.558.011 1.059-.183v.333l.333-.167q.508-.02 1.017-.016l.612.002.642.004.646.002q.792.003 1.583.008v.167c-1.805.236-3.623.188-5.439.183l-1.046-.001-2.736-.004-2.799-.003q-2.74-.003-5.479-.008v-.167l.476-.01q.878-.02 1.757-.043.379-.01.759-.017.546-.012 1.093-.027l.664-.016c.548-.05.92-.166 1.417-.386.351.04.351.04.698.146.831.218 1.614.22 2.469.188v-.5z" fill="#6883CA"/><path d="m138.26 72.49.573.01c-.515.703-1.044.788-1.855.937-.825.109-1.642.099-2.473.086l-.582-.005-1.888-.022-1.316-.013q-1.55-.015-3.099-.034-1.766-.02-3.531-.037-3.627-.036-7.256-.079v-.167l7.054-.074q1.638-.016 3.275-.034l3.161-.033 1.206-.013 1.689-.017.504-.007c.78-.006 1.51.013 2.277.177v-.333l.322-.031.417-.042.416-.041c.549-.084.446-.218 1.105-.23" fill="#35DAAE"/><path d="M151.833 126.667q1.432-.031 2.865-.046.487-.006.974-.017.702-.014 1.402-.018l.437-.013c.705 0 1.173.033 1.734.485.523.55.741.803.817 1.568-.022.79-.267 1.237-.729 1.875-.458.323-.458.323-.833.5l.167-1.5H159c.225-.345.225-.345.333-.833a7 7 0 0 0-.379-1.038c-.121-.297-.121-.297-.121-.63l-.301.003q-.672.005-1.345.008l-.473.004-.452.002-.418.003c-.344-.02-.344-.02-.677-.187l-.167.333-.333-.167h-.563c-.479 0-.822-.023-1.271-.167l.167.667h-.333l-.167.5-.167-1.167-.667.167z" fill="#47B7C1"/><path d="m63.599 126.147.601-.001.662.002h.695l1.889.002 1.973.001 3.738.004 4.255.004 8.755.008v.167l-.356.002-8.566.054q-2.071.014-4.143.026l-3.609.023-1.912.012-1.798.012-.979.005-.583.005-.51.003c-.372-.019-.372-.019-.544.19-.445.023-.887.007-1.333 0 .672-.448.965-.521 1.765-.52" fill="#030217"/><path d="M60.333 128v1a19 19 0 0 1-.749.625c-.27.207-.27.207-.491.531-.339.448-.752.766-1.189 1.116l-.237.228v.333l-.406.219-.428.281-.167.833-1.667.5a63 63 0 0 1 2.198-2.458l.328-.349A103 103 0 0 1 60.333 128" fill="#874AE5"/><path d="m157.667 130.667.833.333a3.7 3.7 0 0 1-.878 1.238l-.325.319-.339.328c-.73.711-1.433 1.421-2.074 2.215-.306.326-.626.448-1.051.566l-.333.167v-1.167l1.667-.167-.167-.667.323-.063.344-.102c.196-.392.333-.724.333-1.167l.286-.08a6 6 0 0 0 1.047-.42c.179-.407.179-.407.167-.833z" fill="#4BA7BF"/><path d="m50.833 137.833.167.333c-.322.649-.749 1.128-1.26 1.635l-.397.399c-.343.3-.343.3-.676.3l-.125.271c-.705 1.339-.705 1.339-1.375 1.563-.291.287-.291.287-.573.635-.32.379-.629.731-.99 1.073-.297.32-.376.531-.438.958l-.333-.333c.041-.647.399-.946.854-1.375a24 24 0 0 0 1.695-1.805c.487-.549 1.017-1.055 1.54-1.57l.421-.417.423-.417a15 15 0 0 0 1.067-1.25" fill="#8348D7"/><path d="M47.167 97.5c.819.227 1.064.627 1.5 1.333L49 99l.167-.333.01.365c.204.612.501.741 1.027 1.08.434.326.666.773.962 1.222.353.159.353.159.667.167l.333 1.167h.333a24 24 0 0 1 .833.833l-.167.5-.667-.646-.375-.363c-.29-.325-.29-.325-.29-.659l-.29-.119c-.462-.262-.729-.572-1.075-.975a31 31 0 0 0-1.583-1.688 23 23 0 0 1-1.719-1.885z" fill="#7F52D6"/><path d="M143.5 145.833c.167.5.167.5.052.896-.42.84-1.053 1.454-1.719 2.104l-.802.802-.698.698-.167-.333c.229-.333.229-.333.5-.667h.333l.167-.5c.344-.198.344-.198.667-.333a38 38 0 0 0-.5-1.667c.554-.185.779-.128 1.333 0h.333l.167-.333-.167-.5z" fill="#5F84D3"/><path d="m42.833 87.667-.167.333-1.333-.167-.5.667.167.333h.333v.833H41l.094.563c.073.604.073.604-.094.938-.979-.946-.979-.946-1.063-1.813.016-.506.068-.697.323-1.156.848-.761 1.516-1.021 2.573-.531M40.5 88.834l.167.5Z" fill="#8554EC"/><path d="M120 126.5h13.333v.167q-1.027.078-2.054.152l-.697.052q-.505.039-1.009.073l-.611.045a12 12 0 0 1-1.737-.113c-.676-.073-1.353-.082-2.033-.095l-.453-.01-1.416-.03-.967-.022q-1.178-.027-2.356-.051z" fill="#6491BF"/><path d="M57.333 52.5v.667H57v.333h-.333v.5l-.5.167-.333.333-.396.386c-.6.603-.6.603-1.104 1.281.023.54.023.54.167 1l-.667.167-.5-.667.232-.257.31-.347.305-.34c.336-.393.336-.393.634-.873.385-.562.807-1.019 1.29-1.495l.247-.251c.606-.604.606-.604.981-.604" fill="#519EC6"/><path d="M94 112c.25.229.25.229.5.5v.333h12.667V113h-14l.5-.167c.11-.33.11-.33.167-.667z" fill="#6B82C5"/><path d="m139.667 150.333.5.167a46 46 0 0 1-.594.635l-.334.357c-.925.777-1.798.914-2.962.889l-.387-.002a136 136 0 0 1-1.212-.015l-.827-.007q-1.008-.008-2.017-.024v-.167l.494-.01q.91-.02 1.819-.043.393-.01.787-.017.566-.012 1.132-.027l.354-.006c.602-.018 1.078-.048 1.581-.396l.167-.333-.5-.167c.792-.333.792-.333 1.167-.333l.167-.333.667.167z" fill="#6C77D4"/><path d="m143.167 68.333-.214.208a26 26 0 0 0-1.557 1.656A8 8 0 0 1 140 71.499l-.333-.167c.042-.313.042-.313.167-.667a15 15 0 0 1 .667-.333l.167-.5.167.333.115-.364c.319-.683.777-1.124 1.406-1.531.311-.103.311-.103.811.063" fill="#27E6A8"/><path d="M43.333 145.667h.333c-.202.477-.423.77-.771 1.167-.465.481-.465.481-.396 1.167l-.296.053c-.685.211-1.119.715-1.537 1.281a9 9 0 0 0-.5 1.667h-.167c-.1-.799-.117-1.452.365-2.125.637-.76 1.358-1.452 2.067-2.143.515-.483.515-.483.901-1.065" fill="#7945C5"/><path d="M40.667 70c.299.449.393.662.5 1.167l.094.313c.094.456.083.89.073 1.354-.385-.021-.385-.021-.833-.167-.408-.619-.565-1.094-.5-1.833h.333z" fill="#716FE5"/><path d="M58.167 87q1.085-.012 2.171-.018.369-.002.738-.007.531-.006 1.062-.007l.645-.005c.512.035.789.099 1.217.371l-1 .333v-.5l-.354.167c-.522.182-.931.167-1.479.167l-.333.333h-.667l-.167-.5-.5.167c-.456-.076-.887-.209-1.333-.333z" fill="#6F73DD"/><path d="M151 58.667h.5c.085.412.085.412 0 1-.397.524-.873.959-1.354 1.406q-.382.363-.762.728l-.369.353c-.483.479-.915.988-1.348 1.512l-.167-.5h.333l.167-.667h.333l.333-.667h.333v-.333h.333v-.333h.333v-.5h.5l.063-.313c.105-.353.105-.353.439-.686.268-.472.268-.472.333-1" fill="#2DE39E"/><path d="M46.5 63.5c0 .483-.036.869-.167 1.333l-.5.333-.333-.167-.115.281c-.278.489-.655.822-1.052 1.219l-.177.375c-.156.292-.156.292-.479.417-.344.042-.344.042-.844.042a94 94 0 0 1 .563-.667l.316-.375L44 66h.333l.108-.273c.305-.533.725-.928 1.163-1.352l.26-.256z" fill="#6479C6"/><path d="M114.167 87H120l-.333.833h-.5l.167-.667a63 63 0 0 0-.958.052l-.539.029c-.542.092-.744.258-1.169.585-.583-.135-.583-.135-1.167-.333h-.667v-.333z" fill="#47BEBD"/><path d="m73.271 112.656.357.05q.436.062.873.127V113H64.334c.75-.375.75-.375 1.349-.368l.401.002.428.007.443.003q.7.005 1.399.014.701.007 1.403.012.436.003.873.009c.945.008 1.692-.162 2.641-.021" fill="#8758D1"/><path d="M84.667 72.833 85 73q.396.01.792 0c1.627-.016 3.251.085 4.875.167v.167q-1.797.048-3.595.089-.612.014-1.223.031-.88.023-1.757.042l-.553.016-.515.01-.453.011c-.432-.036-.699-.148-1.069-.367 1.491-.225 1.491-.225 1.979-.063.475.084.751-.087 1.188-.271" fill="#51AAC2"/><path d="M159 109.667h.5v.5h.333v1.167h-.333v.5l-.5.167c-.412-1.313-.412-1.313-.333-2z" fill="#29DDB9"/><path d="M159.833 128H160c.075 1.072-.031 1.623-.667 2.5-.458.323-.458.323-.833.5l.167-1.5H159l.167-.667h.5z" fill="#43AEB5"/><path d="m157.167 52.833.333.167c-.25.59-.592.955-1.052 1.396a19 19 0 0 0-1.615 1.771c-.167-.5-.167-.5-.01-.865L155 55h.5l.167-.667h.5l.031-.375c.176-.595.468-.779.969-1.125" fill="#28E79C"/><path d="M157.5 53.167c0 .5 0 .5-.167 1h-.5l-.135.302a2.7 2.7 0 0 1-.698.865h-.333l-.083.344c-.369.722-.959 1.152-1.583 1.656l-.333-.167.324-.318a39 39 0 0 0 2.242-2.378c.401-.457.832-.88 1.268-1.305" fill="#042315"/><path d="M47.833 62.667 48 63.834l-1.5.167c.219-.573.219-.573.5-1.167.5-.167.5-.167.833-.167M46.333 64l.333.167v1l-.667.167c.146-1.146.146-1.146.333-1.333" fill="#5F87D6"/><path d="m57 131.333.667.167v.333l-.406.219-.428.281-.167.833-1.667.5z" fill="#864BE2"/><path d="m54.333 55.167.333.167-.969 1.135-.276.325-.268.314-.246.288c-.24.271-.24.271-.5.524-.278.27-.278.27-.574.746l-.667-.167.237-.234 1.065-1.057.373-.368.36-.358.331-.328c.295-.313.55-.638.801-.987" fill="#558AB5"/><path d="M89.667 112.167h1l-.167.667q.453-.029.906-.063l.51-.035.417-.069.167-.333h.5l.167.667q-.682.007-1.364.01l-.388.004c-.661.003-1.268-.017-1.914-.181z" fill="#6E77D5"/><path d="m80.667 72.5.5.167-.333.667h-6.167v-.167l.515-.007q.943-.015 1.888-.036l.818-.014q.587-.009 1.174-.024l.37-.003c.38-.005.38-.005.902-.082z" fill="#569CCB"/><path d="M55.333 54.5c0 .5 0 .5-.225.769l-.286.283c-.458.496-.458.496-.469 1.188l.147.427-.667.167-.5-.667c.644-.748 1.291-1.48 2-2.167" fill="#529ECD"/><path d="m151.771 137.813.396.02c-.613.754-1.235 1.399-2 2l-.167-.667.313-.125c.419-.246.496-.438.688-.875.333-.333.333-.333.771-.354" fill="#5395BD"/><path d="M150.833 126.667c-.471.471-.783.376-1.442.378l-.331.001q-.347.001-.694-.002-.531-.002-1.061.002l-.674-.001-.62-.001c-.511-.044-.511-.044-1.011-.377 1.952-.239 3.877-.116 5.833 0" fill="#4DABC5"/><path d="M152.5 137.333c0 .615-.147.834-.5 1.333a87 87 0 0 1-.833.667c-.347.378-.675.769-1 1.167l-.5-.167.206-.204.929-.921.325-.32.314-.313.288-.286c.283-.303.528-.621.771-.956" fill="#050E1E"/><path d="M145 66c-.086.684-.441.993-.927 1.458l-.417.404-.323.305c-.167-.333-.167-.333-.01-.854l.177-.48h.5l.146-.323c.234-.428.368-.51.854-.51" fill="#2EE0A3"/><path d="M43.333 145.667h.333c-.202.477-.423.77-.771 1.167-.465.481-.465.481-.396 1.167l-.833.167c.082-.73.298-1.037.833-1.531.483-.435.483-.435.833-.969m-2.167 2.667.333.167-.333.167z" fill="#8A4BE0"/><path d="M47 142.333c-.307.72-.805 1.143-1.371 1.667-.306.345-.397.55-.463 1l-.333-.333c.026-.702.513-1.074.99-1.542l.452-.45c.392-.342.392-.342.725-.342" fill="#8C4BE4"/><path d="M159 112v.667c-.51.297-.87.371-1.458.354l-.404-.009-.305-.012.5-.333.333-.5v.333l.292-.25c.375-.25.375-.25 1.042-.25" fill="#36D1B5"/><path d="M147.333 63.667c-.255.605-.62.998-1.083 1.458l-.401.404c-.349.304-.349.304-.682.304V65.5h.333V65h.333v-.5h.5l.167-.5c.5-.333.5-.333.833-.333" fill="#2EE5A2"/><path d="m53.167 135.5.167.333a27 27 0 0 1-.833 1h-.333l-.042.302c-.159.464-.387.603-.792.865l-.333-.333.5-.167q.171-.331.333-.667a15 15 0 0 1 .688-.708l.366-.357z" fill="#8349D9"/><path d="m42.875 86.979.638.009L44 87v.167h-1.5v.333l-.993.114c-.373.048-.373.048-.841.219-.202.333-.202.333-.333.667l-.167-.333c.915-.966 1.369-1.212 2.708-1.188" fill="#7957CB"/><path d="M139.833 150.667c0 .609-.148.843-.5 1.333-.344.198-.344.198-.667.333l-.333.333-.167-.167c-.445-.023-.887-.007-1.333 0v-.167l.318-.068c1.15-.289 1.856-.756 2.682-1.598" fill="#0C0927"/><path d="M117.833 126.667q.448-.013.896-.021l.504-.012c.434.033.434.033.767.366-.063.354-.063.354-.167.667H119l-.052-.323-.115-.344-.5-.167v.333l-.667-.167z" fill="#6285DA"/><path d="m142.5 68.833.167.333a8.9 8.9 0 0 1-1.855 2.07A11 11 0 0 0 140 72l-.333-.167.408-.402.539-.535.268-.264a22 22 0 0 0 1.617-1.799" fill="#032316"/><path d="m51.833 58.5.073.302c.075.291.165.579.26.865h-.333l-.167.333h-.5v-.5h-.333c.359-1 .359-1 1-1" fill="#5597D1"/><path d="M62.833 127c-.499.43-.857.696-1.5.833l-.167.333h-.333a15 15 0 0 0-.667.667c.052-.438.052-.438.333-1 1.537-1.099 1.537-1.099 2.333-.833" fill="#8D4EF1"/><path d="m41.5 68.667.167.5-.333.5c-.028.438-.028.438 0 .833l-.667-.333-.5.667c.086-.695.285-1.042.76-1.552l.323-.352z" fill="#6A6DC9"/><path d="m62.333 48 .333.667h-.833l-.167.5c-.344.115-.344.115-.667.167l-.167-.5.667-.167v-.5z" fill="#43B3C9"/><path d="m145.5 144.833.167.5-.448.354c-.536.444-.954.934-1.385 1.479l-.5-.167z" fill="#05061B"/><path d="m55.667 105.667.333.167.063.396c.129.542.323.634.771.938v.333h.333l.167.667a29 29 0 0 1-2.167-2l.167-.333.333.167z" fill="#7E52D5"/><path d="M40.333 88.833h1v.833H41l.167.5-.667-.167v-.333h-.333z" fill="#8851F4"/><path d="M148.5 98.167c.65.264 1.056.689 1.542 1.188l.45.46.341.352-.167.5-1-1.167-.333.167-.229-.489c-.214-.522-.214-.522-.604-.677z" fill="#3CD6AF"/><path d="M57.333 108.167h1c.129.497.235.996.333 1.5a61 61 0 0 1-.573-.469l-.322-.264c-.271-.267-.271-.267-.438-.767" fill="#764ACC"/><path d="M159 48.167c.326.108.326.108.667.333.102.434.102.434.125.938l.029.507.012.388-.5-.167c-.115-.344-.115-.344-.167-.667h.333a9.4 9.4 0 0 0-.667-1.167z" fill="#1EF49C"/><path d="M40 88.667h.167v1h.333c.435.313.499.496.615 1.031l.052.469c-.692-.23-.83-.528-1.167-1.167-.054-.461-.032-.867 0-1.333" fill="#7D50D1"/><path d="M53.333 104H54c.333.458.333.458.667 1 .216.228.436.453.667.667-.583 0-.669-.087-1.094-.458l-.303-.258c-.284-.298-.44-.575-.603-.951" fill="#7D50D2"/><path d="m157.167 132.5.167.333c-.223.67-.587.784-1.167 1.167-.305.351-.305.351-.5.667 0-.667 0-.667.328-1.06l.422-.398.422-.404z" fill="#0A1D27"/><path d="M143.5 126.667h1.333L144.5 128h-.5l.167-1.167z" fill="#4AA9CB"/><path d="M137.5 87.167c.866.227 1.356.569 2 1.167v.167h-.833l-.167-.5-.833-.167z" fill="#36CCA6"/><path d="M153.5 134.667h1l.167.667-.396.156c-.425.165-.425.165-.771.344z" fill="#49A9CB"/><path d="m153.333 57.5-.489.583-.275.328-.236.256h-.167V57.5c.502-.156.644-.174 1.167 0" fill="#25F19F"/><path d="m155.667 55 .167.333c-.497.835-1.073 1.398-1.833 2l-.333-.167.353-.347.46-.455.457-.451c.413-.406.413-.406.73-.913" fill="#011B0E"/><path d="M72.612 112.524q.341.051.68.111l.352.055q.429.068.856.143V113h-3.167c.667-.5.667-.5 1.279-.476" fill="#815DD7"/><path d="m137.667 72.5.5.333c-.51.297-.87.371-1.458.354l-.404-.009-.305-.011v-.333l.322-.031.417-.042.416-.041c.342-.017.342-.017.511-.219" fill="#23E9AC"/><path d="m141.5 148.5.5.167-1.667 1.667-.167-.333c.229-.333.229-.333.5-.667h.333l.167-.5z" fill="#5F7BBA"/><path d="M142 91.167a33 33 0 0 1 .583.458l.328.258c.256.284.256.284.256.95l.333.167-.5.333c-.333-.5-.333-.5-.333-1.167a15 15 0 0 0-.667-.667z" fill="#35DBB2"/><path d="M56 53.5h.5c-.192.411-.341.675-.667 1a21 21 0 0 1-1 .333l.49-.573.275-.322A8 8 0 0 1 56 53.5" fill="#5093B9"/><path d="M57.667 108.833c1.247 1.025 1.247 1.025 1.667 1.667h-.5v-.333l-.5-.167v-.333l-.667-.333z" fill="#04021D"/><path d="m127.271 87.146.562.021.167.5h-.5l-.5.167c-.364-.156-.364-.156-.667-.333.333-.333.333-.333.938-.354" fill="#2ED7BB"/><path d="M155.333 105.333c.535.23.842.487 1.208.938l.263.319.196.243-.667-.167v-.333h-.5l-.167-.667h-.333z" fill="#3AD8B2"/><path d="m46.5 96.167.5.167v.667l.833.167-.167.5c-.406-.115-.406-.115-.833-.333-.115-.427-.115-.427-.167-.833l-.333-.167z" fill="#8654EB"/><path d="m42.167 146.667.333.167-1.5 1.5-.167-.333.333-.5h.333l.167-.5z" fill="#070222"/><path d="m144.167 144.167.833.333v.333l.333.167-.333.333c-.354-.063-.354-.063-.667-.167z" fill="#5B8DD7"/><path d="M159.833 110H160c.128 1.278.128 1.278-.185 1.822-.231.271-.231.271-.648.678L159 112l.5-.167v-.5h.333z" fill="#3ABF9D"/><path d="M46.5 63.5c0 .483-.036.869-.167 1.333l-.5.333-.333-.333c.289-.51.564-.939 1-1.333" fill="#6282C6"/><path d="m146 143.667.333.167-.167.5h-.333l-.333.667-.333-.667z" fill="#5680B4"/><path d="M150.833 100.333a45 45 0 0 1 .583.469l.328.264c.256.267.256.267.256.767-.323-.125-.323-.125-.667-.333-.125-.354-.125-.354-.167-.667h-.333z" fill="#32CAA2"/><path d="M50.333 100.833c.523.056.675.175 1.052.563l.282.437-.167.5-.302-.385c-.34-.433-.34-.433-.656-.74l-.209-.208z" fill="#794CC8"/><path d="m145.333 94.667.573.479.322.269c.272.252.272.252.439.585h-.5v-.333h-.833z" fill="#38D9B1"/><path d="M115.833 87.167h1.5l-.667.667-.833-.333z" fill="#3CC4C1"/><path d="M141.167 69.333c.344.073.344.073.667.167-.232.561-.496.831-1 1.167.146-1.146.146-1.146.333-1.333" fill="#2CD7A2"/><path d="M159 50.5h.5c-.052.396-.052.396-.167.833l-.5.333c-.104-.302-.104-.302-.167-.667z" fill="#1FF59D"/><path d="M40.5 151.333c.5.167.5.167.667.5.353.115.353.115.76.188l.417.085.323.061v.167c-1.357.104-1.357.104-1.927-.313-.24-.354-.24-.354-.24-.688" fill="#894CDD"/><path d="M149.833 138.667c.177.302.177.302.333.667l-.167.5-.5.167-.167-.5h.333l-.333-.667z" fill="#4E9ED1"/><path d="M89.667 112.167h1L90.5 113l-1-.167z" fill="#6E72E4"/><path d="M44.167 94.667c.701.25.956.714 1.333 1.333l-.833-.333v-.333l-.5-.167z" fill="#10072C"/><path d="m45.5 64.5.167.333c-.188.427-.188.427-.5.833-.448.135-.448.135-.833.167l.49-.573.275-.322a8 8 0 0 1 .401-.438" fill="#5878B5"/><path d="m153.5 57.333.167.333c-.803 1.049-.803 1.049-1.5 1.167l.479-.563.269-.316a13 13 0 0 1 .585-.621" fill="#053420"/><path d="M158.667 52c.167.333.167.333.063.656-.288.432-.608.604-1.063.844.079-.708.494-1.033 1-1.5" fill="#010F06"/><path d="m154 135.333.5.167-1.333 1.333-.167-.333z" fill="#569BB7"/><path d="M49.333 99.667c.561.24.918.555 1.333 1l-.5.167a24 24 0 0 1-.833-.833z" fill="#8256DD"/><path d="m45.5 96 .573.479.322.269c.272.252.272.252.438.585-.518-.056-.767-.098-1.135-.479C45.5 96.5 45.5 96.5 45.5 96" fill="#0A0324"/><path d="m148.667 62.333.167.333c-.156.354-.156.354-.333.667h-.333v.333l-.833.333.207-.238.272-.315.269-.31c.279-.327.279-.327.585-.804" fill="#031F12"/><path d="m150.167 60.833.167.333c-.443.623-.764.942-1.5 1.167l.479-.563.269-.316a13 13 0 0 1 .585-.621" fill="#043321"/><path d="m40.333 149.167.333.167-.5 1.667h-.167a49 49 0 0 1-.021-.729l-.012-.41c.034-.362.034-.362.367-.695" fill="#844AD6"/><path d="m143.167 147.167.167.5c-.203.304-.203.304-.489.615l-.286.314-.226.237-.333-.5.396-.302c.462-.35.462-.35.771-.865" fill="#0C1223"/><path d="M151 58.667h.5v1l-.667.167-.167-.333.333-.167z" fill="#20EF9E"/><path d="M54.833 133.667c.201.604.09.773-.167 1.333l-.167-.333-.5-.167z" fill="#7643C9"/><path d="m58.167 130.167.167.333c-.239.438-.239.438-.5.833l-.667-.167z" fill="#7243BB"/><path d="m60.667 111.833 1.167.667-.167.333-.833-.167z" fill="#090522"/><path d="M40 70.833c.45.479.658.718.708 1.385l-.041.449c-.339-.236-.484-.425-.57-.83-.04-.334-.069-.668-.096-1.003" fill="#726CCD"/><path d="m152.333 136 .167.333.667-.333-.167.833c-.813-.292-.813-.292-1-.667z" fill="#4DA4CF"/><path d="m158.667 129.5.5.333c-.052.396-.052.396-.167.833l-.5.333z" fill="#46B4C5"/><path d="m144.333 93.5 1.167 1c-.333.167-.333.167-.677.063-.323-.23-.323-.23-.448-.667z" fill="#36C7A0"/><path d="m139.167 88.5.667.167-.167.667-.667-.167z" fill="#2BE0B3"/><path d="M154.5 56.167c-.232.561-.496.831-1 1.167v-.667c.536-.5.536-.5 1-.5" fill="#2EE39C"/><path d="m148.5 141 .5.167-.333.5h-.333l-.167.5-.333-.667h.667z" fill="#5386B1"/><path d="M60.333 128v1l-1 .167z" fill="#844FD6"/><path d="M94 112c.25.229.25.229.5.5v.333h-.833c.146-.646.146-.646.333-.833" fill="#6A79E0"/><path d="m158 107.833 1 .833-.333.167-.167.333c-.5-.771-.5-.771-.5-1.333" fill="#36C6A0"/><path d="M156.333 106H157c.292.417.292.417.5.833h-.5c-.364-.417-.364-.417-.667-.833" fill="#03231B"/><path d="m154.667 104.333 1 .833c-.5.167-.5.167-1 0z" fill="#35C6A0"/><path d="M45.833 95h.333l.167.833L46 96v-.333l-.5.167z" fill="#8752F0"/><path d="m80.667 72.5.5.167-.333.667h-.833z" fill="#4BA7CC"/><path d="M113.667 72.667c.313.052.313.052.667.167l.333.5h-1z" fill="#2DD9B9"/><path d="M44.667 64.5h.833l-.833 1c-.208-.415-.13-.568 0-1" fill="#030115"/><path d="m51.667 57.5.5.167-1.167 1V58l.5-.167z" fill="#010212"/><path d="m158.333 51.667.5.167a18 18 0 0 1-.667.833h-.333c.167-.5.167-.5.5-1" fill="#27DC97"/><path d="m57.833 51.5.333.167-.5.833-.5-.167z" fill="#4A90B0"/></svg>