<svg xmlns="http://www.w3.org/2000/svg" width="1328" height="1321"><path d="M0 0h1328v1321H0z"/><path d="M0 0h1328v1321H0zm585 56-2.465.33c-21.007 2.818-41.615 6.66-62.176 11.83a739 739 0 0 1-9.668 2.336C440.74 87.146 374.028 119.32 315 160l-2.118 1.46c-22.65 15.703-44.01 33.26-64.201 52.003a356 356 0 0 1-3.872 3.483c-6.052 5.38-11.865 10.954-17.578 16.693q-2.138 2.143-4.284 4.277c-5.193 5.2-10.17 10.5-14.947 16.084a1251 1251 0 0 1-4.375 4.813c-3.843 4.263-7.518 8.633-11.125 13.097a695 695 0 0 1-5.5 6.711c-7.541 9.122-14.598 18.509-21.431 28.17a687 687 0 0 1-4.526 6.283c-32.918 45.509-57.483 96.382-76.383 149.093-.916 2.544-1.85 5.08-2.785 7.618-7.366 20.215-12.564 41.07-17.18 62.061-.667 3.027-1.352 6.05-2.039 9.072C59.12 556.823 56.973 572.836 55 589l-.879 7.008-.809 6.554-.361 2.932c-1.483 12.402-2.104 24.677-2.084 37.166l-.003 4.442q-.002 4.63.006 9.26.006 5.841-.004 11.682c-.08 30.17-.08 30.17 2.509 60.206l.809 6.367.413 3.198a776 776 0 0 1 1.126 9.443c1.354 11.704 3.226 23.107 5.813 34.598.72 3.326 1.305 6.67 1.901 10.019a408 408 0 0 0 3.876 18.375l.534 2.34c3.89 16.318 9.295 32.298 14.716 48.16l.91 2.663A629 629 0 0 0 117 943l1.688 3.364c18.865 37.43 42.144 72.62 68.88 104.9 2.06 2.498 4.086 5.026 6.12 7.549 3.768 4.605 7.72 9.016 11.757 13.386a375 375 0 0 1 5.899 6.633c10.887 12.476 22.502 24.131 34.678 35.343a836 836 0 0 1 5.552 5.177c5.627 5.273 11.356 10.361 17.375 15.187a439 439 0 0 1 6.883 5.672c9.36 7.848 18.97 15.186 28.954 22.223a822 822 0 0 1 6.46 4.625C337.344 1185.82 365.32 1201.566 394 1216l3.047 1.554c46.575 23.672 96.986 38.773 147.953 49.446l3.142.66c68.599 14.122 142.877 15.506 211.858 3.34l2.213-.386a2539 2539 0 0 0 17.475-3.114l2.396-.435c13.94-2.548 27.843-5.382 41.416-9.503l4.223-1.269 2.121-.643a1167 1167 0 0 1 8.888-2.629q3.229-.946 6.456-1.9a935 935 0 0 1 6.75-1.96c3.873-1.12 7.629-2.347 11.359-3.88 4.34-1.755 8.71-3.422 13.098-5.058 63.53-23.77 122.516-56.427 174.873-99.795 2.475-2.04 4.982-4.042 7.482-6.053 4.917-4.022 9.584-8.273 14.23-12.602 2.2-2.042 4.45-4.012 6.724-5.97 4.18-3.653 8.132-7.494 12.05-11.424l2.135-2.132q2.216-2.215 4.43-4.435 3.359-3.364 6.726-6.72l4.334-4.338 2.002-1.996c4.404-4.425 8.555-9.02 12.619-13.758q1.425-1.641 2.852-3.281c26.91-31.16 51.03-64.758 71.148-100.719l1.585-2.817c44.42-79.31 69.505-166.736 76.415-257.183l.283-3.213c1.087-13.546 1.005-27.143 1.03-40.725l.004-2.037c.048-23.552-1.167-46.677-4.317-70.025q-.398-3.125-.793-6.25c-.648-4.932-1.411-9.84-2.207-14.75q-.45-2.886-.898-5.773c-2.195-13.865-4.93-27.555-8.102-41.227l-.713-3.152c-4.728-20.76-11.204-40.791-18.287-60.848l-.766-2.17c-6.764-19.093-14.362-37.601-23.234-55.83l-1.124-2.323a541 541 0 0 0-5.83-11.64 729 729 0 0 1-2.21-4.339c-15.99-31.614-35.332-61.558-56.836-89.698l-1.47-1.93c-6.86-8.965-14.116-17.56-21.53-26.07l-1.996-2.305c-21.225-24.469-21.225-24.469-44.723-46.695-2.474-2.169-4.87-4.408-7.268-6.66A333 333 0 0 0 1055 192q-1.788-1.471-3.57-2.95c-30.061-24.838-62.96-46.26-97.213-64.845a780 780 0 0 1-4.38-2.398c-67.352-37.123-143.28-57.504-219.15-67.12l-3.783-.482c-14.219-1.73-28.39-2.368-42.705-2.443l-2.18-.015a3015 3015 0 0 0-18.76-.063c-26.284-.026-52.184.742-78.259 4.316" fill="#FEFEFE"/><path d="m445.033 825.871 2.5-.01 2.753.005 2.931-.007q4.91-.009 9.819-.006l7.073-.011q8.73-.014 17.46-.016 10.454-.005 20.907-.02 25.266-.03 50.533-.04l23.896-.015a213128 213128 0 0 1 86.904-.042h2.572l12.9-.004h2.587q41.52-.015 83.043-.065a82864 82864 0 0 1 97.388-.058h2.395q19.1-.007 38.198-.04 19.187-.03 38.375-.016 11.405.01 22.811-.022c5.671-.015 11.342-.01 17.013.005q3.45.003 6.899-.014c3.116-.015 6.23-.006 9.347.01l2.73-.031c5.456.06 8.632.847 12.933 4.526 2.107 3.16 2.319 4.16 2.375 7.813l.086 2.519c-1.209 6.997-7.55 12.14-12.273 17.043-4.626 4.83-9.172 9.694-13.551 14.75-2.447 2.803-4.976 5.527-7.512 8.25A916 916 0 0 0 977.5 892a930 930 0 0 1-10.625 11.625 490 490 0 0 0-11.047 12.297c-3.734 4.245-7.591 8.382-11.418 12.543-7.473 8.133-7.473 8.133-14.785 16.41-3.647 4.2-7.436 8.264-11.218 12.343-2.717 2.936-5.409 5.886-8.032 8.907a1286 1286 0 0 1-8.437 9.625l-2.41 2.734c-7.25 7.217-14.851 8.72-24.772 8.784l-2.67-.014-2.917.01c-3.22.008-6.44.003-9.66-.003l-7.003.011q-8.607.014-17.214.005c-6.876-.004-13.752.003-20.627.01-14.253.016-28.506.018-42.758.015a59247 59247 0 0 0-44.9.01q-33.217.013-66.436.008h-2.53l-12.69-.003h-2.547l-5.097-.002q-39.677-.007-79.355.021a107144 107144 0 0 1-98.65.027h-2.363q-17.673-.001-35.344.015-20.088.019-40.176.002c-6.836-.007-13.672-.008-20.508.005q-9.378.014-18.757-.007-3.4-.004-6.801.008c-3.072.01-6.144.002-9.216-.011l-2.691.022c-6.227-.055-10.496-1.174-15.158-5.584-2.182-3.636-2.997-6.572-2.688-10.813 2.319-5.797 6.27-9.465 10.719-13.762 2.58-2.531 4.918-5.2 7.27-7.941 2.614-2.985 5.311-5.889 8.011-8.797 3.787-4.083 7.518-8.198 11.16-12.41 2.881-3.273 5.846-6.468 8.8-9.675a336 336 0 0 0 7.353-8.227c3.458-3.994 7.074-7.835 10.687-11.688 4.203-4.483 8.368-8.98 12.383-13.633 5.949-6.868 12.139-13.522 18.313-20.188a426 426 0 0 0 9.46-10.585c2.9-3.293 5.882-6.51 8.863-9.73 2.47-2.676 4.838-5.39 7.106-8.239 4.734-5.631 11.418-10.246 18.908-10.254" fill="#6672D8"/><path d="m450.851 342.5 2.933-.017c3.244-.014 6.488.001 9.732.016q3.524-.006 7.047-.017c5.78-.013 11.558-.008 17.338.005 6.923.015 13.847.007 20.77-.002 13.566-.018 27.13-.012 40.696.003q17.805.02 35.611.016h2.386l9.587-.003c29.98-.007 59.96.009 89.939.035q39.96.034 79.918.018l20.466-.008h2.545a80694 80694 0 0 1 78.717.015q17.796.007 35.592 0 20.232-.01 40.464.02c6.885.01 13.77.016 20.655.008q9.447-.01 18.894.017 3.424.006 6.848-.003c3.095-.008 6.19.002 9.286.017l2.703-.02c6.508.06 10.925 1.414 16.46 4.962 2.08 3.245 2.13 5.82 2.289 9.61-1.868 7.27-8.605 13.036-13.665 18.328l-3.738 3.96c-.583.62-1.167 1.238-1.768 1.875-2.313 2.475-4.525 5.029-6.736 7.595-3.996 4.545-8.152 8.95-12.265 13.39-5.976 6.456-11.93 12.925-17.696 19.57-3.736 4.24-7.584 8.38-11.41 12.537-12.519 13.569-12.519 13.569-24.762 27.385-3.627 4.167-7.383 8.21-11.137 12.263a940 940 0 0 0-9.238 10.112l-2.152 2.391a556 556 0 0 0-4.539 5.156l-2.371 2.703-2.11 2.434c-6.446 6.411-14.637 7.34-23.395 7.399l-2.675-.013-2.922.01c-3.226.01-6.452.005-9.677 0l-7.015.014q-8.622.015-17.245.01c-6.888-.002-13.776.007-20.664.017-14.278.02-28.556.025-42.834.026a66942 66942 0 0 0-42.588.017l-2.391.001q-33.278.02-66.554.02h-2.534l-20.37-.002q-39.75 0-79.496.042a81645 81645 0 0 1-101.193.045c-12.582 0-25.164.013-37.746.03q-18.954.026-37.908.006a5732 5732 0 0 0-20.544.01q-9.396.024-18.791-.004-3.407-.005-6.813.012c-3.078.014-6.155.003-9.232-.013l-2.697.03c-6.38-.074-9.999-1.77-14.669-6.278-1.8-3.41-2.619-6.439-2.187-10.25 2.685-6.01 7.323-10.551 12.008-15.05 2.495-2.442 4.743-5.048 7.02-7.692 2.404-2.752 4.872-5.444 7.347-8.133A1717 1717 0 0 0 347 441a1965 1965 0 0 1 15.914-17.539A1135 1135 0 0 0 371.5 414c3.31-3.688 6.647-7.35 10-11 5.592-6.088 11.123-12.228 16.637-18.387a1301 1301 0 0 1 14.555-15.928 322 322 0 0 0 7.995-8.935c2.525-2.892 5.1-5.723 7.75-8.5l2.06-2.172c6.394-5.308 12.168-6.667 20.354-6.579" fill="#30A3B0"/><path d="m323.413 584.617 2.937-.015c3.272-.013 6.544-.005 9.817.004q3.54-.007 7.08-.019 7.715-.02 15.431-.012c7.65.007 15.3-.003 22.949-.017 14.456-.025 28.913-.03 43.37-.027a42216 42216 0 0 0 38.302-.013l2.411-.002 2.416-.002 2.419-.001q33.698-.024 67.395-.018h2.568l12.885.003h2.585l5.175.002q40.25.007 80.5-.042a66421 66421 0 0 1 100.054-.05l2.398.001q17.92 0 35.843-.03 20.385-.032 40.77-.005c6.936.01 13.872.01 20.808-.01a2916 2916 0 0 1 19.045.008q3.447.006 6.893-.013a761 761 0 0 1 9.368.017l2.703-.037c7.722.11 13.948 2.837 19.958 7.662l1.737 1.925 1.995 2.166 1.963 2.22 1.998 2.186c3.792 4.166 7.492 8.414 11.195 12.66 2.293 2.609 4.639 5.164 6.994 7.717a1456 1456 0 0 1 12.371 13.621 1693 1693 0 0 0 7.379 8.129 517 517 0 0 1 8.313 9.313c4.275 4.916 8.7 9.696 13.114 14.489a2697 2697 0 0 1 23.62 25.995A1643 1643 0 0 0 1002.5 706c3.49 3.802 6.974 7.61 10.438 11.438l2.09 2.308L1017 722l2.227 2.473c2.833 4.037 2.415 7.776 1.773 12.527-1.735 4.292-3.847 6.058-8 8-3.176.438-6.324.404-9.526.38l-2.937.014c-3.267.012-6.533.003-9.8-.006q-3.537.006-7.074.016-7.705.017-15.41.007c-7.639-.009-15.277 0-22.916.01-13.642.02-27.285.023-40.927.018a41300 41300 0 0 0-47.858.007c-22.429.01-44.858.016-67.287.008l-2.563-.001-20.608-.008q-40.19-.014-80.38.022a81890 81890 0 0 1-99.902.03l-2.393-.001q-17.897-.003-35.794.019-20.352.023-40.704-.002c-6.925-.01-13.85-.012-20.776.004q-9.505.02-19.01-.01-3.442-.005-6.886.01c-3.116.013-6.23.001-9.345-.016l-2.713.029c-8.63-.1-15.056-3.477-21.191-9.53a207 207 0 0 1-4.89-5.57c-2.6-2.994-5.288-5.9-7.985-8.805-5.818-6.278-11.55-12.63-17.258-19.008a1201 1201 0 0 0-12.992-14.242c-3.15-3.4-6.284-6.803-9.312-10.312-3.262-3.775-6.66-7.416-10.063-11.063-3.95-4.234-7.847-8.493-11.629-12.879-2.575-2.919-5.224-5.767-7.871-8.621-3.212-3.463-6.411-6.926-9.5-10.5-3.052-3.528-6.205-6.953-9.375-10.375-10.658-11.51-10.658-11.51-15.125-16.625l-2.187-2.504c-2.68-3.691-3.155-6.99-2.813-11.496 4.212-8.423 8.666-9.445 17.413-9.383" fill="#4B8BC4"/><path d="m387 879 1 3c-1.812 2.688-1.812 2.688-4 5h-2l-.684 1.648c-1.712 3.06-3.986 5.448-6.378 7.977q-1.504 1.612-3.004 3.227l-1.509 1.614A472 472 0 0 0 364.5 908c-3.31 3.688-6.647 7.35-10 11a2171 2171 0 0 0-10.437 11.438l-2.09 2.308a98 98 0 0 0-4.102 5.04L336 940h-2l-.812 1.766c-1.203 2.262-2.526 4.04-4.188 5.984l-1.562 1.86C326 951 326 951 324 951l-.812 1.766c-1.203 2.262-2.526 4.04-4.188 5.984l-1.562 1.86C316 962 316 962 314 962l-.812 1.625a84 84 0 0 1-2.813 5.125c-1.729 4.086-1.603 6.85-1.375 11.25h2v2h2v2h229v1l340 1v1c-53.78.051-107.561.1-161.342.127l-2.411.001a661674 661674 0 0 1-77.311.037l-2.557.001q-41.043.02-82.085.063a106823 106823 0 0 1-96.242.056h-2.367q-18.877.008-37.755.035-18.968.027-37.935.02c-6.854-.002-13.708.001-20.563.018q-9.405.02-18.808.005-3.41-.003-6.82.012c-3.081.012-6.161.005-9.242-.006l-2.699.024c-6.235-.051-10.506-1.163-15.175-5.58-2.182-3.636-2.997-6.572-2.688-10.813 2.319-5.797 6.27-9.465 10.719-13.762 2.58-2.531 4.918-5.2 7.27-7.941 2.614-2.985 5.311-5.889 8.011-8.797 3.787-4.083 7.518-8.198 11.16-12.41 2.881-3.273 5.846-6.468 8.8-9.675a336 336 0 0 0 7.353-8.227c3.458-3.994 7.074-7.835 10.687-11.688 8.884-9.423 8.884-9.423 17-19.5" fill="#5B41A4"/><path d="m445.021 342.876 2.492-.007 2.742.008 2.922-.004q4.893-.002 9.785.007 3.525 0 7.049-.003 8.7-.003 17.4.005 10.417.007 20.833.004 19.224-.001 38.45.008a100198 100198 0 0 0 52.487.012q42.573.004 85.148.019a461895 461895 0 0 0 110.907.024l54.573.01q80.096.014 160.191.041v1l-3.611.004c-52.52.06-105.041.122-157.562.197l-2.41.004-77.262.112-2.555.004q-41 .06-82.001.104a161267 161267 0 0 0-96.167.133l-2.366.004q-18.855.029-37.709.043-18.954.016-37.908.054-10.27.022-20.54.025-9.4.003-18.802.03-3.402.007-6.804.004c-3.083-.002-6.166.008-9.249.02l-2.667-.01c-5.991.042-11.556.91-17.387 2.272 3.04-3.329 5.578-4.125 10.021-4.124" fill="#1C7E71"/><path d="M771 344a77170 77170 0 0 1 103.119-.165l2.189-.002q17.552-.021 35.103-.064 18.006-.043 36.013-.051c6.743-.004 13.486-.013 20.23-.035q9.515-.03 19.031-.022 3.498-.001 6.994-.019c3.178-.014 6.355-.011 9.532-.003l2.81-.026c5.907.041 9.066 1.101 13.756 4.782 1.64 2.153 1.722 3.601 1.785 6.293l.13 2.449c-1.761 7.291-8.58 13.081-13.63 18.363l-3.738 3.96-1.768 1.875a192 192 0 0 0-5.181 5.79c-3.144 3.643-6.375 7.202-9.625 10.75l-1.577 1.735c-2.284 2.483-4.352 4.509-7.173 6.39 1.419-4.515 3.567-6.791 7-10a760 760 0 0 0 4.25-4.187l2.078-2.043c1.746-1.678 1.746-1.678 2.672-3.77h2l.75-1.687c1.48-2.737 3.185-4.99 5.25-7.313h2l.875-1.812C1007 373 1007 373 1009 370h2v-2h2v-2h2l.938-1.937C1017 362 1017 362 1018 361c.234-1.849.413-3.705.563-5.562l.253-3.067L1019 350h-2v-2h-2v-2l-3.277.003q-39.66.033-79.318.049-19.18.007-38.36.023-16.737.015-33.474.02-8.844 0-17.688.01c-23.98.03-47.925.05-71.883-1.105z" fill="#1ABE93"/><path d="m387 879 1 3c-1.812 2.688-1.812 2.688-4 5h-2l-.684 1.648c-1.712 3.06-3.986 5.448-6.378 7.977q-1.504 1.612-3.004 3.227l-1.509 1.614A472 472 0 0 0 364.5 908c-3.31 3.688-6.647 7.35-10 11a2171 2171 0 0 0-10.437 11.438l-2.09 2.308a98 98 0 0 0-4.102 5.04L336 940h-2l-.812 1.766c-1.203 2.262-2.526 4.04-4.188 5.984l-1.562 1.86C326 951 326 951 324 951l-.812 1.766c-1.203 2.262-2.526 4.04-4.188 5.984l-1.562 1.86C316 962 316 962 314 962l-.812 1.625a84 84 0 0 1-2.813 5.125c-1.729 4.086-1.603 6.85-1.375 11.25h2v2h2l-1 3c-3.7-3.796-5.867-6.61-6.184-12 .628-6.838 6.272-11.289 10.903-15.762 2.58-2.531 4.918-5.2 7.27-7.941 2.614-2.985 5.311-5.889 8.011-8.797 3.787-4.083 7.518-8.198 11.16-12.41 2.881-3.273 5.846-6.468 8.8-9.675a336 336 0 0 0 7.353-8.227c3.458-3.994 7.074-7.835 10.687-11.688 8.884-9.423 8.884-9.423 17-19.5" fill="#814AD1"/><path d="M378 407c0 4.24-2.46 5.986-5.25 8.875q-1.479 1.557-2.953 3.117l-1.443 1.519c-1.268 1.395-2.433 2.882-3.588 4.372L363 427h-2l-.762 1.73c-1.408 2.581-3.047 4.43-5.05 6.582a411 411 0 0 0-9.908 11.19 273 273 0 0 1-16.717 17.877c-3.416 3.493-6.454 7.226-9.489 11.05-1.924 2.385-3.936 4.632-6.012 6.884-2.686 3.075-4.519 5.523-5.062 9.687 1.358 3.217 1.358 3.217 3 6l-1 2c-2.762-2.882-3.895-5.806-4.25-9.793.8-7.068 7.4-12.592 12.258-17.258 2.495-2.441 4.743-5.047 7.02-7.691 2.404-2.752 4.872-5.444 7.347-8.133A1717 1717 0 0 0 347 441a1939 1939 0 0 1 15.894-17.517c3.807-4.146 7.575-8.327 11.329-12.522A112 112 0 0 1 378 407" fill="#5971B3"/><path d="M977 406h2c-1.366 3.037-2.93 5.21-5.23 7.61-.64.672-1.278 1.345-1.936 2.038l-2.021 2.102c-4.47 4.68-8.852 9.4-13.092 14.29-2.831 3.224-5.778 6.338-8.721 9.46-4.203 4.48-8.367 8.976-12.379 13.629-5.253 6.063-10.695 11.962-16.121 17.871-9.965 10.811-9.965 10.811-19.5 22l-1-3h2l.875-1.812C903 488 903 488 905 485h2v-2h2l.813-1.766c1.202-2.262 2.525-4.04 4.187-5.984l1.563-1.86C917 472 917 472 919 472v-2h2l.875-1.812C923 466 923 466 925 463h2v-2h2v-2h2l.75-1.687c1.48-2.737 3.185-4.99 5.25-7.313h2l.875-1.812C941 446 941 446 943 443h2v-2h2l.8-1.8c1.244-2.281 2.492-3.63 4.388-5.387 3.544-3.411 6.436-7.122 9.332-11.09L963 421h2l.777-1.773c1.329-2.42 2.788-3.959 4.785-5.852 2.578-2.42 2.578-2.42 4.438-5.375h2z" fill="#2AAB93"/><path d="M1015 345c5.598 3.499 5.598 3.499 6.61 7.277.437 7.89-3.262 11.93-8.302 17.64a373 373 0 0 1-5.245 5.583 3946 3946 0 0 0-5.507 5.835 192 192 0 0 0-5.181 5.79c-3.144 3.643-6.375 7.202-9.625 10.75l-1.577 1.735c-2.284 2.483-4.352 4.509-7.173 6.39 1.419-4.515 3.567-6.791 7-10a760 760 0 0 0 4.25-4.187l2.078-2.043c1.746-1.678 1.746-1.678 2.672-3.77h2l.75-1.687c1.48-2.737 3.185-4.99 5.25-7.313h2l.875-1.812C1007 373 1007 373 1009 370h2v-2h2v-2h2l.938-1.937C1017 362 1017 362 1018 361c.234-1.849.413-3.705.563-5.562l.253-3.067L1019 350h-2v-2h-2z" fill="#1AB686"/><path d="M435 830c-1.47 3.42-3.37 5.58-6.035 8.16l-2.442 2.39-2.586 2.513c-6.158 6.057-12.059 12.062-17.343 18.906A46 46 0 0 1 402 867l-3-1 1.266-1.342q2.9-3.078 5.796-6.158l1.99-2.11A462 462 0 0 0 421 842q2.089-2.41 4.188-4.812l1.917-2.208C431.87 830 431.87 830 435 830" fill="#715CC7"/><path d="M449.694 342.886h2.691c2.938 0 5.876.009 8.814.016l6.108.005q8.042.006 16.083.024 8.205.014 16.409.02 16.1.016 32.201.049v1l-3.236.025q-15.138.116-30.276.263-7.782.076-15.563.134-7.518.056-15.036.136-2.86.029-5.72.045c-13.703.054-13.703.054-27.169 2.397 4.24-4.643 8.763-4.139 14.694-4.114" fill="#498FA5"/><path d="M378 407c0 4.24-2.46 5.986-5.25 8.875q-1.479 1.557-2.953 3.117l-1.443 1.519c-1.268 1.395-2.433 2.882-3.588 4.372L363 427h-2l-.742 1.707c-1.488 2.713-3.283 4.709-5.383 6.98l-2.41 2.63L350 441a1596 1596 0 0 0-4.562 5.125l-2.004 2.258L342 450l-2-2 1.504-1.469c3.992-3.94 7.8-7.956 11.457-12.207 2.587-2.948 5.247-5.823 7.914-8.699 4.506-4.86 8.966-9.757 13.383-14.7A109 109 0 0 1 378 407" fill="#5277AC"/><path d="m387 879 1 3c-1.812 2.688-1.812 2.688-4 5h-2l-.684 1.648c-1.712 3.06-3.986 5.448-6.378 7.977l-2.961 3.18-1.503 1.608c-2.249 2.421-4.455 4.878-6.661 7.337l-2.231 2.484L360 913l-3-1c.64-.63 1.281-1.258 1.941-1.906 4.546-4.498 8.975-9.019 13.13-13.88 2.99-3.432 6.095-6.76 9.198-10.09 2.127-2.3 3.989-4.51 5.731-7.124" fill="#7A52CC"/><path d="M433 347c0 3 0 3-1.941 5.2l-2.622 2.488c-3.009 2.92-5.965 5.808-8.687 9-5.682 6.644-11.766 12.94-17.75 19.312l-2-1 1.504-1.469c4.01-3.957 7.838-7.995 11.516-12.261 6.399-7.334 13.02-14.465 19.98-21.27" fill="#4C84A7"/><path d="M977 406h2c-1.38 3.074-2.986 5.276-5.3 7.715l-1.964 2.08-2.048 2.142-2.014 2.131A466 466 0 0 1 957 431c.507-4.398 3.083-6.87 6-10h2l.777-1.773c1.329-2.42 2.788-3.959 4.785-5.852 2.578-2.42 2.578-2.42 4.438-5.375h2z" fill="#21AE8B"/><path d="M312 586h2c-1.206 2.613-2.455 4.58-4.25 6.875-2.139 3.007-2.139 3.007-1.062 6.25L310 602c.35 1.33.691 2.66 1 4h2l-1 3c-4.06-4.06-5.84-7.027-6.21-12.816.427-4.429 3.195-7.17 6.21-10.184" fill="#5D5DAC"/><path d="M398 385c0 3.596-.556 3.957-2.957 6.469l-1.873 1.98-1.983 2.051-1.947 2.05A429 429 0 0 1 381 406l-2-1 1.723-1.687c4.44-4.388 8.72-8.834 12.77-13.586 1.44-1.65 2.94-3.198 4.507-4.727" fill="#4F7EA8"/><path d="M900 974h2c-2.206 5.205-6.167 8.238-11 11-3.363.802-6.55 1.05-10 1 2.77-2.77 5.18-2.531 9-3l3-1v-2l5-2v-2h2z" fill="#587BB4"/><path d="m1018 725 3 2c.813 4.506.505 8.787-1.25 13-1.88 2.149-3.04 3.123-5.75 4-2.75.125-2.75.125-5 0 3-2 3-2 5.563-3.375 2.663-1.776 3.488-2.605 4.437-5.625.221-3.544.045-6.604-1-10" fill="#399598"/><path d="m947 923 2 1-1.504 1.469A227 227 0 0 0 934 940c0-4.29 2.562-6.126 5.375-9.062l1.54-1.643c1.999-2.128 4.02-4.23 6.085-6.295" fill="#5386B0"/><path d="m928 944 2 1-1.285 1.25c-4.467 4.399-8.643 8.985-12.715 13.75 0-4.08 1.567-5.057 4.313-8l2.425-2.625A231 231 0 0 1 928 944" fill="#5580B0"/><path d="M399 869c-1.382 3.21-2.924 5.05-5.625 7.25l-1.914 1.578L390 879l-2-1a865 865 0 0 1 4.375-4.5l2.46-2.531C397 869 397 869 399 869" fill="#7A5AD0"/><path d="M408 859c-1.443 3.366-3.333 5.51-6 8l-3-1a517 517 0 0 1 3.375-3.5l1.898-1.969C406 859 406 859 408 859" fill="#7A5DD3"/><path d="M312 586h2c-1.652 3.579-3.783 6.748-6 10-.812-1.625-.812-1.625-1-4 2.313-3.25 2.313-3.25 5-6" fill="#686BC2"/><path d="m314 960 1 2a279 279 0 0 1-2.312 3.438l-1.301 1.933C310 969 310 969 307 970c1.668-3.941 4.227-6.79 7-10" fill="#7A42C3"/><path d="M445 343v2l-10 2c3.676-3.676 4.846-4 10-4" fill="#3D7995"/><path d="m387 879 1 3c-3.025 4.705-3.025 4.705-6.145 5.648L380 888q1.467-1.97 2.938-3.937l1.652-2.215C386 880 386 880 387 879" fill="#7554C3"/><path d="m357 913 2 1-6 7-1-3z" fill="#8252D6"/><path d="m980 886 2 1-6 7-1-3h2l.938-1.937C979 887 979 887 980 886" fill="#4686A5"/><path d="M981 684q1.723 1.432 3.438 2.875l1.933 1.617C988 690 988 690 989 692c-3.889-1.261-5.894-2.453-8-6z" fill="#349293"/></svg>