<?xml version="1.0" encoding="UTF-8" standalone="no"?>
<!-- Generator: Adobe Illustrator 24.0.0, SVG Export Plug-In . SVG Version: 6.00 Build 0)  -->

<svg
   xmlns:dc="http://purl.org/dc/elements/1.1/"
   xmlns:cc="http://creativecommons.org/ns#"
   xmlns:rdf="http://www.w3.org/1999/02/22-rdf-syntax-ns#"
   xmlns:svg="http://www.w3.org/2000/svg"
   xmlns="http://www.w3.org/2000/svg"
   xmlns:sodipodi="http://sodipodi.sourceforge.net/DTD/sodipodi-0.dtd"
   xmlns:inkscape="http://www.inkscape.org/namespaces/inkscape"
   version="1.1"
   id="Layer_1"
   x="0px"
   y="0px"
   viewBox="0 0 399.99999 399.99998"
   xml:space="preserve"
   sodipodi:docname="sol.svg"
   width="400"
   height="400"
   inkscape:version="0.92.5 (2060ec1f9f, 2020-04-08)"><metadata
   id="metadata911"><rdf:RDF><cc:Work
       rdf:about=""><dc:format>image/svg+xml</dc:format><dc:type
         rdf:resource="http://purl.org/dc/dcmitype/StillImage" /><dc:title></dc:title></cc:Work></rdf:RDF></metadata><defs
   id="defs909" /><sodipodi:namedview
   pagecolor="#ffffff"
   bordercolor="#666666"
   borderopacity="1"
   objecttolerance="10"
   gridtolerance="10"
   guidetolerance="10"
   inkscape:pageopacity="0"
   inkscape:pageshadow="2"
   inkscape:window-width="1848"
   inkscape:window-height="1016"
   id="namedview907"
   showgrid="false"
   inkscape:zoom="0.95052207"
   inkscape:cx="377.33396"
   inkscape:cy="144.25869"
   inkscape:window-x="72"
   inkscape:window-y="27"
   inkscape:window-maximized="1"
   inkscape:current-layer="Layer_1" />
<style
   type="text/css"
   id="style883">
	.st0{fill:url(#SVGID_1_);}
	.st1{fill:url(#SVGID_2_);}
	.st2{fill:url(#SVGID_3_);}
</style>
<linearGradient
   id="SVGID_1_"
   gradientUnits="userSpaceOnUse"
   x1="360.87909"
   y1="351.45529"
   x2="141.213"
   y2="-69.293602"
   gradientTransform="matrix(0.66209841,0,0,-0.66209841,569.08748,238.39938)">
	<stop
   offset="0"
   style="stop-color:#00FFA3"
   id="stop885" />
	<stop
   offset="1"
   style="stop-color:#DC1FFF"
   id="stop887" />
</linearGradient>

<linearGradient
   id="SVGID_2_"
   gradientUnits="userSpaceOnUse"
   x1="264.8291"
   y1="401.60141"
   x2="45.162998"
   y2="-19.147499"
   gradientTransform="matrix(0.66209841,0,0,-0.66209841,569.08748,238.39938)">
	<stop
   offset="0"
   style="stop-color:#00FFA3"
   id="stop892" />
	<stop
   offset="1"
   style="stop-color:#DC1FFF"
   id="stop894" />
</linearGradient>

<linearGradient
   id="SVGID_3_"
   gradientUnits="userSpaceOnUse"
   x1="312.5484"
   y1="376.68799"
   x2="92.882202"
   y2="-44.061001"
   gradientTransform="matrix(0.66209841,0,0,-0.66209841,569.58003,238.39938)">
	<stop
   offset="0"
   style="stop-color:#00FFA3"
   id="stop899" />
	<stop
   offset="1"
   style="stop-color:#DC1FFF"
   id="stop901" />
</linearGradient>

<circle
   style="opacity:0.98999999;fill:#000000;fill-opacity:1;fill-rule:nonzero;stroke:none;stroke-width:1.2051332;stroke-miterlimit:4;stroke-dasharray:none;stroke-opacity:1"
   id="path913"
   cx="200"
   cy="200"
   r="193.65105" /><g
   id="g918"
   transform="matrix(0.96169844,0,0,0.96169844,-474.14293,71.431964)"><path
     inkscape:connector-curvature="0"
     style="fill:url(#SVGID_1_);stroke-width:0.66209841"
     id="path890"
     d="m 611.85904,188.01369 c 1.58904,-1.58903 3.77396,-2.51597 6.09131,-2.51597 h 210.15003 c 3.84017,0 5.76025,4.63469 3.04565,7.34929 l -41.51357,41.51357 c -1.58904,1.58904 -3.77396,2.51597 -6.09131,2.51597 H 573.39112 c -3.84017,0 -5.76025,-4.63468 -3.04565,-7.34929 z"
     class="st0" /><path
     inkscape:connector-curvature="0"
     style="fill:url(#SVGID_2_);stroke-width:0.66209841"
     id="path897"
     d="m 611.85904,33.016453 c 1.65525,-1.589037 3.84017,-2.515974 6.09131,-2.515974 h 210.15003 c 3.84017,0 5.76025,4.634688 3.04565,7.349292 l -41.51357,41.513571 c -1.58904,1.589036 -3.77396,2.515974 -6.09131,2.515974 H 573.39112 c -3.84017,0 -5.76025,-4.634689 -3.04565,-7.349293 z"
     class="st1" /><path
     inkscape:connector-curvature="0"
     style="fill:url(#SVGID_3_);stroke-width:0.66209841"
     id="path904"
     d="m 790.125,110.0185 c -1.58904,-1.58904 -3.77396,-2.51598 -6.09131,-2.51598 H 573.88367 c -3.84017,0 -5.76026,4.63469 -3.04566,7.3493 l 41.51357,41.51357 c 1.58904,1.58903 3.77397,2.51597 6.09131,2.51597 h 210.15003 c 3.84017,0 5.76025,-4.63469 3.04565,-7.34929 z"
     class="st2" /></g></svg>