<?xml version="1.0" encoding="UTF-8"?>
<svg xmlns:xodm="http://www.corel.com/coreldraw/odm/2003" xmlns="http://www.w3.org/2000/svg" xmlns:xlink="http://www.w3.org/1999/xlink" version="1.1" id="Layer_1" x="0px" y="0px" viewBox="0 0 2500 2500" style="enable-background:new 0 0 2500 2500;" xml:space="preserve">
<style type="text/css">
	.st0{fill:none;}
</style>
<g id="Layer_x0020_1">
	<g id="_1626917578416">
		<rect y="0" class="st0" width="2500" height="2500"></rect>
		<g>
			<path d="M2145.9,470.1l-301.3,153.3l-1452.4,740c-5.3-37-7.4-75.1-7.4-113.1c1.1-477.8,389-864.7,866.8-864.7     c146.9,0,291.8,38,420.7,109.9l172.3-87.7l25.4-12.7C1397.5,51.5,736.8,157.2,394.3,628.7c-131.1,180.8-201.9,398.5-201.9,621.6     c0,26.4,1.1,53.9,3.2,80.3c6.4,77.2-34.9,150.1-104.7,186L0,1563.2v215.6l267.4-136.4l0,0l86.7-44.4l85.6-43.3l0,0l1530.7-780.1     l172.3-87.7l355.2-180.8V289.4L2145.9,470.1L2145.9,470.1z"></path>
			<path d="M2498.9,721.7L526.4,1725.9l-172.3,87.7L0,1994.4v215.6l352-178.6l301.3-153.3l1454.5-741c5.3,38.1,7.4,76.1,7.4,114.2     c0,477.8-387.9,864.7-865.8,864.7c-148,0-293.9-38.1-422.8-111l-10.6,5.3L629,2105.4c472.5,342.5,1133.2,237.8,1476.7-234.7     c131.1-180.8,201.9-397.5,201.9-620.5c0-27.5-1.1-53.9-3.2-81.4c-6.3-77.2,34.9-150.1,104.6-186l90.9-46.5l0-214.6L2498.9,721.7     L2498.9,721.7z"></path>
		</g>
	</g>
</g>
</svg>
